<svg width="183" height="57" viewBox="0 0 183 57" fill="none" xmlns="http://www.w3.org/2000/svg">
<rect y="0.670338" width="60" height="55.9626" rx="20" fill="#3D7CB7"/>
<path d="M18.368 41V20.216H10.32V17.96H28.768V20.216H20.72V41H18.368ZM29.1088 41L37.0448 17.96H40.1648L48.1008 41H45.6528L38.1168 19.272H39.0448L31.5568 41H29.1088ZM32.6448 35.416V33.208H44.5487V35.416H32.6448Z" fill="white"/>
<path d="M78.276 38V22.412H72.24V20.72H86.076V22.412H80.04V38H78.276ZM90.0208 38.36C89.0448 38.36 88.2248 38.184 87.5608 37.832C86.9048 37.48 86.4128 37.012 86.0848 36.428C85.7568 35.844 85.5928 35.208 85.5928 34.52C85.5928 33.816 85.7328 33.216 86.0128 32.72C86.3008 32.216 86.6888 31.804 87.1768 31.484C87.6728 31.164 88.2448 30.92 88.8928 30.752C89.5488 30.592 90.2728 30.452 91.0648 30.332C91.8648 30.204 92.6448 30.096 93.4048 30.008C94.1728 29.912 94.8448 29.82 95.4208 29.732L94.7968 30.116C94.8208 28.836 94.5728 27.888 94.0528 27.272C93.5328 26.656 92.6288 26.348 91.3408 26.348C90.4528 26.348 89.7008 26.548 89.0848 26.948C88.4768 27.348 88.0488 27.98 87.8008 28.844L86.0848 28.34C86.3808 27.18 86.9768 26.28 87.8728 25.64C88.7688 25 89.9328 24.68 91.3648 24.68C92.5488 24.68 93.5528 24.904 94.3768 25.352C95.2088 25.792 95.7968 26.432 96.1408 27.272C96.3008 27.648 96.4048 28.068 96.4528 28.532C96.5008 28.996 96.5248 29.468 96.5248 29.948V38H94.9528V34.748L95.4088 34.94C94.9688 36.052 94.2848 36.9 93.3568 37.484C92.4288 38.068 91.3168 38.36 90.0208 38.36ZM90.2248 36.836C91.0488 36.836 91.7688 36.688 92.3848 36.392C93.0008 36.096 93.4968 35.692 93.8728 35.18C94.2488 34.66 94.4928 34.076 94.6048 33.428C94.7008 33.012 94.7528 32.556 94.7608 32.06C94.7688 31.556 94.7728 31.18 94.7728 30.932L95.4448 31.28C94.8448 31.36 94.1928 31.44 93.4888 31.52C92.7928 31.6 92.1048 31.692 91.4248 31.796C90.7528 31.9 90.1448 32.024 89.6008 32.168C89.2328 32.272 88.8768 32.42 88.5328 32.612C88.1888 32.796 87.9048 33.044 87.6808 33.356C87.4648 33.668 87.3568 34.056 87.3568 34.52C87.3568 34.896 87.4488 35.26 87.6328 35.612C87.8248 35.964 88.1288 36.256 88.5448 36.488C88.9688 36.72 89.5288 36.836 90.2248 36.836ZM99.6488 38V25.04H101.233V28.16L100.921 27.752C101.065 27.368 101.253 27.016 101.485 26.696C101.717 26.368 101.969 26.1 102.241 25.892C102.577 25.596 102.969 25.372 103.417 25.22C103.865 25.06 104.317 24.968 104.773 24.944C105.229 24.912 105.645 24.944 106.021 25.04V26.696C105.549 26.576 105.033 26.548 104.473 26.612C103.913 26.676 103.397 26.9 102.925 27.284C102.493 27.62 102.169 28.024 101.953 28.496C101.737 28.96 101.593 29.456 101.521 29.984C101.449 30.504 101.413 31.02 101.413 31.532V38H99.6488ZM108.297 38V25.04H109.881V28.16L109.569 27.752C109.713 27.368 109.901 27.016 110.133 26.696C110.365 26.368 110.617 26.1 110.889 25.892C111.225 25.596 111.617 25.372 112.065 25.22C112.513 25.06 112.965 24.968 113.421 24.944C113.877 24.912 114.293 24.944 114.669 25.04V26.696C114.197 26.576 113.681 26.548 113.121 26.612C112.561 26.676 112.045 26.9 111.573 27.284C111.141 27.62 110.817 28.024 110.601 28.496C110.385 28.96 110.241 29.456 110.169 29.984C110.097 30.504 110.061 31.02 110.061 31.532V38H108.297ZM122.123 38.36C120.835 38.36 119.735 38.068 118.823 37.484C117.911 36.9 117.211 36.092 116.723 35.06C116.235 34.028 115.991 32.844 115.991 31.508C115.991 30.148 116.239 28.956 116.735 27.932C117.231 26.908 117.935 26.112 118.847 25.544C119.767 24.968 120.859 24.68 122.123 24.68C123.419 24.68 124.523 24.972 125.435 25.556C126.355 26.132 127.055 26.936 127.535 27.968C128.023 28.992 128.267 30.172 128.267 31.508C128.267 32.868 128.023 34.064 127.535 35.096C127.047 36.12 126.343 36.92 125.423 37.496C124.503 38.072 123.403 38.36 122.123 38.36ZM122.123 36.668C123.563 36.668 124.635 36.192 125.339 35.24C126.043 34.28 126.395 33.036 126.395 31.508C126.395 29.94 126.039 28.692 125.327 27.764C124.623 26.836 123.555 26.372 122.123 26.372C121.155 26.372 120.355 26.592 119.723 27.032C119.099 27.464 118.631 28.068 118.319 28.844C118.015 29.612 117.863 30.5 117.863 31.508C117.863 33.068 118.223 34.32 118.943 35.264C119.663 36.2 120.723 36.668 122.123 36.668ZM137.97 38C137.242 38.152 136.522 38.212 135.81 38.18C135.106 38.148 134.474 37.996 133.914 37.724C133.362 37.452 132.942 37.028 132.654 36.452C132.422 35.972 132.294 35.488 132.27 35C132.254 34.504 132.246 33.94 132.246 33.308V21.44H133.998V33.236C133.998 33.78 134.002 34.236 134.01 34.604C134.026 34.964 134.11 35.284 134.262 35.564C134.55 36.1 135.006 36.42 135.63 36.524C136.262 36.628 137.042 36.604 137.97 36.452V38ZM129.474 26.552V25.04H137.97V26.552H129.474ZM139.324 38L145.276 20.72H147.616L153.568 38H151.732L146.08 21.704H146.776L141.16 38H139.324ZM141.976 33.812V32.156H150.904V33.812H141.976ZM165.095 38V31.388C165.095 30.668 165.027 30.008 164.891 29.408C164.755 28.8 164.535 28.272 164.231 27.824C163.935 27.368 163.547 27.016 163.067 26.768C162.595 26.52 162.019 26.396 161.339 26.396C160.715 26.396 160.163 26.504 159.683 26.72C159.211 26.936 158.811 27.248 158.483 27.656C158.163 28.056 157.919 28.544 157.751 29.12C157.583 29.696 157.499 30.352 157.499 31.088L156.251 30.812C156.251 29.484 156.483 28.368 156.947 27.464C157.411 26.56 158.051 25.876 158.867 25.412C159.683 24.948 160.619 24.716 161.675 24.716C162.451 24.716 163.127 24.836 163.703 25.076C164.287 25.316 164.779 25.64 165.179 26.048C165.587 26.456 165.915 26.924 166.163 27.452C166.411 27.972 166.591 28.528 166.703 29.12C166.815 29.704 166.871 30.288 166.871 30.872V38H165.095ZM155.723 38V25.04H157.319V28.232H157.499V38H155.723ZM179.345 38V31.388C179.345 30.668 179.277 30.008 179.141 29.408C179.005 28.8 178.785 28.272 178.481 27.824C178.185 27.368 177.797 27.016 177.317 26.768C176.845 26.52 176.269 26.396 175.589 26.396C174.965 26.396 174.413 26.504 173.933 26.72C173.461 26.936 173.061 27.248 172.733 27.656C172.413 28.056 172.169 28.544 172.001 29.12C171.833 29.696 171.749 30.352 171.749 31.088L170.501 30.812C170.501 29.484 170.733 28.368 171.197 27.464C171.661 26.56 172.301 25.876 173.117 25.412C173.933 24.948 174.869 24.716 175.925 24.716C176.701 24.716 177.377 24.836 177.953 25.076C178.537 25.316 179.029 25.64 179.429 26.048C179.837 26.456 180.165 26.924 180.413 27.452C180.661 27.972 180.841 28.528 180.953 29.12C181.065 29.704 181.121 30.288 181.121 30.872V38H179.345ZM169.973 38V25.04H171.569V28.232H171.749V38H169.973Z" fill="#3D7CB7"/>
</svg>
