<svg width="124" height="191" viewBox="0 0 124 191" fill="none" xmlns="http://www.w3.org/2000/svg">
<path d="M48.9607 58.4148C31.2935 70.3094 10.6597 77.1206 7.21753 66.3139C3.77561 55.5078 20.6954 37.0363 38.3626 25.1417C56.0293 13.2474 76.663 6.43557 80.1049 17.2416C83.5468 28.0477 66.6274 46.5205 48.9607 58.4148ZM39.8299 29.7482C19.4475 43.4709 9.16337 58.903 10.7635 63.9266C12.3636 68.9501 27.1104 67.5306 47.4932 53.8076C67.8756 40.0849 78.1593 24.6516 76.5594 19.6287C74.9596 14.6057 60.2123 16.0256 39.8299 29.7482Z" fill="black"/>
<path d="M65.1707 113.177C64.3152 113.757 63.2996 113.499 62.7522 112.486C62.1207 111.32 62.3487 109.593 63.2597 108.627C63.3483 108.534 72.165 99.0751 78.3424 83.6174C86.5253 63.1424 86.4546 42.2563 78.1316 21.5398C77.6184 20.2614 77.9995 18.5678 78.9839 17.7546C79.9597 16.9526 81.1815 17.3183 81.6952 18.5964C92.9355 46.5748 87.9328 70.7541 81.7563 86.1095C75.1118 102.633 65.9356 112.443 65.5478 112.853C65.4272 112.98 65.3006 113.088 65.1707 113.177Z" fill="black"/>
<path d="M70.9114 124.93C69.9902 125.556 68.9097 125.188 68.4163 124.028C67.8872 122.782 68.2353 121.098 69.1939 120.263C69.717 119.804 81.3465 109.378 76.7068 94.6793C76.2869 93.348 76.7677 91.7091 77.7805 91.0182C77.781 91.0179 77.782 91.0172 77.7829 91.0165C78.7953 90.3282 79.956 90.8472 80.3755 92.1772C85.1867 107.419 76.4218 120.164 71.1141 124.772C71.0479 124.832 70.98 124.883 70.9114 124.93Z" fill="black"/>
<path d="M68.0585 109.967C67.9286 110.056 67.7905 110.127 67.6462 110.179C67.1823 110.347 56.145 114.255 43.261 110.986C31.2857 107.949 15.4886 97.8857 8.23561 67.2021C7.90393 65.8005 8.49962 64.2013 9.55399 63.6254C10.6138 63.0514 11.7404 63.7225 12.0719 65.1234C17.4592 87.9144 28.3077 101.529 44.3183 105.592C56.3349 108.64 66.8268 104.924 66.9314 104.885C68.0236 104.491 69.069 105.355 69.2666 106.816C69.4376 108.084 68.914 109.387 68.0585 109.967Z" fill="black"/>
<path d="M72.0312 123.657C71.9626 123.704 71.8916 123.747 71.8185 123.783C65.9925 126.745 53.711 128.309 48.9283 113.048C48.5107 111.717 48.9935 110.08 50.0064 109.392C50.0069 109.391 50.0074 109.391 50.0089 109.39C51.0228 108.703 52.1836 109.226 52.6015 110.558C57.2416 125.364 70.1745 118.991 70.723 118.713C71.7773 118.177 72.8774 118.878 73.18 120.279C73.4611 121.581 72.9524 123.031 72.0312 123.657Z" fill="black"/>
<path d="M80.3195 150.695C78.253 152.097 73.1477 155.117 70.3843 152.898C70.0571 152.636 69.8024 152.242 69.6516 151.764L61.4468 125.754C61.0218 124.407 61.5107 122.75 62.539 122.052C63.5672 121.355 64.7452 121.881 65.1703 123.229L73.0501 148.208C73.9461 148.258 75.9979 147.706 78.7815 145.818C81.5632 143.931 83.1781 141.997 83.7344 140.959L75.8552 115.982C75.4302 114.634 75.9186 112.977 76.9474 112.279C77.9757 111.582 79.1531 112.109 79.5782 113.456L87.783 139.465C87.9338 139.943 87.9737 140.483 87.8984 141.019C87.2617 145.543 82.3865 149.293 80.3195 150.695Z" fill="black"/>
<path d="M82.2968 155.446C77.0051 159.027 70.582 159.818 68.5513 157.136C67.5082 155.759 67.0379 154.135 67.1542 152.312C67.3954 148.543 70.1491 145.4 70.2666 145.267C70.695 144.784 71.3008 144.834 71.6203 145.377C71.9387 145.92 71.8513 146.75 71.4243 147.232C71.4027 147.257 69.242 149.738 69.0815 152.322C69.0156 153.374 69.3027 154.307 69.9588 155.173C71.1257 156.713 76.5096 156.525 81.5578 153.108C86.649 149.662 89.9543 143.942 89.9072 141.672C89.88 140.377 89.5781 139.452 88.9841 138.844C87.5445 137.369 84.8487 138.157 84.8215 138.166C84.2929 138.331 83.802 137.891 83.7259 137.183C83.6501 136.475 84.0151 135.769 84.5451 135.603C84.6896 135.558 88.1108 134.522 90.2302 136.693C91.2558 137.743 91.7981 139.319 91.8402 141.374C91.9258 145.442 87.5555 151.887 82.2968 155.446Z" fill="black"/>
<path d="M85.496 165.785C85.4941 165.786 85.495 165.785 85.4936 165.786C74.043 173.527 60.7411 175.901 55.8425 171.079C53.8223 169.09 52.9318 165.922 53.3337 162.158C54.1673 154.346 60.261 145.545 68.8576 139.734C69.8429 139.068 70.9721 139.571 71.3792 140.856C71.7863 142.141 71.3181 143.724 70.3328 144.39C61.9573 150.052 57.6788 157.55 57.1531 162.468C56.95 164.369 57.3288 165.807 58.278 166.741C61.2432 169.659 72.4692 168.936 84.0184 161.129C84.0189 161.129 84.0199 161.128 84.0208 161.127C95.8081 153.159 103.609 140.956 103.596 136.38C103.592 134.776 103.172 133.642 102.275 132.813C99.4672 130.216 92.5934 131.108 83.8891 135.199C82.8578 135.684 81.8033 134.971 81.5338 133.606C81.2634 132.241 81.8746 130.745 82.9125 130.258C93.2044 125.42 100.714 124.778 104.628 128.397C106.47 130.1 107.448 132.698 107.456 135.912C107.479 144.043 97.4212 157.723 85.496 165.785Z" fill="black"/>
<path d="M13.0792 68.5619C12.8154 68.7359 12.5058 68.7562 12.2397 68.5812C11.79 68.2855 11.6388 67.5415 11.9024 66.9204C15.8069 57.7089 28.0077 45.3759 42.9863 35.4984C56.6581 26.4826 70.0777 21.2218 78.0078 21.7696C78.5234 21.805 78.8842 22.3907 78.8129 23.0789C78.7418 23.7677 78.2659 24.2933 77.7488 24.2588C70.1325 23.7325 57.0894 28.8871 43.7098 37.7102C29.3111 47.2053 17.1835 59.3745 13.5305 67.9922C13.4231 68.2468 13.2626 68.441 13.0792 68.5619Z" fill="black"/>
<path d="M54.0253 68.4635C37.3439 79.4886 21.2232 84.7032 14.822 81.1452C14.3566 80.887 14.1711 80.157 14.4067 79.5162C14.6442 78.8742 15.2124 78.5672 15.677 78.8244C21.5266 82.0768 37.3503 76.7853 53.301 66.2431C67.0296 57.1696 78.6653 45.7316 82.9448 37.1036C83.2415 36.5039 83.8307 36.2961 84.2592 36.6406C84.6886 36.9846 84.7947 37.749 84.4972 38.3478C79.957 47.5019 68.2813 59.0414 54.0253 68.4635Z" fill="black"/>
<path d="M60.6545 91.156C57.1116 93.5647 53.02 91.6776 51.533 86.9498C50.046 82.2219 51.7179 76.4163 55.2608 74.0075C58.8037 71.5987 62.8955 73.4865 64.3823 78.2137C65.8693 82.9415 64.1973 88.7472 60.6545 91.156ZM56.019 76.4181C53.4882 78.1388 52.2996 82.3036 53.3682 85.7013C54.437 89.0995 57.365 90.4648 59.8958 88.7441C62.4262 87.0237 63.615 82.8595 62.5462 79.4613C61.4776 76.0636 58.5494 74.6977 56.019 76.4181Z" fill="black"/>
</svg>
