<svg width="18" height="16" viewBox="0 0 18 16" fill="none" xmlns="http://www.w3.org/2000/svg">
<path fill-rule="evenodd" clip-rule="evenodd" d="M17.3521 7.99992C17.3521 8.27845 17.2378 8.54558 17.0345 8.74254C16.8311 8.9395 16.5553 9.05015 16.2677 9.05015H3.70403L8.36037 13.5577C8.46119 13.6554 8.54117 13.7713 8.59573 13.8989C8.6503 14.0265 8.67838 14.1632 8.67838 14.3013C8.67838 14.4394 8.6503 14.5761 8.59573 14.7037C8.54117 14.8313 8.46119 14.9472 8.36037 15.0449C8.25955 15.1425 8.13986 15.22 8.00813 15.2728C7.8764 15.3257 7.73521 15.3529 7.59263 15.3529C7.45004 15.3529 7.30886 15.3257 7.17713 15.2728C7.0454 15.22 6.92571 15.1425 6.82488 15.0449L0.318579 8.74348C0.217594 8.64592 0.137473 8.53003 0.0828059 8.40243C0.0281389 8.27484 0 8.13806 0 7.99992C0 7.86177 0.0281389 7.72499 0.0828059 7.5974C0.137473 7.4698 0.217594 7.35391 0.318579 7.25635L6.82488 0.954967C7.0285 0.757762 7.30467 0.646973 7.59263 0.646973C7.88059 0.646973 8.15675 0.757762 8.36037 0.954967C8.56399 1.15217 8.67838 1.41964 8.67838 1.69853C8.67838 1.97742 8.56399 2.24489 8.36037 2.44209L3.70403 6.94968H16.2677C16.5553 6.94968 16.8311 7.06033 17.0345 7.25729C17.2378 7.45425 17.3521 7.72138 17.3521 7.99992Z" fill="#606DE4" fill-opacity="0.7"/>
</svg>
