<svg width="80" height="130" viewBox="0 0 80 130" fill="none" xmlns="http://www.w3.org/2000/svg">
<path d="M33.3424 130C20.9482 130 9.27602 123.298 0.475412 111.127C-0.0911629 110.343 -0.159461 109.1 0.314332 108.205C0.787695 107.311 1.66011 107.034 2.365 107.557C7.33188 111.241 12.9439 113.19 18.5947 113.19C24.7797 113.19 30.8433 110.892 36.1392 106.542C42.1589 100.373 41.9303 93.4122 41.7164 91.4224C41.0459 85.1927 43.6541 83.8606 44.6356 83.3597L44.7688 83.2909C45.1008 83.1144 45.4664 83.0958 45.8057 83.2406C45.8762 83.27 53.0887 86.1849 55.2953 80.0324C55.6931 78.9247 56.66 78.4771 57.4538 79.03C58.2489 79.5836 58.5706 80.9301 58.1733 82.0366C55.1858 90.3614 47.5798 88.465 45.4325 87.7385C44.9381 88.052 44.6627 88.5679 44.8985 90.7576C45.1803 93.3733 45.5145 102.483 38.064 110.133C38.0021 110.203 37.9364 110.268 37.8664 110.326C32.0541 115.132 25.3906 117.672 18.5947 117.672C15.8408 117.672 13.0969 117.249 10.4186 116.423C17.2351 122.347 25.1182 125.517 33.3424 125.517C57.2949 125.517 76.7809 98.3697 76.7809 64.9997C76.7809 31.6303 57.2949 4.48229 33.3424 4.48229C25.1182 4.48229 17.2351 7.6522 10.4186 13.5761C13.0969 12.7503 15.8412 12.3272 18.5947 12.3272C25.4228 12.3272 32.2444 15.0004 38.323 20.0578C43.7413 24.567 46.2636 32.6872 47.4251 38.7038C47.7151 40.2089 47.8208 41.6475 47.9238 43.0401C48.1356 45.9126 48.3104 47.6002 49.4406 48.8761C50.0995 49.6199 51.1468 51.3422 50.7572 54.5109C50.1906 59.1183 46.6249 65.2439 44.2087 67.9015C44.3908 68.3599 44.6099 68.7316 44.8203 68.8064C45.1008 68.9075 45.6172 68.6789 46.0734 68.4766C46.8715 68.1235 48.9926 67.184 49.9006 70.0804C50.258 71.2151 49.886 72.5364 49.072 73.0325C48.4677 73.4005 47.789 73.2108 47.3345 72.6244C47.2353 72.6663 47.1335 72.7117 47.0484 72.7488C46.2701 73.0947 45.2031 73.5675 44.0287 73.1516C41.481 72.2509 40.7555 67.9584 40.6812 67.4718C40.5137 66.3731 40.9548 65.2702 41.7151 64.8932C42.7804 64.2337 47.2215 57.5965 47.6038 53.5947C47.6919 52.6725 47.4969 52.4529 47.4144 52.3589C45.1919 49.8485 44.9423 46.4751 44.7237 43.4991C44.6305 42.2274 44.5416 41.0258 44.3182 39.8684C43.3118 34.6506 41.1675 27.6465 36.6744 23.9075C31.0945 19.2648 24.8437 16.8107 18.5959 16.8107C12.9452 16.8107 7.33317 18.7586 2.36629 22.4431C1.66011 22.965 0.788986 22.6891 0.315623 21.795C-0.15774 20.9004 -0.0898717 19.6574 0.476704 18.8735C9.27731 6.70308 20.9494 0 33.3437 0C59.0706 0 80 29.1594 80 65.0003C79.9987 100.842 59.0694 130 33.3424 130Z" fill="black"/>
<path d="M45.3419 87.6278C44.7332 87.6278 44.1512 87.1448 43.8797 86.3238L42.0142 80.6865C41.9652 80.5369 41.9274 80.3795 41.9021 80.2179C41.7251 79.0654 41.8948 76.6644 43.6555 74.9786C43.9656 74.6034 44.2753 72.5502 44.262 70.9188C44.2526 69.6813 44.9639 68.6663 45.8531 68.652C45.8595 68.652 45.8655 68.652 45.872 68.652C46.7517 68.652 47.469 69.6382 47.4798 70.868C47.4914 72.2384 47.3806 76.8499 45.4781 78.6728C45.2246 78.9157 45.1263 79.1294 45.0885 79.2688L46.8019 84.4465C47.1739 85.571 46.8208 86.9025 46.0146 87.4207C45.7951 87.5608 45.567 87.6278 45.3419 87.6278Z" fill="black"/>
<path d="M53.3985 87.1634C47.7856 87.1634 42.655 80.7398 42.43 80.4555C41.7732 79.6219 41.7251 78.2048 42.323 77.2886C42.9222 76.3736 43.9368 76.3066 44.5949 77.1384C44.6576 77.218 49.4024 83.1012 53.8835 82.6566C54.7718 82.5668 55.5402 83.4962 55.6034 84.7307C55.6674 85.9653 55.0012 87.0383 54.115 87.1275C53.8749 87.152 53.636 87.1634 53.3985 87.1634Z" fill="black"/>
<path d="M48.7562 50.134C48.5006 50.134 48.2481 49.9635 48.0921 49.6469C47.8408 49.1358 47.9349 48.4386 48.3018 48.0892C48.5088 47.8905 53.4542 43.2406 58.1861 44.3597C62.7844 45.4489 64.2058 47.3513 64.3523 47.5637C64.6603 48.0114 64.6487 48.7205 64.3282 49.1484C64.0086 49.5775 63.4988 49.5637 63.1916 49.1155C63.1908 49.1155 61.964 47.5278 57.9168 46.5691C53.815 45.5985 49.2558 49.894 49.2107 49.9377C49.0715 50.0706 48.9134 50.134 48.7562 50.134Z" fill="black"/>
<path d="M56.3512 60.1883C55.5286 60.1883 54.6708 60.0548 53.7945 59.7328C53.3641 59.5755 53.1086 58.9615 53.2215 58.363C53.3336 57.7646 53.7726 57.4055 54.2039 57.5653C57.1661 58.6515 59.9783 57.1416 61.5062 56.0309C57.5943 53.7515 53.414 55.0567 53.368 55.071C52.9355 55.2093 52.5029 54.8359 52.4024 54.2344C52.3019 53.6318 52.5691 53.0298 53.0016 52.8885C53.2353 52.8119 58.7992 51.0555 63.5814 54.9747C63.8142 55.1656 63.9615 55.5061 63.9762 55.8819C63.9908 56.2565 63.8692 56.6174 63.6527 56.8412C63.4946 57.004 60.3564 60.1883 56.3512 60.1883Z" fill="black"/>
<path d="M55.3968 60.1858C55.2984 60.1858 55.1966 60.1606 55.0995 60.1062C52.8925 58.883 53.7559 53.9483 53.8615 53.3893C53.9737 52.7903 54.4148 52.433 54.8439 52.5916C55.2735 52.749 55.5299 53.3612 55.4169 53.959C55.1863 55.1948 55.0303 57.6562 55.6944 58.0242C56.1072 58.2522 56.3096 58.9039 56.145 59.4796C56.0192 59.9183 55.7163 60.1858 55.3968 60.1858Z" fill="black"/>
<path d="M56.7356 60.0795C56.5054 60.0795 56.2781 59.9436 56.1188 59.6791C55.8327 59.2051 55.8778 58.4984 56.218 58.0998C56.7313 57.5002 57.0109 56.8575 57.05 56.1884C57.1085 55.1651 56.6037 54.3004 56.5986 54.2914C56.3086 53.8228 56.3451 53.1155 56.6815 52.7109C57.0178 52.3058 57.5268 52.3584 57.8159 52.8264C57.9143 52.9838 58.7661 54.4201 58.654 56.368C58.5797 57.657 58.108 58.818 57.2524 59.8174C57.1012 59.9933 56.9177 60.0795 56.7356 60.0795Z" fill="black"/>
<path d="M56.7342 74.1522C56.525 74.1522 56.3141 74.0385 56.1573 73.8117C55.8485 73.367 55.8553 72.6579 56.1754 72.227C61.311 65.2924 77.6515 63.9357 78.3448 63.8818C78.783 63.8495 79.1683 64.3193 79.1932 64.9375C79.2181 65.5557 78.8792 66.0847 78.435 66.1194C78.2714 66.132 62.0022 67.4802 57.2948 73.8368C57.1388 74.0469 56.9365 74.1522 56.7342 74.1522Z" fill="black"/>
</svg>
