<svg width="18" height="16" viewBox="0 0 18 16" fill="none" xmlns="http://www.w3.org/2000/svg">
<path fill-rule="evenodd" clip-rule="evenodd" d="M0.647888 7.99992C0.647888 7.72138 0.762136 7.45425 0.965497 7.25729C1.16886 7.06033 1.44468 6.94968 1.73227 6.94968H14.2959L9.6396 2.44209C9.43598 2.24489 9.32159 1.97742 9.32159 1.69853C9.32159 1.41964 9.43598 1.15217 9.6396 0.954967C9.84322 0.757762 10.1194 0.646973 10.4073 0.646973C10.6953 0.646973 10.9715 0.757762 11.1751 0.954967L17.6814 7.25635C17.7824 7.35391 17.8625 7.4698 17.9172 7.5974C17.9718 7.72499 18 7.86177 18 7.99992C18 8.13806 17.9718 8.27484 17.9172 8.40243C17.8625 8.53003 17.7824 8.64592 17.6814 8.74348L11.1751 15.0449C10.9715 15.2421 10.6953 15.3529 10.4073 15.3529C10.1194 15.3529 9.84322 15.2421 9.6396 15.0449C9.43598 14.8477 9.32159 14.5802 9.32159 14.3013C9.32159 14.0224 9.43598 13.7549 9.6396 13.5577L14.2959 9.05015H1.73227C1.44468 9.05015 1.16886 8.9395 0.965497 8.74254C0.762136 8.54558 0.647888 8.27845 0.647888 7.99992Z" fill="#606DE4" fill-opacity="0.7"/>
</svg>
