<svg width="35" height="25" viewBox="0 0 35 25" fill="none" xmlns="http://www.w3.org/2000/svg">
<path fill-rule="evenodd" clip-rule="evenodd" d="M0 12.5C0 12.1317 0.131688 11.7785 0.366093 11.518C0.600499 11.2576 0.918421 11.1113 1.24992 11.1113H30.7305L22.8635 2.37364C22.6288 2.11288 22.497 1.75922 22.497 1.39045C22.497 1.02168 22.6288 0.668012 22.8635 0.407253C23.0982 0.146493 23.4166 8.68851e-09 23.7485 0C24.0804 -8.68851e-09 24.3987 0.146493 24.6334 0.407253L34.6328 11.5168C34.7492 11.6458 34.8415 11.799 34.9046 11.9678C34.9676 12.1365 35 12.3173 35 12.5C35 12.6827 34.9676 12.8635 34.9046 13.0322C34.8415 13.201 34.7492 13.3542 34.6328 13.4832L24.6334 24.5927C24.3987 24.8535 24.0804 25 23.7485 25C23.4166 25 23.0982 24.8535 22.8635 24.5927C22.6288 24.332 22.497 23.9783 22.497 23.6096C22.497 23.2408 22.6288 22.8871 22.8635 22.6264L30.7305 13.8887H1.24992C0.918421 13.8887 0.600499 13.7424 0.366093 13.482C0.131688 13.2215 0 12.8683 0 12.5Z" fill="white" fill-opacity="0.5"/>
</svg>
