<svg width="35" height="50" viewBox="0 0 35 50" fill="none" xmlns="http://www.w3.org/2000/svg">
<g clip-path="url(#clip0_13_10148)">
<path d="M26.25 3.125C26.8302 3.125 27.3866 3.45424 27.7968 4.04029C28.207 4.62634 28.4375 5.4212 28.4375 6.25V43.75C28.4375 44.5788 28.207 45.3737 27.7968 45.9597C27.3866 46.5458 26.8302 46.875 26.25 46.875H8.75C8.16984 46.875 7.61344 46.5458 7.2032 45.9597C6.79297 45.3737 6.5625 44.5788 6.5625 43.75V6.25C6.5625 5.4212 6.79297 4.62634 7.2032 4.04029C7.61344 3.45424 8.16984 3.125 8.75 3.125H26.25ZM8.75 0C7.58968 0 6.47688 0.65848 5.65641 1.83058C4.83594 3.00269 4.375 4.5924 4.375 6.25V43.75C4.375 45.4076 4.83594 46.9973 5.65641 48.1694C6.47688 49.3415 7.58968 50 8.75 50H26.25C27.4103 50 28.5231 49.3415 29.3436 48.1694C30.1641 46.9973 30.625 45.4076 30.625 43.75V6.25C30.625 4.5924 30.1641 3.00269 29.3436 1.83058C28.5231 0.65848 27.4103 0 26.25 0L8.75 0Z" fill="black"/>
<path d="M17.5 43.75C18.0802 43.75 18.6366 43.4208 19.0468 42.8347C19.457 42.2487 19.6875 41.4538 19.6875 40.625C19.6875 39.7962 19.457 39.0013 19.0468 38.4153C18.6366 37.8292 18.0802 37.5 17.5 37.5C16.9198 37.5 16.3634 37.8292 15.9532 38.4153C15.543 39.0013 15.3125 39.7962 15.3125 40.625C15.3125 41.4538 15.543 42.2487 15.9532 42.8347C16.3634 43.4208 16.9198 43.75 17.5 43.75Z" fill="black"/>
</g>
<defs>
<clipPath id="clip0_13_10148">
<rect width="35" height="50" fill="white"/>
</clipPath>
</defs>
</svg>
