<svg width="35" height="35" viewBox="0 0 35 35" fill="none" xmlns="http://www.w3.org/2000/svg">
<path d="M29.8867 5.08822C28.2748 3.46876 26.3553 2.18485 24.24 1.3113C22.1248 0.437751 19.856 -0.00797182 17.5659 0.00010791C7.96993 0.00010791 0.149422 7.78321 0.140633 17.3382C0.140633 20.3985 0.944877 23.3757 2.46327 26.0116L0 35L9.23782 32.5894C11.7934 33.9739 14.6564 34.6996 17.5659 34.7003H17.5747C27.1729 34.7003 34.9912 26.9172 35 17.3535C35.0022 15.0742 34.5513 12.817 33.6734 10.712C32.7954 8.60695 31.5077 6.69566 29.8845 5.08822H29.8867ZM17.5659 31.7647C14.9708 31.7656 12.4234 31.0704 10.1915 29.7522L9.66411 29.4372L4.18383 30.8678L5.64729 25.5457L5.30449 24.9966C3.85379 22.7004 3.08655 20.042 3.09172 17.3294C3.09172 9.39758 9.5894 2.92697 17.5747 2.92697C19.4771 2.92358 21.3613 3.29507 23.1188 4.02005C24.8762 4.74502 26.4721 5.80913 27.8145 7.15102C29.1616 8.48769 30.2295 10.0766 30.9566 11.8262C31.6838 13.5758 32.0557 15.4513 32.0511 17.3447C32.0423 25.305 25.5446 31.7647 17.5659 31.7647ZM25.5095 20.9716C25.0766 20.755 22.9385 19.7072 22.5364 19.5585C22.1365 19.4163 21.8442 19.3419 21.5586 19.775C21.2663 20.206 20.4313 21.1882 20.1808 21.4704C19.9303 21.7613 19.671 21.7941 19.2359 21.5797C18.803 21.361 17.3989 20.906 15.7377 19.425C14.4412 18.2766 13.5733 16.8547 13.314 16.4238C13.0635 15.9907 13.2898 15.7588 13.5073 15.5422C13.6985 15.3497 13.9402 15.0347 14.1578 14.7854C14.3775 14.536 14.45 14.3523 14.5929 14.0635C14.7357 13.7704 14.6676 13.521 14.5599 13.3044C14.45 13.0879 13.5821 10.9507 13.2151 10.0888C12.8635 9.23789 12.5053 9.35602 12.2373 9.34508C11.9867 9.32977 11.6945 9.32977 11.4022 9.32977C11.1815 9.33523 10.9644 9.38604 10.7643 9.47902C10.5643 9.572 10.3857 9.70514 10.2398 9.87008C9.8399 10.3032 8.72143 11.351 8.72143 13.4882C8.72143 15.6254 10.2816 17.6794 10.5013 17.9704C10.7167 18.2613 13.5645 22.6341 17.9351 24.5153C18.9678 24.9638 19.7809 25.2285 20.4159 25.4297C21.4597 25.7622 22.4024 25.7119 23.1539 25.6047C23.9889 25.4778 25.727 24.5547 26.094 23.5419C26.4543 22.5269 26.4544 21.6607 26.3445 21.4791C26.2368 21.2954 25.9446 21.1882 25.5095 20.9716Z" fill="white"/>
</svg>
