<svg width="200" height="300" viewBox="0 0 200 300" fill="none" xmlns="http://www.w3.org/2000/svg">
<path d="M83.7631 1.28931C44.1812 7.50418 11.7073 36.4629 2.50871 73.7521C0.139373 83.0083 0 92.7934 0 191.57V299.339L100.07 299.736L200 300V195.008C200 80.6281 199.721 76.2645 192.056 59.0744C173.798 18.0827 128.92 -5.98343 83.7631 1.28931ZM130.174 8.56204C154.146 16.0992 174.077 32.6281 185.366 54.3141C195.54 74.1488 195.819 75.7356 195.819 152.826V220.661H185.366H174.913V181.917V143.174L171.289 136.298C164.599 123.603 151.22 116.595 135.889 117.917C121.951 119.107 112.334 125.587 106.341 138.017C103.275 144.364 103.136 146.215 102.718 182.579L102.3 220.661H90.5923H78.885L78.4669 230.182L78.0488 239.835L68.5714 240.231L59.0941 240.628L59.3728 249.488L59.7909 258.347L49.0592 258.744L38.3275 259.141V268.264V277.521H29.2683H20.2091V286.777V296.033H11.8467H3.48432V191.57C3.48432 72.9587 3.34495 75.6033 14.216 54.1819C19.3728 43.8678 22.439 39.7686 31.9164 30.9091C41.115 22.0496 45.7143 18.8761 56.446 13.8513C73.8676 5.78516 83.7631 3.66946 103.136 4.33063C115.261 4.72733 120.976 5.52072 130.174 8.56204ZM153.589 124.397C156.794 125.851 161.394 129.025 163.624 131.537C171.15 139.603 172.125 145.818 172.125 185.223V220.661H139.373H106.62V183.24C106.62 147.008 106.76 145.818 109.965 139.339C114.843 129.289 122.369 123.736 135.192 121.091C139.512 120.165 147.178 121.488 153.589 124.397ZM195.54 232.165L195.122 239.835H138.676H82.23L81.8119 232.165L81.3937 224.628H138.676H195.958L195.54 232.165ZM195.819 251.074V259.008L130.035 258.744L64.1115 258.347L63.6934 250.678L63.2753 243.141H129.617H195.819V251.074ZM195.54 269.851L195.958 277.521H119.164H42.5087V269.587V261.653L118.885 261.917L195.122 262.314L195.54 269.851ZM195.819 288.76V296.033H110.105H24.3902V288.76V281.488H110.105H195.819V288.76Z" fill="#E38B8B"/>
<path d="M116.098 26.942C113.728 31.9668 116.516 36.8594 121.951 36.8594C124.878 36.8594 126.69 35.8015 128.362 33.5536C130.453 30.5123 130.453 29.9833 128.362 26.942C126.69 24.6941 124.878 23.6362 121.951 23.6362C118.746 23.6362 117.352 24.4296 116.098 26.942Z" fill="#E38B8B"/>
<path d="M49.7561 34.3469C43.4844 37.3882 37.9095 44.6609 36.237 52.3304C34.1464 61.851 41.115 73.4874 51.568 77.9832C67.4565 84.8593 84.1812 76.2642 87.6656 59.4708L88.5018 54.8427L85.4356 57.6196C80.6969 61.5865 76.6551 63.3056 71.7771 63.3056C56.0279 63.3056 48.6412 45.7188 59.5122 34.4791L62.4391 31.57H59.0941C57.2823 31.57 53.1011 32.8923 49.7561 34.3469ZM51.2892 43.8675C50.7318 49.0246 51.1499 52.3304 52.9617 55.7684C57.0035 63.9667 68.8502 68.9915 77.352 66.2146C81.9513 64.6279 82.5088 65.289 79.4426 69.1237C75.5401 74.0163 69.9652 76.5287 62.5784 76.5287C41.6725 76.5287 32.0558 52.4626 47.8049 39.9006C49.8955 38.1816 51.7074 36.8593 51.8467 36.8593C51.9861 36.8593 51.7074 40.0328 51.2892 43.8675Z" fill="#E38B8B"/>
<path d="M157.074 79.8344C155.959 82.0823 154.286 83.1402 151.917 83.1402C147.736 83.1402 147.596 84.0658 151.359 86.9749C153.729 88.8261 154.007 89.7517 152.753 92.793C151.081 96.8922 151.499 97.1567 155.959 94.3798C158.746 92.6608 159.443 92.6608 161.812 94.3798C165.715 97.1567 166.551 96.76 165.157 92.3963C164.182 89.0906 164.46 88.1649 167.666 85.917L171.429 83.2724L166.83 83.1402C163.345 83.1402 161.952 82.479 160.976 79.8344C160.279 77.9831 159.443 76.5286 159.164 76.5286C158.886 76.5286 157.91 77.9831 157.074 79.8344Z" fill="#E38B8B"/>
<path d="M19.512 144.231C18.9545 145.553 17.5608 146.611 16.4458 146.611C14.634 146.611 14.634 147.008 16.0277 148.595C17.0033 149.653 17.4214 151.504 16.8639 152.562C16.3064 154.148 16.5852 154.281 18.5364 153.487C19.7908 152.826 21.6026 152.429 22.2995 152.694C23.1357 152.958 24.3901 151.768 25.3657 149.917C26.62 147.272 26.4807 146.611 25.0869 146.611C23.9719 146.611 22.5782 145.553 21.742 144.231C20.4876 142.115 20.3483 142.115 19.512 144.231Z" fill="#E38B8B"/>
<path d="M81.8119 181.785C77.0733 184.826 78.0489 191.702 83.345 193.422C88.5018 195.141 91.8468 193.157 92.4043 187.868C92.683 184.959 91.9862 183.372 89.6168 181.785C87.9443 180.595 86.1325 179.669 85.7144 179.669C85.2963 179.669 83.4844 180.595 81.8119 181.785Z" fill="#E38B8B"/>
</svg>
