<svg width="346" height="500" viewBox="0 0 346 500" fill="none" xmlns="http://www.w3.org/2000/svg">
<path d="M0.457855 239.481V32.7503H40.1691V0.0012207H151.236L126.141 12.9171V2.67375H43.4083V32.7503H58.7777V48.0944H40.1691V35.4229H3.69868V210.673H17.209L0.457855 239.481ZM3.69868 213.344V227.729L12.0599 213.344H3.69868ZM43.4083 45.4219H55.5386V35.4229H43.4083V45.4219ZM129.382 2.67375V8.10122L139.927 2.67375H129.382Z" fill="#913333"/>
<path d="M13.1063 72.9293V23.8098H11.4334C10.9897 23.8098 10.5512 23.7819 10.116 23.7344C9.92299 24.7537 9.49291 25.72 8.68186 26.5382C7.30865 27.9317 5.07868 28.655 2.05457 28.6899L2.00716 26.0188C4.02888 25.9937 5.42918 25.6013 6.17081 24.8501C6.66185 24.353 6.90059 23.6855 6.98186 22.9274C3.20935 21.3858 0.457855 18.0053 0.457855 14.2884V0.00268555H17.7796C22.287 0.00268555 26.3863 2.27309 28.259 5.38267C29.175 5.31565 29.9861 5.12017 30.5923 4.71245C31.5032 4.10226 31.979 2.94891 32.0078 1.28031L35.2469 1.31801C35.2012 3.81323 34.3241 5.65076 32.6377 6.78317C31.6437 7.45201 30.4754 7.80667 29.2377 7.96725C29.2969 8.32331 29.3274 8.68775 29.3274 9.05218V10.4331H88.8952L86.1285 12.7133C78.7849 18.7691 75.6914 22.7179 75.6592 22.7584L75.1902 23.3644L74.3148 23.3756L29.3088 23.7973L28.7873 61.6304L28.0507 62.0199C28.0033 62.045 23.2148 64.5975 15.8713 70.6533L13.1063 72.9293ZM16.3454 23.8098V66.5426C20.9137 62.9876 24.1783 60.9811 25.5684 60.1754L26.0696 23.8084H16.3454V23.8098ZM16.3454 21.1373H26.0883V13.1043H16.3454V21.1373ZM10.1702 21.0326C10.5851 21.101 11.005 21.1373 11.4317 21.1373H13.1046V14.4238C12.5847 14.2437 11.8347 14.0733 11.0964 14.2032C10.3649 14.3358 9.74013 14.7505 9.18645 15.4724C9.10856 15.8634 9.38117 17.0461 9.58266 17.9188C9.80617 18.8655 10.0517 19.9365 10.1702 21.0326ZM29.3274 13.1043V21.1219L73.4292 20.7086C74.4028 19.5636 76.8377 16.8729 81.1504 13.1043H29.3274ZM3.69868 2.67382V14.287C3.69868 16.3228 4.88733 18.2539 6.65507 19.5469C6.57548 19.1615 6.48574 18.7845 6.40108 18.4214C5.95915 16.5113 5.63913 15.1303 6.37568 14.1404C7.4221 12.7329 8.79531 11.8727 10.453 11.5865C13.069 11.1369 15.3159 12.3391 15.6376 12.5192C15.4141 12.2553 13.9597 10.4024 14.5083 8.24372C14.852 6.87673 15.895 5.74711 17.6035 4.88279C18.804 4.2726 20.4752 4.5379 22.7915 4.90374C23.2335 4.97355 23.6923 5.04477 24.158 5.11179C22.5934 3.65264 20.25 2.67243 17.7779 2.67243H3.69868V2.67382ZM17.9489 10.4317H26.09V9.05079C26.09 8.70171 26.0442 8.35403 25.963 8.01333C24.6338 7.91559 23.3334 7.70894 22.1871 7.52881C21.1288 7.36125 19.6912 7.13226 19.2205 7.20207C18.34 7.66146 17.8338 8.18229 17.6831 8.78829C17.5273 9.39149 17.7339 10.0031 17.9489 10.4317Z" fill="#913333"/>
<path d="M328.898 210.671H342.409V35.4229H305.935V48.0944H287.328V32.7504H302.697V2.67376H219.966V12.9171L194.869 0.0012207H305.94L305.937 32.7504H345.648V239.483L328.898 210.671ZM334.044 213.344L342.409 227.729V213.344H334.044ZM302.697 35.4229H290.569V45.4219H302.697V35.4229ZM206.18 2.67376L216.725 8.10123V2.67376H206.18Z" fill="#913333"/>
<path d="M330.233 70.6506C322.889 64.5962 318.102 62.0424 318.055 62.0172L317.317 61.6277L316.795 23.7946L271.794 23.3729L270.917 23.3617L270.448 22.7557C270.414 22.7152 267.321 18.7678 259.977 12.7106L257.212 10.4304H316.775V9.0495C316.775 8.68506 316.809 8.32202 316.87 7.96456C315.632 7.80538 314.46 7.44932 313.468 6.78049C311.782 5.64808 310.903 3.81053 310.859 1.31532L314.098 1.27762C314.128 2.94621 314.604 4.09957 315.513 4.70975C316.118 5.11748 316.931 5.31297 317.847 5.37999C319.716 2.2704 323.819 0 328.324 0H345.646V14.2857C345.646 18.0027 342.896 21.3831 339.124 22.9247C339.202 23.6829 339.442 24.3503 339.935 24.8474C340.675 25.5986 342.075 25.991 344.099 26.0161L344.051 28.6872C341.025 28.6523 338.797 27.929 337.422 26.5355C336.613 25.7173 336.183 24.751 335.99 23.7317C335.555 23.7806 335.114 23.8071 334.672 23.8071H332.999V72.9266L330.233 70.6506ZM320.036 23.8099L320.539 60.1769C321.927 60.9812 325.192 62.9877 329.759 66.5441V23.8099H320.036ZM329.759 13.1044H320.017V21.1374H329.759V13.1044ZM336.521 17.9189C336.725 17.0462 336.999 15.8635 336.919 15.4725C336.364 14.7506 335.739 14.3373 335.009 14.2033C334.271 14.0734 333.521 14.2438 333.001 14.4239V21.1374H334.674C335.097 21.1374 335.521 21.1025 335.934 21.0327C336.054 19.9366 336.301 18.8656 336.521 17.9189ZM264.959 13.1044C269.271 16.873 271.703 19.5623 272.678 20.7087L316.777 21.122V13.1044H264.959ZM328.324 2.67393C325.856 2.67393 323.511 3.65275 321.946 5.11329C322.412 5.04627 322.869 4.97366 323.311 4.90524C325.627 4.5394 327.3 4.2755 328.501 4.88429C330.207 5.74861 331.25 6.87684 331.596 8.24523C332.143 10.4039 330.688 12.2554 330.466 12.5207C330.786 12.3392 333.035 11.137 335.651 11.588C337.309 11.8756 338.68 12.7344 339.728 14.1419C340.465 15.1318 340.147 16.5128 339.701 18.423C339.617 18.786 339.53 19.163 339.449 19.5484C341.217 18.2568 342.407 16.3243 342.407 14.2885V2.67533H328.324V2.67393ZM328.428 8.78839C328.272 8.181 327.769 7.66017 326.889 7.20218C326.415 7.13376 324.979 7.36136 323.92 7.52892C322.772 7.70764 321.472 7.9143 320.146 8.01344C320.062 8.35414 320.017 8.70181 320.017 9.05089V10.4318H328.157C328.372 10.0032 328.578 9.3916 328.428 8.78839Z" fill="#913333"/>
<path d="M345.648 260.525V467.252H305.938V500H194.868L219.963 487.084V497.327H302.696V467.251H287.326V451.907H305.938V464.58H342.409V289.331H328.898L345.648 260.525ZM342.409 286.66V272.277L334.044 286.66H342.409ZM302.697 454.579H290.569V464.581H302.697V454.579ZM216.725 497.327V491.901L206.178 497.327H216.725Z" fill="#913333"/>
<path d="M333.001 427.072V476.191H334.674C335.118 476.191 335.556 476.218 335.991 476.267C336.184 475.247 336.616 474.281 337.425 473.463C338.8 472.069 341.029 471.346 344.054 471.31L344.1 473.984C342.08 474.007 340.678 474.4 339.937 475.15C339.445 475.648 339.207 476.316 339.127 477.071C342.896 478.615 345.648 481.996 345.648 485.713V499.997L328.326 499.998C323.819 499.998 319.718 497.728 317.847 494.62C316.931 494.687 316.118 494.882 315.515 495.287C314.604 495.899 314.128 497.055 314.098 498.722L310.859 498.683C310.904 496.189 311.78 494.35 313.468 493.219C314.46 492.552 315.632 492.196 316.87 492.037C316.809 491.681 316.778 491.318 316.778 490.952V489.571H257.212L259.975 487.292C267.321 481.235 270.416 477.286 270.448 477.247L270.917 476.641L271.794 476.63L316.795 476.208L317.317 438.375L318.057 437.985C318.102 437.959 322.889 435.409 330.234 429.352L333.001 427.072ZM329.759 476.191V433.458C325.192 437.015 321.927 439.02 320.539 439.826L320.036 476.193H329.759V476.191ZM329.759 478.862H320.017V486.897H329.759V478.862ZM335.934 478.969C335.521 478.899 335.101 478.862 334.674 478.862H333.001V485.577C333.523 485.755 334.271 485.926 335.011 485.794C335.741 485.664 336.367 485.249 336.919 484.527C336.999 484.138 336.724 482.954 336.523 482.081C336.303 481.137 336.054 480.065 335.934 478.969ZM316.778 486.898V478.879L272.678 479.294C271.703 480.439 269.271 483.13 264.959 486.898H316.778ZM342.409 497.326V485.713C342.409 483.678 341.218 481.744 339.451 480.453C339.532 480.84 339.622 481.217 339.705 481.58C340.146 483.49 340.468 484.871 339.73 485.861C338.682 487.27 337.31 488.127 335.654 488.413C333.038 488.866 330.79 487.663 330.468 487.482C330.69 487.747 332.144 489.599 331.599 491.757C331.252 493.124 330.211 494.254 328.502 495.115C327.3 495.724 325.625 495.462 323.312 495.097C322.87 495.028 322.413 494.954 321.944 494.888C323.51 496.344 325.854 497.327 328.324 497.327L342.409 497.326ZM328.158 489.569H320.017V490.95C320.017 491.301 320.061 491.648 320.146 491.988C321.475 492.087 322.774 492.292 323.922 492.472C324.98 492.641 326.416 492.87 326.888 492.8C327.771 492.34 328.274 491.819 328.428 491.21C328.578 490.61 328.372 489.995 328.158 489.569Z" fill="#913333"/>
<path d="M17.2107 289.331H3.70039V464.58H40.1708V451.907H58.7777V467.251H43.41V497.327H126.143V487.084L151.238 500H40.1708V467.252H0.457855V260.525L17.2107 289.331ZM12.0615 286.66L3.69868 272.277V286.66H12.0615ZM43.4083 464.58H55.5386V454.578H43.4083V464.58ZM139.926 497.327L129.38 491.901V497.327H139.926Z" fill="#913333"/>
<path d="M15.8713 429.352C23.2165 435.409 28.0033 437.959 28.0507 437.985L28.789 438.375L29.3122 476.208L74.3148 476.63L75.1902 476.641L75.6592 477.247C75.6914 477.286 78.7849 481.235 86.1285 487.292L88.8952 489.571H29.3274V490.952C29.3274 491.318 29.2969 491.681 29.2377 492.037C30.4737 492.196 31.642 492.552 32.6377 493.219C34.3224 494.352 35.2012 496.189 35.2469 498.683L32.0078 498.722C31.979 497.055 31.5032 495.9 30.5923 495.287C29.9878 494.882 29.175 494.688 28.259 494.62C26.3897 497.728 22.2886 499.998 17.783 499.998L0.457855 499.997V485.713C0.457855 481.996 3.21104 478.615 6.98186 477.071C6.90059 476.316 6.66354 475.648 6.17081 475.15C5.43087 474.398 4.03057 474.007 2.00885 473.984L2.05457 471.31C5.08037 471.346 7.31034 472.069 8.68186 473.463C9.49291 474.281 9.92299 475.246 10.116 476.267C10.5495 476.218 10.9897 476.191 11.4334 476.191H13.108V427.072L15.8713 429.352ZM26.0713 476.191L25.5684 439.824C24.1783 439.02 20.9137 437.014 16.3471 433.457V476.19H26.0713V476.191ZM16.3471 486.898H26.0883V478.864H16.3471V486.898ZM9.58436 482.081C9.38286 482.954 9.11025 484.138 9.18814 484.527C9.74352 485.249 10.3683 485.664 11.0981 485.794C11.8363 485.926 12.5848 485.756 13.108 485.577V478.862H11.4334C11.01 478.862 10.5867 478.899 10.1719 478.969C10.0551 480.065 9.80617 481.137 9.58436 482.081ZM81.1487 486.898C76.836 483.13 74.4045 480.439 73.4309 479.294L29.3291 478.879V486.898H81.1487ZM17.7847 497.327C20.2517 497.327 22.5951 496.344 24.1597 494.886C23.694 494.954 23.2369 495.029 22.7932 495.097C20.4786 495.462 18.8057 495.724 17.6052 495.115C15.8984 494.253 14.8554 493.124 14.51 491.757C13.963 489.599 15.4175 487.747 15.6393 487.482C15.3176 487.663 13.0707 488.866 10.4547 488.413C8.79701 488.127 7.42548 487.27 6.37907 485.861C5.64082 484.871 5.96254 483.49 6.40448 481.58C6.48914 481.217 6.57718 480.84 6.65676 480.453C4.88903 481.744 3.70039 483.678 3.70039 485.713V497.326L17.7847 497.327ZM17.6814 491.21C17.8338 491.819 18.34 492.34 19.2188 492.8C19.6912 492.869 21.1288 492.641 22.1854 492.472C23.3334 492.294 24.6338 492.088 25.9613 491.988C26.0442 491.647 26.0883 491.301 26.0883 490.95V489.569H17.9472C17.7339 489.995 17.5273 490.61 17.6814 491.21Z" fill="#913333"/>
</svg>
