<svg width="200" height="200" viewBox="0 0 200 200" fill="none" xmlns="http://www.w3.org/2000/svg">
<path d="M100.001 151.532C71.5857 151.532 48.4674 128.414 48.4674 99.9999C48.4674 71.5854 71.5857 48.4674 100.001 48.4674C128.415 48.4674 151.533 71.5854 151.533 99.9999C151.533 128.414 128.415 151.532 100.001 151.532ZM100.001 53.4576C74.3362 53.4576 53.4576 74.3359 53.4576 99.9999C53.4576 125.663 74.3362 146.542 100.001 146.542C125.664 146.542 146.543 125.663 146.543 99.9999C146.543 74.3359 125.665 53.4576 100.001 53.4576Z" fill="black"/>
<path d="M94.0746 83.9857C93.5703 83.9857 93.094 83.6773 92.9068 83.177C91.6757 79.8983 89.7172 76.4489 81.9479 77.0292C73.3884 77.6693 64.9589 82.1572 64.875 82.2031C64.2688 82.5295 63.512 82.303 63.1849 81.6955C62.8585 81.0887 63.0856 80.3319 63.6925 80.0062C64.0556 79.8103 72.6783 75.2199 81.762 74.5418C90.8144 73.8643 93.6595 78.0837 95.2423 82.2997C95.4841 82.9445 95.1584 83.664 94.5129 83.9065C94.3683 83.9604 94.2204 83.9857 94.0746 83.9857Z" fill="black"/>
<path d="M78.8847 97.8403C77.3759 97.8403 76.0309 97.6524 74.8878 97.2814C68.3515 95.1584 65.4144 91.1282 65.2931 90.9577C65.0833 90.6639 65.0114 90.2942 65.0946 89.9431C65.1786 89.5914 65.4097 89.2943 65.7301 89.1271C66.0519 88.9592 73.6921 85.0043 80.5235 85.0043C82.4806 85.0043 84.2093 85.3334 85.6622 85.9842C93.0485 89.2876 93.664 92.8069 93.7107 93.1972C93.7746 93.7435 93.4735 94.2677 92.9679 94.4869C92.6522 94.6241 85.1799 97.8403 78.8847 97.8403ZM68.3581 90.6399C69.6005 91.8376 71.9867 93.7162 75.6579 94.9086C76.5519 95.1983 77.637 95.3456 78.8847 95.3456C83.276 95.3456 88.522 93.5416 90.8096 92.6657C90.1601 91.7004 88.5473 90.0091 84.643 88.2624C83.5125 87.7562 82.1262 87.5004 80.5228 87.5004C75.9803 87.4997 70.8276 89.5321 68.3581 90.6399Z" fill="black"/>
<path d="M79.5731 96.8291C76.3129 96.8291 73.6603 94.1765 73.6603 90.917C73.6603 87.6569 76.3129 85.0043 79.5731 85.0043C82.8333 85.0043 85.4852 87.6569 85.4852 90.917C85.4852 94.1765 82.8333 96.8291 79.5731 96.8291ZM79.5731 87.499C77.6885 87.499 76.1557 89.0325 76.1557 90.917C76.1557 92.8022 77.6892 94.3344 79.5731 94.3344C81.457 94.3344 82.9905 92.8016 82.9905 90.917C82.9905 89.0325 81.457 87.499 79.5731 87.499Z" fill="black"/>
<path d="M63.6265 88.3097C63.1948 88.3097 62.7744 88.0859 62.544 87.6849C62.2002 87.0887 62.4048 86.326 63.0023 85.9822C63.7357 85.5592 81.0944 75.7375 92.2465 85.3048C92.7694 85.7537 92.8294 86.5411 92.3817 87.064C91.9334 87.587 91.1467 87.6489 90.6224 87.1993C80.812 78.7825 64.4126 88.0493 64.248 88.1432C64.0508 88.2565 63.8376 88.3097 63.6265 88.3097Z" fill="black"/>
<path d="M79.3299 102.785C72.4472 102.785 68.5049 98.7102 68.4496 98.6502C67.978 98.1486 68.0019 97.3593 68.5042 96.8876C69.0051 96.416 69.7919 96.4393 70.2649 96.9396C70.5586 97.2473 77.3767 104.143 89.227 97.3239C89.8225 96.9822 90.5866 97.1854 90.9303 97.7836C91.2741 98.3805 91.0682 99.1432 90.4714 99.4869C86.2073 101.94 82.4635 102.785 79.3299 102.785Z" fill="black"/>
<path d="M73.6644 122.279C73.1734 122.279 72.7084 121.988 72.5099 121.507C65.5812 104.694 51.6299 104.434 51.039 104.432C50.3509 104.428 49.7946 103.869 49.7966 103.181C49.7986 102.494 50.3542 101.937 51.0423 101.937C51.2036 101.937 67.2306 102.15 74.8168 120.557C75.0793 121.194 74.7762 121.923 74.1386 122.186C73.9834 122.249 73.8222 122.279 73.6644 122.279Z" fill="black"/>
<path d="M93.4564 116.671C93.2279 116.671 93.024 116.634 92.8495 116.58C92.0095 116.323 91.3846 115.535 91.1335 114.419C90.8524 113.166 91.0336 111.378 92.0954 110.414C92.6044 109.952 93.3924 109.988 93.8581 110.497C94.321 111.007 94.2837 111.797 93.7734 112.26C93.4837 112.523 93.4464 113.509 93.6016 114.023C93.6209 114.006 93.6422 113.987 93.6642 113.966C96.5307 111.258 100.5 113.713 100.667 113.818C101.25 114.186 101.424 114.956 101.057 115.539C100.69 116.12 99.9194 116.294 99.3399 115.931C99.3145 115.916 96.8331 114.405 95.3782 115.78C94.6501 116.467 93.9873 116.671 93.4564 116.671Z" fill="black"/>
<path d="M95.8832 130.172C86.4984 130.172 80.0213 125.674 79.7122 125.454C79.15 125.056 79.0168 124.278 79.4152 123.715C79.8148 123.152 80.5929 123.021 81.1532 123.418C81.2597 123.492 89.2036 128.962 99.8188 127.387C100.496 127.285 101.134 127.757 101.235 128.438C101.336 129.12 100.865 129.754 100.184 129.855C98.695 130.076 97.2575 130.172 95.8832 130.172Z" fill="black"/>
<path d="M85.7435 127.927C85.2832 127.927 84.8402 127.671 84.623 127.229C84.3186 126.611 84.5737 125.864 85.1919 125.559C86.5915 124.873 93.7253 121.48 96.6658 122.222C99.5482 122.948 100.726 123.987 100.851 124.104C101.355 124.573 101.383 125.363 100.914 125.866C100.445 126.371 99.6541 126.399 99.1512 125.93C99.1498 125.93 98.2759 125.2 96.0569 124.641C94.5321 124.258 89.43 126.256 86.2937 127.798C86.1165 127.885 85.9287 127.927 85.7435 127.927Z" fill="black"/>
<path d="M98.1085 135.859C93.9977 135.859 88.1941 134.276 86.6866 128.069C86.5241 127.401 86.9351 126.725 87.6039 126.563C88.2754 126.403 88.9489 126.811 89.1114 127.48C90.8148 134.489 99.4528 133.301 99.8186 133.247C100.505 133.141 101.134 133.618 101.235 134.299C101.335 134.981 100.864 135.615 100.182 135.715C99.5754 135.805 98.8706 135.859 98.1085 135.859Z" fill="black"/>
<path d="M105.927 83.9858C105.781 83.9858 105.633 83.9605 105.488 83.9059C104.844 83.6641 104.517 82.9446 104.759 82.2991C106.342 78.0824 109.173 73.8584 118.24 74.5412C127.324 75.2193 135.946 79.8097 136.309 80.0056C136.916 80.3313 137.142 81.0874 136.816 81.6943C136.491 82.3011 135.735 82.5283 135.128 82.2025C135.043 82.1572 126.597 77.6674 118.055 77.0286C110.284 76.4497 108.326 79.8963 107.095 83.1764C106.907 83.6774 106.432 83.9858 105.927 83.9858Z" fill="black"/>
<path d="M121.118 97.8403C121.116 97.8403 121.116 97.8403 121.116 97.8403C114.82 97.8403 107.348 94.6241 107.033 94.4869C106.528 94.2677 106.226 93.7435 106.291 93.1972C106.337 92.8075 106.952 89.2883 114.339 85.9842C115.792 85.3334 117.52 85.0043 119.478 85.0043C126.309 85.0043 133.949 88.9592 134.271 89.1271C134.591 89.2943 134.822 89.5914 134.906 89.9431C134.99 90.2942 134.918 90.6639 134.707 90.9577C134.585 91.1282 131.649 95.1584 125.113 97.2814C123.97 97.6524 122.626 97.8403 121.118 97.8403ZM109.196 92.6677C111.486 93.5436 116.728 95.3456 121.117 95.3456H121.118C122.364 95.3456 123.449 95.1983 124.343 94.9086C128.014 93.7162 130.4 91.839 131.644 90.6399C129.173 89.5321 124.021 87.5004 119.478 87.5004C117.875 87.5004 116.489 87.7562 115.358 88.2624C111.467 90.0024 109.853 91.6871 109.196 92.6677Z" fill="black"/>
<path d="M120.428 96.8291C117.167 96.8291 114.515 94.1765 114.515 90.917C114.515 87.6569 117.167 85.0043 120.428 85.0043C123.688 85.0043 126.341 87.6569 126.341 90.917C126.341 94.1765 123.688 96.8291 120.428 96.8291ZM120.428 87.499C118.544 87.499 117.01 89.0325 117.01 90.917C117.01 92.8022 118.544 94.3344 120.428 94.3344C122.312 94.3344 123.846 92.8016 123.846 90.917C123.846 89.0325 122.312 87.499 120.428 87.499Z" fill="black"/>
<path d="M136.375 88.3097C136.164 88.3097 135.95 88.2565 135.754 88.1432C135.59 88.0493 119.193 78.7832 109.38 87.1993C108.857 87.6489 108.069 87.5883 107.62 87.064C107.171 86.5418 107.232 85.7537 107.755 85.3048C118.909 75.7362 136.266 85.5586 136.998 85.9822C137.595 86.326 137.8 87.0887 137.457 87.6849C137.227 88.0853 136.807 88.3097 136.375 88.3097Z" fill="black"/>
<path d="M120.672 102.785C117.538 102.785 113.795 101.94 109.531 99.4863C108.934 99.1426 108.728 98.3799 109.072 97.783C109.416 97.1841 110.179 96.9809 110.775 97.3233C122.634 104.149 129.454 97.2367 129.739 96.9383C130.213 96.442 131.003 96.4201 131.501 96.893C131.999 97.3646 132.024 98.15 131.553 98.6503C131.497 98.7103 127.553 102.785 120.672 102.785Z" fill="black"/>
<path d="M126.336 122.279C126.178 122.279 126.017 122.249 125.862 122.185C125.224 121.923 124.922 121.193 125.184 120.557C132.77 102.15 148.797 101.936 148.958 101.936C149.646 101.936 150.205 102.495 150.205 103.184C150.205 103.872 149.647 104.431 148.96 104.432C148.347 104.435 134.413 104.708 127.49 121.507C127.293 121.989 126.827 122.279 126.336 122.279Z" fill="black"/>
<path d="M106.544 116.671C106.013 116.671 105.351 116.467 104.624 115.78C103.175 114.409 100.691 115.912 100.666 115.928C100.083 116.295 99.3133 116.123 98.9456 115.539C98.5778 114.956 98.7524 114.186 99.3346 113.818C99.5038 113.713 103.469 111.258 106.338 113.966C106.36 113.988 106.381 114.006 106.4 114.023C106.556 113.509 106.518 112.523 106.229 112.26C105.718 111.797 105.681 111.007 106.144 110.497C106.609 109.988 107.398 109.952 107.907 110.414C108.969 111.378 109.149 113.166 108.868 114.419C108.617 115.535 107.992 116.323 107.152 116.58C106.977 116.632 106.773 116.671 106.544 116.671Z" fill="black"/>
<path d="M104.118 130.172C102.744 130.172 101.308 130.076 99.8181 129.855C99.1366 129.754 98.6656 129.12 98.7669 128.438C98.8675 127.757 99.5043 127.285 100.183 127.387C110.813 128.968 118.769 123.474 118.849 123.418C119.411 123.021 120.19 123.155 120.586 123.718C120.984 124.28 120.85 125.058 120.289 125.455C119.98 125.673 113.502 130.172 104.118 130.172Z" fill="black"/>
<path d="M114.258 127.927C114.072 127.927 113.885 127.885 113.708 127.798C110.57 126.257 105.469 124.258 103.946 124.641C101.713 125.204 100.842 125.938 100.834 125.946C100.319 126.389 99.5356 126.347 99.0812 125.84C98.6283 125.335 98.6542 124.566 99.1519 124.104C99.2764 123.987 100.454 122.948 103.337 122.222C106.281 121.475 113.411 124.873 114.81 125.559C115.428 125.864 115.683 126.611 115.379 127.229C115.16 127.671 114.718 127.927 114.258 127.927Z" fill="black"/>
<path d="M101.893 135.859C101.13 135.859 100.428 135.804 99.8188 135.715C99.138 135.615 98.6664 134.981 98.7663 134.299C98.8669 133.618 99.5024 133.146 100.181 133.247C100.554 133.301 109.195 134.455 110.89 127.48C111.053 126.811 111.727 126.403 112.397 126.563C113.066 126.725 113.477 127.4 113.314 128.069C111.806 134.275 106.003 135.859 101.893 135.859Z" fill="black"/>
<path d="M115.119 55.8404C114.043 55.8404 113.051 55.1397 112.728 54.0552L100.001 11.2499L87.274 54.0512C86.8816 55.3721 85.4974 56.1256 84.1704 55.7312C82.8501 55.3388 82.098 53.9493 82.4904 52.629L97.6087 1.78461C97.9238 0.726101 98.8971 0 100.001 0C101.105 0 102.077 0.726101 102.392 1.78461L117.512 52.6329C117.905 53.9533 117.152 55.3435 115.832 55.7359C115.594 55.8065 115.354 55.8404 115.119 55.8404Z" fill="black"/>
<path d="M100 200C98.8967 200 97.9234 199.274 97.6083 198.216L82.4886 147.366C82.0962 146.046 82.849 144.657 84.1693 144.264C85.4896 143.871 86.8792 144.624 87.2723 145.944L99.9998 188.749L112.725 145.953C113.118 144.632 114.506 143.88 115.828 144.272C117.149 144.665 117.901 146.054 117.508 147.374L102.391 198.216C102.077 199.273 101.104 200 100 200Z" fill="black"/>
<path d="M100.001 200C98.6223 200 97.5051 198.882 97.5051 197.504V149.038C97.5051 147.66 98.6216 146.542 100.001 146.542C101.379 146.542 102.495 147.66 102.495 149.038V197.504C102.495 198.882 101.379 200 100.001 200Z" fill="black"/>
<path d="M100.001 53.463C98.6223 53.463 97.5051 52.3458 97.5051 50.9676V2.49539C97.5051 1.1178 98.6216 0 100.001 0C101.379 0 102.495 1.1178 102.495 2.49539V50.9676C102.495 52.3458 101.379 53.463 100.001 53.463Z" fill="black"/>
<path d="M146.655 117.616C145.579 117.616 144.587 116.916 144.264 115.832C143.871 114.512 144.624 113.122 145.944 112.73L188.751 100L145.948 87.2728C144.628 86.8804 143.876 85.4908 144.268 84.1699C144.663 82.8496 146.048 82.0968 147.372 82.4899L198.216 97.6087C199.274 97.9238 200 98.8964 200 100C200 101.104 199.274 102.077 198.216 102.391L147.367 117.512C147.13 117.583 146.891 117.616 146.655 117.616Z" fill="black"/>
<path d="M53.3382 117.614C53.1024 117.614 52.8639 117.58 52.6261 117.509L1.7844 102.391C0.726543 102.077 0.00109863 101.104 0.00109863 100.001C0.00109863 98.8961 0.726543 97.9242 1.7844 97.6091L52.6341 82.4889C53.9544 82.0952 55.344 82.848 55.7377 84.169C56.13 85.4893 55.3773 86.8795 54.057 87.2719L11.2505 100.001L54.0503 112.727C55.3706 113.12 56.1227 114.509 55.7304 115.829C55.4066 116.912 54.4134 117.614 53.3382 117.614Z" fill="black"/>
<path d="M50.9616 102.495H2.49544C1.11716 102.495 0 101.378 0 100C0 98.6217 1.1165 97.5052 2.49544 97.5052H50.9616C52.3399 97.5052 53.457 98.6217 53.457 100C53.457 101.378 52.3399 102.495 50.9616 102.495Z" fill="black"/>
<path d="M197.505 102.495H149.033C147.655 102.495 146.538 101.378 146.538 100C146.538 98.6217 147.655 97.5052 149.033 97.5052H197.505C198.883 97.5052 200 98.6217 200 100C200.001 101.378 198.884 102.495 197.505 102.495Z" fill="black"/>
<path d="M143.68 80.1967C143.278 80.1967 142.872 80.0995 142.494 79.895C141.283 79.2388 140.833 77.7247 141.489 76.513L162.757 37.2443L123.493 58.5103C122.28 59.1685 120.767 58.7168 120.111 57.5051C119.455 56.2934 119.904 54.7792 121.117 54.1231L167.761 28.8601C168.73 28.3339 169.932 28.5084 170.713 29.2898C171.494 30.0705 171.669 31.2709 171.143 32.2422L145.878 78.8891C145.425 79.7231 144.566 80.1967 143.68 80.1967Z" fill="black"/>
<path d="M31.055 171.442C30.4082 171.442 29.77 171.19 29.2904 170.71C28.5097 169.93 28.3344 168.729 28.8607 167.758L54.126 121.11C54.7822 119.898 56.297 119.447 57.508 120.105C58.7198 120.761 59.1701 122.275 58.5133 123.487L37.2449 162.756L76.5068 141.492C77.7192 140.835 79.2334 141.286 79.8889 142.497C80.5451 143.709 80.0954 145.223 78.883 145.879L32.2428 171.14C31.8684 171.343 31.4601 171.442 31.055 171.442Z" fill="black"/>
<path d="M31.0535 171.442C30.4153 171.442 29.7765 171.198 29.2895 170.71C28.3149 169.737 28.3149 168.156 29.2895 167.182L63.5613 132.91C64.5358 131.936 66.1146 131.936 67.0892 132.91C68.0638 133.885 68.0638 135.464 67.0892 136.438L32.8175 170.71C32.3305 171.198 31.6924 171.442 31.0535 171.442Z" fill="black"/>
<path d="M134.671 67.8246C134.033 67.8246 133.395 67.5808 132.908 67.0938C131.933 66.1192 131.933 64.5398 132.908 63.5659L167.183 29.2906C168.158 28.316 169.737 28.316 170.712 29.2906C171.686 30.2645 171.686 31.844 170.712 32.8185L136.436 67.0931C135.948 67.5808 135.31 67.8246 134.671 67.8246Z" fill="black"/>
<path d="M168.946 171.442C168.541 171.442 168.133 171.344 167.759 171.14L121.112 145.877C119.9 145.221 119.45 143.706 120.106 142.494C120.762 141.282 122.277 140.833 123.488 141.488L162.758 162.757L141.491 123.491C140.835 122.279 141.285 120.766 142.497 120.109C143.709 119.453 145.223 119.903 145.879 121.114L171.141 167.758C171.667 168.73 171.492 169.93 170.711 170.711C170.231 171.19 169.593 171.442 168.946 171.442Z" fill="black"/>
<path d="M56.3172 80.1894C55.4299 80.1894 54.5725 79.7158 54.1209 78.8818L28.8603 32.2422C28.334 31.2709 28.5099 30.0705 29.29 29.2898C30.0714 28.5084 31.2704 28.3339 32.2423 28.8601L78.8893 54.1244C80.101 54.7806 80.5513 56.2941 79.8945 57.5064C79.2383 58.7182 77.7255 59.1685 76.5124 58.5117L37.2432 37.2436L58.5075 76.5056C59.1637 77.7173 58.714 79.2322 57.5023 79.8883C57.1252 80.0921 56.7182 80.1894 56.3172 80.1894Z" fill="black"/>
<path d="M65.3258 67.8196C64.6876 67.8196 64.0488 67.5757 63.5618 67.0888L29.2908 32.8182C28.3162 31.8436 28.3162 30.2642 29.2908 29.2903C30.2653 28.3157 31.8441 28.3157 32.8187 29.2903L67.0898 63.5609C68.0644 64.5348 68.0644 66.1142 67.0898 67.0888C66.6021 67.5764 65.964 67.8196 65.3258 67.8196Z" fill="black"/>
<path d="M168.947 171.441C168.309 171.441 167.671 171.198 167.183 170.71L132.909 136.434C131.934 135.46 131.934 133.88 132.909 132.906C133.883 131.932 135.462 131.932 136.436 132.906L170.712 167.183C171.686 168.157 171.686 169.737 170.712 170.711C170.224 171.198 169.586 171.441 168.947 171.441Z" fill="black"/>
</svg>
