<svg width="1000" height="657" viewBox="0 0 1000 657" fill="none" xmlns="http://www.w3.org/2000/svg">
<rect y="2" width="1000" height="650" fill="#BFCEE7"/>
<g filter="url(#filter0_f_101_12)">
<path d="M312.342 147C299.948 147 288.276 140.298 279.475 128.127C278.909 127.343 278.841 126.1 279.314 125.205C279.788 124.311 280.66 124.034 281.365 124.557C286.332 128.241 291.944 130.19 297.595 130.19C303.78 130.19 309.843 127.892 315.139 123.542C321.159 117.373 320.93 110.412 320.716 108.422C320.046 102.193 322.654 100.861 323.636 100.36L323.769 100.291C324.101 100.114 324.466 100.096 324.806 100.241C324.876 100.27 332.089 103.185 334.295 97.0324C334.693 95.9247 335.66 95.4771 336.454 96.03C337.249 96.5836 337.571 97.9301 337.173 99.0366C334.186 107.361 326.58 105.465 324.432 104.738C323.938 105.052 323.663 105.568 323.899 107.758C324.18 110.373 324.514 119.483 317.064 127.133C317.002 127.203 316.936 127.268 316.866 127.326C311.054 132.132 304.391 134.672 297.595 134.672C294.841 134.672 292.097 134.249 289.419 133.423C296.235 139.347 304.118 142.517 312.342 142.517C336.295 142.517 355.781 115.37 355.781 81.9997C355.781 48.6303 336.295 21.4823 312.342 21.4823C304.118 21.4823 296.235 24.6522 289.419 30.5761C292.097 29.7503 294.841 29.3272 297.595 29.3272C304.423 29.3272 311.244 32.0004 317.323 37.0578C322.741 41.567 325.264 49.6872 326.425 55.7038C326.715 57.2089 326.821 58.6475 326.924 60.0401C327.136 62.9126 327.31 64.6002 328.441 65.876C329.1 66.6199 330.147 68.3422 329.757 71.5109C329.191 76.1183 325.625 82.2439 323.209 84.9015C323.391 85.3599 323.61 85.7315 323.82 85.8063C324.101 85.9075 324.617 85.6789 325.073 85.4766C325.871 85.1235 327.993 84.184 328.901 87.0804C329.258 88.215 328.886 89.5364 328.072 90.0325C327.468 90.4005 326.789 90.2108 326.334 89.6244C326.235 89.6663 326.133 89.7117 326.048 89.7488C325.27 90.0947 324.203 90.5675 323.029 90.1516C320.481 89.2509 319.756 84.9584 319.681 84.4718C319.514 83.3731 319.955 82.2702 320.715 81.8932C321.78 81.2337 326.222 74.5964 326.604 70.5947C326.692 69.6725 326.497 69.4529 326.414 69.3589C324.192 66.8485 323.942 63.4751 323.724 60.4991C323.63 59.2274 323.542 58.0258 323.318 56.8684C322.312 51.6506 320.167 44.6465 315.674 40.9075C310.095 36.2648 303.844 33.8107 297.596 33.8107C291.945 33.8107 286.333 35.7586 281.366 39.4431C280.66 39.965 279.789 39.6891 279.316 38.795C278.842 37.9004 278.91 36.6574 279.477 35.8735C288.277 23.7031 299.949 17 312.344 17C338.071 17 359 46.1594 359 82.0003C358.999 117.842 338.069 147 312.342 147Z" fill="#B7C5DC" fill-opacity="0.5"/>
<path d="M324.342 104.628C323.733 104.628 323.151 104.145 322.88 103.324L321.014 97.6865C320.965 97.5369 320.927 97.3795 320.902 97.2179C320.725 96.0654 320.895 93.6644 322.655 91.9786C322.966 91.6034 323.275 89.5502 323.262 87.9188C323.253 86.6813 323.964 85.6663 324.853 85.652C324.859 85.652 324.865 85.652 324.872 85.652C325.752 85.652 326.469 86.6382 326.48 87.868C326.491 89.2384 326.38 93.8499 324.478 95.6728C324.225 95.9157 324.126 96.1294 324.088 96.2688L325.802 101.446C326.174 102.571 325.821 103.902 325.015 104.421C324.795 104.561 324.567 104.628 324.342 104.628Z" fill="#B7C5DC" fill-opacity="0.5"/>
<path d="M332.398 104.163C326.786 104.163 321.655 97.7398 321.43 97.4555C320.773 96.6219 320.725 95.2048 321.323 94.2886C321.922 93.3736 322.937 93.3066 323.595 94.1384C323.658 94.218 328.402 100.101 332.883 99.6566C333.772 99.5668 334.54 100.496 334.603 101.731C334.667 102.965 334.001 104.038 333.115 104.127C332.875 104.152 332.636 104.163 332.398 104.163Z" fill="#B7C5DC" fill-opacity="0.5"/>
<path d="M327.756 67.134C327.501 67.134 327.248 66.9635 327.092 66.6469C326.841 66.1358 326.935 65.4386 327.302 65.0892C327.509 64.8905 332.454 60.2406 337.186 61.3597C341.784 62.4489 343.206 64.3513 343.352 64.5637C343.66 65.0114 343.649 65.7205 343.328 66.1484C343.009 66.5775 342.499 66.5637 342.192 66.1155C342.191 66.1155 340.964 64.5278 336.917 63.5691C332.815 62.5985 328.256 66.894 328.211 66.9377C328.072 67.0706 327.914 67.134 327.756 67.134Z" fill="#B7C5DC" fill-opacity="0.5"/>
<path d="M335.351 77.1883C334.529 77.1883 333.671 77.0548 332.794 76.7328C332.364 76.5755 332.109 75.9615 332.221 75.363C332.334 74.7646 332.773 74.4055 333.204 74.5653C336.166 75.6515 338.978 74.1416 340.506 73.0309C336.594 70.7515 332.414 72.0567 332.368 72.071C331.935 72.2093 331.503 71.8358 331.402 71.2344C331.302 70.6318 331.569 70.0298 332.002 69.8885C332.235 69.8119 337.799 68.0555 342.581 71.9747C342.814 72.1656 342.961 72.5061 342.976 72.8819C342.991 73.2565 342.869 73.6174 342.653 73.8412C342.495 74.004 339.356 77.1883 335.351 77.1883Z" fill="#B7C5DC" fill-opacity="0.5"/>
<path d="M334.397 77.1858C334.298 77.1858 334.197 77.1606 334.099 77.1062C331.892 75.883 332.756 70.9483 332.862 70.3893C332.974 69.7903 333.415 69.433 333.844 69.5916C334.273 69.749 334.53 70.3612 334.417 70.959C334.186 72.1948 334.03 74.6562 334.694 75.0242C335.107 75.2522 335.31 75.9039 335.145 76.4796C335.019 76.9183 334.716 77.1858 334.397 77.1858Z" fill="#B7C5DC" fill-opacity="0.5"/>
<path d="M335.736 77.0795C335.505 77.0795 335.278 76.9436 335.119 76.6791C334.833 76.2051 334.878 75.4984 335.218 75.0998C335.731 74.5002 336.011 73.8575 336.05 73.1884C336.108 72.1651 335.604 71.3004 335.599 71.2914C335.309 70.8228 335.345 70.1155 335.681 69.7109C336.018 69.3058 336.527 69.3584 336.816 69.8264C336.914 69.9838 337.766 71.42 337.654 73.368C337.58 74.657 337.108 75.818 336.252 76.8173C336.101 76.9933 335.918 77.0795 335.736 77.0795Z" fill="#B7C5DC" fill-opacity="0.5"/>
<path d="M335.734 91.1522C335.525 91.1522 335.314 91.0385 335.157 90.8117C334.849 90.367 334.855 89.6579 335.175 89.227C340.311 82.2923 356.652 80.9357 357.345 80.8818C357.783 80.8495 358.168 81.3193 358.193 81.9375C358.218 82.5557 357.879 83.0847 357.435 83.1194C357.271 83.132 341.002 84.4802 336.295 90.8368C336.139 91.0469 335.937 91.1522 335.734 91.1522Z" fill="#B7C5DC" fill-opacity="0.5"/>
<path d="M217.999 652C162.859 652 118 607.14 118 552C118 496.86 162.86 452 217.999 452C273.14 452 318 496.86 318 552C318.001 607.14 273.14 652 217.999 652ZM217.999 459.391C166.935 459.391 125.391 500.935 125.391 552C125.391 603.065 166.935 644.609 217.999 644.609C269.066 644.609 310.609 603.065 310.609 552C310.609 500.935 269.066 459.391 217.999 459.391Z" fill="#B7C5DC" fill-opacity="0.5"/>
<path d="M217.999 623.054C178.82 623.054 146.945 591.179 146.945 551.999C146.945 512.821 178.82 480.946 217.999 480.946C257.179 480.946 289.055 512.821 289.055 551.999C289.055 591.179 257.179 623.054 217.999 623.054ZM217.999 488.336C182.896 488.336 154.337 516.895 154.337 551.999C154.337 587.104 182.896 615.664 217.999 615.664C253.104 615.664 281.663 587.104 281.663 551.999C281.663 516.895 253.104 488.336 217.999 488.336Z" fill="#B7C5DC" fill-opacity="0.5"/>
<path d="M217.999 607.098C216.98 607.098 216.152 606.272 216.152 605.25V599.145C216.152 598.125 216.98 597.297 217.999 597.297C219.019 597.297 219.847 598.125 219.847 599.145V605.25C219.847 606.271 219.019 607.098 217.999 607.098Z" fill="#B7C5DC" fill-opacity="0.5"/>
<path d="M217.999 597.093C216.98 597.093 216.152 596.266 216.152 595.245V519.182C216.152 518.162 216.98 517.334 217.999 517.334C219.019 517.334 219.847 518.162 219.847 519.182V595.245C219.847 596.266 219.019 597.093 217.999 597.093Z" fill="#B7C5DC" fill-opacity="0.5"/>
<path d="M217.999 512.716C216.98 512.716 216.152 511.889 216.152 510.868V498.75C216.152 497.73 216.98 496.902 217.999 496.902C219.019 496.902 219.847 497.73 219.847 498.75V510.868C219.847 511.889 219.019 512.716 217.999 512.716Z" fill="#B7C5DC" fill-opacity="0.5"/>
<path d="M170.095 553.847H164.748C163.728 553.847 162.9 553.021 162.9 551.999C162.9 550.979 163.728 550.152 164.748 550.152H170.095C171.115 550.152 171.943 550.979 171.943 551.999C171.943 553.021 171.116 553.847 170.095 553.847Z" fill="#B7C5DC" fill-opacity="0.5"/>
<path d="M251.363 553.847H182.809C181.789 553.847 180.961 553.021 180.961 551.999C180.961 550.979 181.789 550.152 182.809 550.152H251.363C252.383 550.152 253.21 550.979 253.21 551.999C253.21 553.021 252.383 553.847 251.363 553.847Z" fill="#B7C5DC" fill-opacity="0.5"/>
<path d="M271.25 553.847H263.911C262.891 553.847 262.064 553.021 262.064 551.999C262.064 550.979 262.891 550.152 263.911 550.152H271.25C272.269 550.152 273.098 550.979 273.098 551.999C273.098 553.021 272.269 553.847 271.25 553.847Z" fill="#B7C5DC" fill-opacity="0.5"/>
<path d="M180.344 591.502C179.872 591.502 179.399 591.321 179.038 590.96C178.317 590.24 178.317 589.069 179.038 588.348L254.346 513.041C255.068 512.319 256.238 512.319 256.959 513.041C257.68 513.762 257.68 514.932 256.959 515.653L181.651 590.96C181.29 591.321 180.818 591.502 180.344 591.502Z" fill="#B7C5DC" fill-opacity="0.5"/>
<path d="M255.653 591.501C255.18 591.501 254.707 591.32 254.346 590.959L179.038 515.652C178.317 514.932 178.317 513.761 179.038 513.04C179.759 512.318 180.929 512.318 181.651 513.04L256.959 588.347C257.68 589.068 257.68 590.238 256.959 590.959C256.599 591.319 256.126 591.501 255.653 591.501Z" fill="#B7C5DC" fill-opacity="0.5"/>
<path d="M176.452 558.967C171.929 558.967 168.248 555.842 168.248 551.998C168.248 548.156 171.929 545.03 176.452 545.03C180.977 545.03 184.656 548.156 184.656 551.998C184.656 555.842 180.977 558.967 176.452 558.967ZM176.452 548.726C174.007 548.726 171.943 550.226 171.943 551.999C171.943 553.773 174.008 555.272 176.452 555.272C178.896 555.272 180.96 553.773 180.96 551.999C180.96 550.226 178.896 548.726 176.452 548.726Z" fill="#B7C5DC" fill-opacity="0.5"/>
<path d="M251.363 560.097C251.021 560.097 250.681 560.004 250.381 559.816C249.843 559.479 249.515 558.887 249.515 558.25V545.75C249.515 545.114 249.843 544.523 250.381 544.186C250.923 543.849 251.599 543.812 252.169 544.088L265.067 550.338C265.704 550.647 266.109 551.293 266.109 552C266.109 552.709 265.704 553.355 265.067 553.663L252.169 559.913C251.913 560.036 251.638 560.097 251.363 560.097ZM253.21 548.698V555.302L260.023 551.999L253.21 548.698Z" fill="#B7C5DC" fill-opacity="0.5"/>
<path d="M247.282 559.753C246.262 559.753 245.434 558.926 245.434 557.905V546.127C245.434 545.107 246.262 544.279 247.282 544.279C248.303 544.279 249.13 545.107 249.13 546.127V557.905C249.13 558.926 248.303 559.753 247.282 559.753Z" fill="#B7C5DC" fill-opacity="0.5"/>
<path d="M187.735 560.292C186.715 560.292 185.887 559.466 185.887 558.444V546.666C185.887 545.646 186.715 544.818 187.735 544.818C188.754 544.818 189.583 545.646 189.583 546.666V558.444C189.583 559.465 188.755 560.292 187.735 560.292Z" fill="#B7C5DC" fill-opacity="0.5"/>
<path d="M218.398 597.093C215.839 597.093 213.761 595.013 213.761 592.456C213.761 591.938 213.338 591.514 212.818 591.514C212.299 591.514 211.877 591.937 211.877 592.456C211.877 595.013 209.796 597.093 207.238 597.093C204.681 597.093 202.602 595.013 202.602 592.456C202.602 591.436 203.43 590.608 204.449 590.608C205.469 590.608 206.297 591.436 206.297 592.456C206.297 592.976 206.719 593.398 207.238 593.398C207.758 593.398 208.181 592.976 208.181 592.456C208.181 589.9 210.261 587.819 212.818 587.819C215.376 587.819 217.455 589.9 217.455 592.456C217.455 592.976 217.878 593.398 218.398 593.398C218.917 593.398 219.339 592.976 219.339 592.456C219.339 589.9 221.42 587.819 223.977 587.819C226.534 587.819 228.614 589.9 228.614 592.456C228.614 593.477 227.786 594.304 226.766 594.304C225.747 594.304 224.919 593.477 224.919 592.456C224.919 591.938 224.497 591.514 223.977 591.514C223.458 591.514 223.034 591.937 223.034 592.456C223.035 595.013 220.955 597.093 218.398 597.093Z" fill="#B7C5DC" fill-opacity="0.5"/>
<path d="M218.398 601.028C215.839 601.028 213.761 598.949 213.761 596.391C213.761 595.873 213.338 595.449 212.818 595.449C212.299 595.449 211.877 595.872 211.877 596.391C211.877 598.949 209.796 601.028 207.238 601.028C204.681 601.028 202.602 598.949 202.602 596.391C202.602 595.371 203.43 594.543 204.449 594.543C205.469 594.543 206.297 595.371 206.297 596.391C206.297 596.911 206.719 597.334 207.238 597.334C207.758 597.334 208.181 596.911 208.181 596.391C208.181 593.835 210.261 591.754 212.818 591.754C215.376 591.754 217.455 593.835 217.455 596.391C217.455 596.911 217.878 597.334 218.398 597.334C218.917 597.334 219.339 596.911 219.339 596.391C219.339 593.835 221.42 591.754 223.977 591.754C226.534 591.754 228.614 593.835 228.614 596.391C228.614 597.412 227.786 598.239 226.766 598.239C225.747 598.239 224.919 597.412 224.919 596.391C224.919 595.873 224.497 595.449 223.977 595.449C223.458 595.449 223.034 595.872 223.034 596.391C223.035 598.949 220.955 601.028 218.398 601.028Z" fill="#B7C5DC" fill-opacity="0.5"/>
<path d="M217.999 521.03C214.688 521.03 211.995 518.338 211.995 515.026C211.995 511.716 214.687 509.021 217.999 509.021C221.311 509.021 224.004 511.716 224.004 515.026C224.004 518.337 221.311 521.03 217.999 521.03ZM217.999 512.716C216.725 512.716 215.689 513.753 215.689 515.026C215.689 516.299 216.725 517.335 217.999 517.335C219.274 517.335 220.309 516.299 220.309 515.026C220.309 513.753 219.274 512.716 217.999 512.716Z" fill="#B7C5DC" fill-opacity="0.5"/>
<path d="M217.999 510.406C217.978 510.406 217.959 510.406 217.937 510.406C216.15 510.346 211.995 509.89 211.995 506.953V501.887C211.995 500.867 212.823 500.039 213.843 500.039C214.863 500.039 215.69 500.867 215.69 501.887V506.34C216.215 506.514 217.175 506.674 218.002 506.71C218.827 506.676 219.752 506.543 220.31 506.391V501.886C220.31 500.866 221.137 500.038 222.158 500.038C223.178 500.038 224.005 500.866 224.005 501.886V507.162C224.005 509.678 220.773 510.315 218.063 510.405C218.04 510.406 218.02 510.406 217.999 510.406Z" fill="#B7C5DC" fill-opacity="0.5"/>
<path d="M884.376 58.1045C866.598 69.8476 845.807 76.4934 842.291 65.6787C838.774 54.8646 855.771 36.5498 873.549 24.8067C891.326 13.0639 912.117 6.41747 915.633 17.2316C919.149 28.0456 902.153 46.3617 884.376 58.1045ZM875.048 29.4167C854.538 42.9645 844.224 58.2944 845.859 63.3217C847.493 68.349 862.366 67.042 882.876 53.4939C903.386 39.946 913.7 24.6148 912.065 19.5882C910.431 14.5615 895.557 15.8688 875.048 29.4167Z" fill="#B7C5DC" fill-opacity="0.5"/>
<path d="M900.915 112.684C900.056 113.257 899.031 112.992 898.476 111.978C897.835 110.811 898.058 109.091 898.972 108.136C899.061 108.043 907.906 98.6815 914.068 83.3208C922.231 62.9745 922.076 42.1567 913.607 21.4465C913.084 20.1684 913.462 18.4833 914.45 17.68C915.43 16.888 916.663 17.2616 917.186 18.5393C928.623 46.5093 923.68 70.5715 917.518 85.8302C910.89 102.249 901.683 111.959 901.294 112.364C901.173 112.491 901.046 112.597 900.915 112.684Z" fill="#B7C5DC" fill-opacity="0.5"/>
<path d="M906.682 124.418C905.756 125.036 904.665 124.661 904.163 123.5C903.625 122.255 903.969 120.578 904.932 119.753C905.457 119.299 917.137 108.991 912.402 94.3016C911.973 92.9712 912.451 91.3408 913.469 90.6595C913.47 90.6592 913.471 90.6585 913.472 90.6578C914.489 89.9791 915.661 90.5052 916.09 91.8344C921 107.067 912.217 119.708 906.885 124.263C906.819 124.322 906.751 124.372 906.682 124.418Z" fill="#B7C5DC" fill-opacity="0.5"/>
<path d="M903.742 109.593C903.612 109.68 903.473 109.75 903.328 109.801C902.861 109.964 891.756 113.777 878.761 110.423C866.683 107.306 850.725 97.1586 843.294 66.5221C842.954 65.1226 843.548 63.5331 844.608 62.967C845.674 62.4028 846.812 63.0801 847.151 64.4789C852.671 87.2349 863.656 100.886 879.805 105.054C891.925 108.182 902.481 104.557 902.586 104.519C903.685 104.134 904.742 105.003 904.947 106.461C905.124 107.726 904.602 109.02 903.742 109.593Z" fill="#B7C5DC" fill-opacity="0.5"/>
<path d="M907.783 123.189C907.714 123.235 907.642 123.278 907.569 123.313C901.708 126.223 889.336 127.69 884.454 112.439C884.027 111.109 884.507 109.481 885.526 108.802C885.526 108.802 885.527 108.801 885.528 108.8C886.547 108.123 887.719 108.653 888.146 109.984C892.882 124.781 905.893 118.523 906.444 118.25C907.505 117.724 908.616 118.431 908.927 119.83C909.216 121.13 908.709 122.572 907.783 123.189Z" fill="#B7C5DC" fill-opacity="0.5"/>
<path d="M916.226 150.147C914.15 151.529 909.018 154.501 906.225 152.269C905.894 152.005 905.636 151.61 905.482 151.132L897.112 125.149C896.678 123.803 897.164 122.155 898.197 121.467C899.23 120.78 900.419 121.314 900.853 122.66L908.892 147.614C909.795 147.67 911.86 147.136 914.657 145.275C917.452 143.415 919.071 141.499 919.628 140.469L911.589 115.517C911.155 114.171 911.641 112.523 912.675 111.835C913.708 111.147 914.896 111.681 915.33 113.028L923.701 139.011C923.855 139.488 923.897 140.027 923.823 140.56C923.2 145.065 918.303 148.765 916.226 150.147Z" fill="#B7C5DC" fill-opacity="0.5"/>
<path d="M918.224 154.886C912.901 158.421 906.425 159.162 904.365 156.471C903.308 155.088 902.827 153.464 902.937 151.645C903.165 147.886 905.93 144.77 906.048 144.639C906.478 144.16 907.09 144.214 907.414 144.758C907.737 145.302 907.653 146.13 907.224 146.608C907.202 146.633 905.032 149.093 904.881 151.67C904.819 152.719 905.112 153.652 905.777 154.522C906.961 156.067 912.391 155.92 917.469 152.548C922.591 149.147 925.902 143.464 925.845 141.198C925.813 139.905 925.505 138.979 924.903 138.368C923.445 136.886 920.729 137.652 920.701 137.661C920.169 137.821 919.672 137.379 919.592 136.672C919.513 135.964 919.878 135.262 920.412 135.101C920.558 135.057 924.005 134.049 926.151 136.231C927.19 137.287 927.743 138.863 927.794 140.914C927.897 144.975 923.514 151.374 918.224 154.886Z" fill="#B7C5DC" fill-opacity="0.5"/>
<path d="M921.489 165.223C921.487 165.224 921.488 165.224 921.486 165.224C909.966 172.864 896.557 175.135 891.596 170.285C889.55 168.285 888.639 165.117 889.03 161.362C889.839 153.572 895.951 144.834 904.6 139.098C905.591 138.441 906.732 138.951 907.148 140.237C907.564 141.522 907.098 143.099 906.106 143.756C897.68 149.344 893.394 156.796 892.884 161.701C892.686 163.597 893.074 165.035 894.036 165.974C897.039 168.908 908.36 168.271 919.98 160.565C919.98 160.565 919.981 160.564 919.982 160.564C931.841 152.699 939.661 140.578 939.63 136.01C939.619 134.409 939.191 133.275 938.282 132.44C935.44 129.828 928.509 130.666 919.745 134.685C918.706 135.161 917.64 134.441 917.363 133.077C917.084 131.713 917.695 130.224 918.74 129.745C929.103 124.995 936.676 124.409 940.639 128.051C942.504 129.764 943.5 132.365 943.522 135.573C943.577 143.688 933.486 157.266 921.489 165.223Z" fill="#B7C5DC" fill-opacity="0.5"/>
<path d="M848.201 67.9972C847.935 68.1692 847.623 68.1872 847.353 68.0103C846.898 67.7113 846.743 66.9666 847.006 66.3477C850.91 57.17 863.176 44.9343 878.256 35.1737C892.02 26.2646 905.544 21.1067 913.551 21.7136C914.071 21.7529 914.438 22.341 914.369 23.0283C914.3 23.7162 913.821 24.238 913.299 24.1996C905.609 23.6166 892.465 28.6712 878.995 37.3898C864.499 46.7726 852.307 58.8451 848.654 67.4312C848.547 67.6849 848.385 67.8777 848.201 67.9972Z" fill="#B7C5DC" fill-opacity="0.5"/>
<path d="M889.493 68.1137C872.699 79.0074 856.449 84.0983 849.973 80.4946C849.502 80.2331 849.312 79.5021 849.548 78.8635C849.785 78.2237 850.357 77.921 850.827 78.1816C856.744 81.4758 872.695 76.3058 888.753 65.8892C902.573 56.9239 914.272 45.5797 918.557 36.9889C918.854 36.3918 919.448 36.1885 919.881 36.5361C920.316 36.883 920.426 37.6478 920.128 38.244C915.583 47.3587 903.844 58.8038 889.493 68.1137Z" fill="#B7C5DC" fill-opacity="0.5"/>
<path d="M896.235 90.7373C892.674 93.1124 888.542 91.2004 887.025 86.4756C885.507 81.7508 887.169 75.975 890.73 73.5999C894.291 71.2248 898.423 73.1375 899.941 77.8616C901.459 82.5864 899.797 88.3622 896.235 90.7373ZM891.504 76.009C888.96 77.7056 887.779 81.8491 888.869 85.2445C889.96 88.6406 892.917 90.0236 895.461 88.327C898.005 86.6306 899.186 82.4878 898.095 79.0917C897.004 75.6963 894.047 74.3126 891.504 76.009Z" fill="#B7C5DC" fill-opacity="0.5"/>
<path d="M852.001 601.532C823.586 601.532 800.468 578.414 800.468 550C800.468 521.585 823.586 498.467 852.001 498.467C880.415 498.467 903.533 521.585 903.533 550C903.533 578.414 880.416 601.532 852.001 601.532ZM852.001 503.458C826.336 503.458 805.458 524.336 805.458 550C805.458 575.663 826.336 596.542 852.001 596.542C877.664 596.542 898.543 575.663 898.543 550C898.543 524.336 877.665 503.458 852.001 503.458Z" fill="#B7C5DC" fill-opacity="0.5"/>
<path d="M846.075 533.986C845.57 533.986 845.094 533.677 844.907 533.177C843.676 529.898 841.717 526.449 833.948 527.029C825.388 527.669 816.959 532.157 816.875 532.203C816.269 532.53 815.512 532.303 815.185 531.696C814.859 531.089 815.086 530.332 815.693 530.006C816.056 529.81 824.678 525.22 833.762 524.542C842.814 523.864 845.66 528.084 847.242 532.3C847.484 532.945 847.158 533.664 846.513 533.907C846.368 533.961 846.22 533.986 846.075 533.986Z" fill="#B7C5DC" fill-opacity="0.5"/>
<path d="M830.885 547.84C829.376 547.84 828.031 547.653 826.888 547.281C820.352 545.158 817.415 541.128 817.293 540.958C817.083 540.664 817.012 540.294 817.095 539.943C817.179 539.591 817.41 539.294 817.73 539.127C818.052 538.959 825.692 535.004 832.524 535.004C834.481 535.004 836.209 535.333 837.662 535.984C845.049 539.288 845.664 542.807 845.711 543.197C845.775 543.744 845.474 544.268 844.968 544.487C844.652 544.624 837.18 547.84 830.885 547.84ZM820.358 540.64C821.601 541.838 823.987 543.716 827.658 544.909C828.552 545.198 829.637 545.346 830.885 545.346C835.276 545.346 840.522 543.542 842.81 542.666C842.16 541.701 840.547 540.009 836.643 538.263C835.513 537.756 834.126 537.5 832.523 537.5C827.98 537.5 822.828 539.532 820.358 540.64Z" fill="#B7C5DC" fill-opacity="0.5"/>
<path d="M831.573 546.829C828.313 546.829 825.66 544.177 825.66 540.917C825.66 537.657 828.313 535.004 831.573 535.004C834.833 535.004 837.485 537.657 837.485 540.917C837.485 544.177 834.833 546.829 831.573 546.829ZM831.573 537.499C829.688 537.499 828.156 539.033 828.156 540.917C828.156 542.802 829.689 544.334 831.573 544.334C833.457 544.334 834.99 542.802 834.99 540.917C834.99 539.033 833.457 537.499 831.573 537.499Z" fill="#B7C5DC" fill-opacity="0.5"/>
<path d="M815.627 538.31C815.195 538.31 814.775 538.086 814.544 537.685C814.2 537.089 814.405 536.326 815.002 535.982C815.736 535.559 833.094 525.738 844.247 535.305C844.77 535.754 844.829 536.541 844.382 537.064C843.933 537.587 843.147 537.649 842.622 537.199C832.812 528.783 816.413 538.049 816.248 538.143C816.051 538.257 815.838 538.31 815.627 538.31Z" fill="#B7C5DC" fill-opacity="0.5"/>
<path d="M831.33 552.785C824.447 552.785 820.505 548.71 820.45 548.65C819.978 548.149 820.002 547.359 820.504 546.888C821.005 546.416 821.792 546.439 822.265 546.94C822.559 547.247 829.377 554.143 841.227 547.324C841.822 546.982 842.587 547.185 842.93 547.784C843.274 548.381 843.068 549.143 842.471 549.487C838.207 551.94 834.463 552.785 831.33 552.785Z" fill="#B7C5DC" fill-opacity="0.5"/>
<path d="M825.664 572.279C825.173 572.279 824.708 571.988 824.51 571.507C817.581 554.694 803.63 554.435 803.039 554.432C802.351 554.429 801.794 553.869 801.796 553.181C801.798 552.494 802.354 551.937 803.042 551.937C803.203 551.937 819.23 552.15 826.817 570.557C827.079 571.194 826.776 571.924 826.138 572.186C825.983 572.249 825.822 572.279 825.664 572.279Z" fill="#B7C5DC" fill-opacity="0.5"/>
<path d="M845.456 566.671C845.228 566.671 845.024 566.634 844.85 566.58C844.009 566.323 843.385 565.535 843.134 564.419C842.852 563.166 843.034 561.378 844.095 560.414C844.604 559.952 845.392 559.988 845.858 560.497C846.321 561.007 846.284 561.797 845.773 562.26C845.484 562.524 845.446 563.509 845.602 564.023C845.621 564.006 845.642 563.987 845.664 563.966C848.531 561.258 852.5 563.713 852.667 563.819C853.25 564.186 853.424 564.956 853.057 565.539C852.69 566.12 851.919 566.294 851.34 565.931C851.315 565.916 848.833 564.405 847.378 565.78C846.65 566.467 845.987 566.671 845.456 566.671Z" fill="#B7C5DC" fill-opacity="0.5"/>
<path d="M847.883 580.172C838.498 580.172 832.021 575.674 831.712 575.454C831.15 575.056 831.017 574.278 831.415 573.715C831.815 573.153 832.593 573.021 833.153 573.418C833.26 573.492 841.204 578.962 851.819 577.387C852.496 577.285 853.134 577.757 853.235 578.438C853.336 579.12 852.865 579.754 852.184 579.855C850.695 580.076 849.257 580.172 847.883 580.172Z" fill="#B7C5DC" fill-opacity="0.5"/>
<path d="M837.744 577.927C837.283 577.927 836.84 577.671 836.623 577.229C836.319 576.611 836.574 575.864 837.192 575.559C838.592 574.873 845.725 571.481 848.666 572.222C851.548 572.948 852.726 573.987 852.851 574.104C853.355 574.573 853.384 575.363 852.914 575.866C852.446 576.371 851.654 576.399 851.151 575.93C851.15 575.93 850.276 575.2 848.057 574.641C846.532 574.258 841.43 576.256 838.294 577.798C838.117 577.885 837.929 577.927 837.744 577.927Z" fill="#B7C5DC" fill-opacity="0.5"/>
<path d="M850.109 585.859C845.998 585.859 840.194 584.276 838.687 578.069C838.524 577.401 838.935 576.725 839.604 576.563C840.276 576.403 840.949 576.811 841.112 577.48C842.815 584.489 851.453 583.301 851.819 583.247C852.505 583.141 853.134 583.618 853.235 584.299C853.335 584.981 852.864 585.615 852.182 585.715C851.576 585.805 850.871 585.859 850.109 585.859Z" fill="#B7C5DC" fill-opacity="0.5"/>
<path d="M857.927 533.986C857.781 533.986 857.633 533.961 857.488 533.906C856.844 533.664 856.517 532.945 856.759 532.299C858.342 528.082 861.173 523.858 870.24 524.541C879.324 525.219 887.946 529.81 888.309 530.006C888.916 530.331 889.142 531.087 888.816 531.694C888.491 532.301 887.735 532.528 887.128 532.203C887.043 532.157 878.597 527.667 870.055 527.029C862.284 526.45 860.326 529.896 859.095 533.176C858.907 533.677 858.432 533.986 857.927 533.986Z" fill="#B7C5DC" fill-opacity="0.5"/>
<path d="M873.118 547.84C873.116 547.84 873.116 547.84 873.116 547.84C866.821 547.84 859.348 544.624 859.033 544.487C858.528 544.268 858.227 543.744 858.291 543.197C858.337 542.808 858.953 539.288 866.339 535.984C867.793 535.333 869.52 535.004 871.478 535.004C878.309 535.004 885.949 538.959 886.271 539.127C886.591 539.294 886.822 539.591 886.906 539.943C886.99 540.294 886.918 540.664 886.707 540.958C886.585 541.128 883.649 545.158 877.113 547.281C875.97 547.653 874.626 547.84 873.118 547.84ZM861.196 542.668C863.486 543.544 868.728 545.346 873.117 545.346H873.118C874.364 545.346 875.449 545.198 876.343 544.909C880.014 543.716 882.4 541.839 883.644 540.64C881.174 539.532 876.022 537.5 871.478 537.5C869.876 537.5 868.489 537.756 867.358 538.263C863.467 540.003 861.853 541.687 861.196 542.668Z" fill="#B7C5DC" fill-opacity="0.5"/>
<path d="M872.428 546.829C869.167 546.829 866.516 544.177 866.516 540.917C866.516 537.657 869.167 535.004 872.428 535.004C875.688 535.004 878.341 537.657 878.341 540.917C878.341 544.177 875.688 546.829 872.428 546.829ZM872.428 537.499C870.544 537.499 869.01 539.033 869.01 540.917C869.01 542.802 870.544 544.334 872.428 544.334C874.312 544.334 875.846 542.802 875.846 540.917C875.846 539.033 874.312 537.499 872.428 537.499Z" fill="#B7C5DC" fill-opacity="0.5"/>
<path d="M888.375 538.31C888.164 538.31 887.95 538.257 887.754 538.143C887.589 538.049 871.193 528.783 861.38 537.199C860.857 537.649 860.069 537.588 859.62 537.064C859.171 536.542 859.232 535.754 859.755 535.305C870.909 525.736 888.266 535.559 888.998 535.982C889.595 536.326 889.8 537.089 889.457 537.685C889.227 538.085 888.807 538.31 888.375 538.31Z" fill="#B7C5DC" fill-opacity="0.5"/>
<path d="M872.672 552.785C869.538 552.785 865.795 551.94 861.531 549.486C860.934 549.143 860.728 548.38 861.072 547.783C861.416 547.184 862.179 546.981 862.775 547.323C874.634 554.149 881.454 547.237 881.739 546.938C882.213 546.442 883.003 546.42 883.501 546.893C883.999 547.365 884.024 548.15 883.553 548.65C883.497 548.71 879.553 552.785 872.672 552.785Z" fill="#B7C5DC" fill-opacity="0.5"/>
<path d="M878.336 572.279C878.179 572.279 878.017 572.249 877.862 572.185C877.225 571.923 876.922 571.193 877.184 570.557C884.77 552.15 900.797 551.936 900.958 551.936C901.647 551.936 902.205 552.495 902.205 553.184C902.205 553.872 901.647 554.431 900.96 554.432C900.348 554.435 886.413 554.708 879.49 571.507C879.293 571.989 878.827 572.279 878.336 572.279Z" fill="#B7C5DC" fill-opacity="0.5"/>
<path d="M858.544 566.671C858.014 566.671 857.351 566.467 856.624 565.78C855.175 564.409 852.691 565.912 852.666 565.928C852.083 566.295 851.313 566.123 850.946 565.539C850.578 564.956 850.752 564.186 851.335 563.819C851.504 563.713 855.469 561.258 858.338 563.966C858.36 563.988 858.381 564.006 858.401 564.023C858.556 563.509 858.518 562.524 858.229 562.26C857.718 561.797 857.681 561.007 858.144 560.497C858.609 559.988 859.398 559.952 859.907 560.414C860.969 561.378 861.149 563.166 860.868 564.419C860.617 565.535 859.992 566.323 859.152 566.58C858.977 566.632 858.773 566.671 858.544 566.671Z" fill="#B7C5DC" fill-opacity="0.5"/>
<path d="M856.118 580.173C854.744 580.173 853.308 580.076 851.818 579.855C851.137 579.754 850.666 579.12 850.767 578.439C850.868 577.757 851.504 577.285 852.183 577.387C862.813 578.968 870.769 573.474 870.849 573.418C871.411 573.021 872.19 573.155 872.586 573.718C872.984 574.28 872.85 575.058 872.289 575.455C871.98 575.673 865.502 580.173 856.118 580.173Z" fill="#B7C5DC" fill-opacity="0.5"/>
<path d="M866.258 577.927C866.072 577.927 865.885 577.885 865.708 577.798C862.571 576.257 857.469 574.258 855.946 574.642C853.713 575.204 852.842 575.939 852.834 575.946C852.319 576.389 851.536 576.347 851.081 575.841C850.628 575.335 850.654 574.566 851.152 574.104C851.276 573.987 852.454 572.948 855.337 572.222C858.281 571.475 865.411 574.873 866.81 575.559C867.428 575.864 867.683 576.611 867.379 577.23C867.16 577.671 866.718 577.927 866.258 577.927Z" fill="#B7C5DC" fill-opacity="0.5"/>
<path d="M853.893 585.859C853.13 585.859 852.428 585.804 851.819 585.715C851.138 585.615 850.666 584.981 850.766 584.299C850.867 583.618 851.502 583.146 852.181 583.247C852.554 583.301 861.195 584.455 862.89 577.48C863.053 576.811 863.727 576.403 864.397 576.563C865.066 576.725 865.477 577.4 865.315 578.069C863.806 584.275 858.003 585.859 853.893 585.859Z" fill="#B7C5DC" fill-opacity="0.5"/>
<path d="M867.12 505.841C866.043 505.841 865.051 505.14 864.728 504.055L852.001 461.25L839.274 504.051C838.882 505.372 837.498 506.126 836.171 505.731C834.85 505.339 834.098 503.949 834.491 502.629L849.609 451.785C849.924 450.726 850.897 450 852.001 450C853.105 450 854.078 450.726 854.393 451.785L869.512 502.633C869.905 503.953 869.153 505.344 867.832 505.736C867.594 505.807 867.355 505.841 867.12 505.841Z" fill="#B7C5DC" fill-opacity="0.5"/>
<path d="M852.001 650C850.897 650 849.924 649.274 849.609 648.216L834.489 597.366C834.096 596.046 834.849 594.657 836.169 594.264C837.49 593.871 838.879 594.624 839.272 595.944L852 638.749L864.725 595.953C865.119 594.633 866.506 593.88 867.829 594.272C869.149 594.665 869.901 596.054 869.509 597.374L854.392 648.216C854.077 649.273 853.105 650 852.001 650Z" fill="#B7C5DC" fill-opacity="0.5"/>
<path d="M852.001 650C850.622 650 849.505 648.882 849.505 647.505V599.038C849.505 597.66 850.622 596.542 852.001 596.542C853.379 596.542 854.495 597.66 854.495 599.038V647.505C854.495 648.882 853.379 650 852.001 650Z" fill="#B7C5DC" fill-opacity="0.5"/>
<path d="M852.001 503.463C850.622 503.463 849.505 502.346 849.505 500.968V452.495C849.505 451.118 850.622 450 852.001 450C853.379 450 854.495 451.118 854.495 452.495V500.968C854.495 502.346 853.379 503.463 852.001 503.463Z" fill="#B7C5DC" fill-opacity="0.5"/>
<path d="M898.655 567.617C897.579 567.617 896.587 566.916 896.264 565.832C895.872 564.512 896.624 563.122 897.944 562.73L940.751 550L897.949 537.273C896.628 536.88 895.876 535.491 896.269 534.17C896.663 532.85 898.049 532.097 899.372 532.49L950.217 547.609C951.274 547.924 952 548.896 952 550C952 551.104 951.274 552.077 950.217 552.391L899.367 567.512C899.13 567.583 898.891 567.617 898.655 567.617Z" fill="#B7C5DC" fill-opacity="0.5"/>
<path d="M805.338 567.614C805.102 567.614 804.864 567.58 804.626 567.509L753.784 552.391C752.727 552.077 752.001 551.104 752.001 550.001C752.001 548.896 752.727 547.924 753.784 547.609L804.634 532.489C805.954 532.095 807.344 532.848 807.738 534.169C808.13 535.489 807.377 536.88 806.057 537.272L763.251 550.001L806.05 562.727C807.371 563.12 808.123 564.509 807.73 565.829C807.407 566.912 806.413 567.614 805.338 567.614Z" fill="#B7C5DC" fill-opacity="0.5"/>
<path d="M802.962 552.495H754.495C753.117 552.495 752 551.378 752 550C752 548.622 753.116 547.505 754.495 547.505H802.962C804.34 547.505 805.457 548.622 805.457 550C805.457 551.378 804.34 552.495 802.962 552.495Z" fill="#B7C5DC" fill-opacity="0.5"/>
<path d="M949.505 552.495H901.033C899.655 552.495 898.538 551.378 898.538 550C898.538 548.622 899.655 547.505 901.033 547.505H949.505C950.883 547.505 952 548.622 952 550C952.001 551.378 950.884 552.495 949.505 552.495Z" fill="#B7C5DC" fill-opacity="0.5"/>
<path d="M895.68 530.197C895.278 530.197 894.872 530.1 894.494 529.895C893.283 529.239 892.833 527.725 893.489 526.513L914.757 487.244L875.493 508.51C874.28 509.169 872.767 508.717 872.111 507.505C871.455 506.293 871.904 504.779 873.117 504.123L919.761 478.86C920.729 478.334 921.932 478.508 922.713 479.29C923.494 480.071 923.669 481.271 923.143 482.242L897.878 528.889C897.425 529.723 896.566 530.197 895.68 530.197Z" fill="#B7C5DC" fill-opacity="0.5"/>
<path d="M783.055 621.442C782.408 621.442 781.77 621.19 781.291 620.71C780.51 619.93 780.335 618.729 780.861 617.758L806.126 571.11C806.782 569.898 808.297 569.448 809.508 570.105C810.72 570.761 811.17 572.275 810.513 573.487L789.245 612.756L828.507 591.492C829.719 590.835 831.234 591.286 831.889 592.497C832.545 593.709 832.096 595.223 830.883 595.879L784.243 621.141C783.869 621.343 783.46 621.442 783.055 621.442Z" fill="#B7C5DC" fill-opacity="0.5"/>
<path d="M783.054 621.442C782.415 621.442 781.777 621.198 781.29 620.71C780.315 619.737 780.315 618.156 781.29 617.182L815.561 582.91C816.536 581.936 818.115 581.936 819.089 582.91C820.064 583.885 820.064 585.464 819.089 586.438L784.818 620.71C784.331 621.198 783.692 621.442 783.054 621.442Z" fill="#B7C5DC" fill-opacity="0.5"/>
<path d="M886.671 517.825C886.033 517.825 885.395 517.581 884.908 517.094C883.933 516.119 883.933 514.54 884.908 513.566L919.183 479.291C920.158 478.316 921.737 478.316 922.712 479.291C923.686 480.265 923.686 481.844 922.712 482.819L888.436 517.093C887.948 517.581 887.31 517.825 886.671 517.825Z" fill="#B7C5DC" fill-opacity="0.5"/>
<path d="M920.946 621.442C920.541 621.442 920.133 621.344 919.759 621.14L873.112 595.877C871.9 595.221 871.45 593.706 872.106 592.494C872.762 591.283 874.277 590.834 875.488 591.488L914.758 612.757L893.491 573.491C892.835 572.279 893.285 570.766 894.497 570.109C895.709 569.453 897.223 569.903 897.879 571.114L923.141 617.759C923.667 618.73 923.492 619.93 922.711 620.711C922.231 621.191 921.593 621.442 920.946 621.442Z" fill="#B7C5DC" fill-opacity="0.5"/>
<path d="M808.317 530.189C807.43 530.189 806.573 529.716 806.121 528.882L780.861 482.242C780.334 481.271 780.51 480.071 781.29 479.29C782.072 478.508 783.271 478.334 784.243 478.86L830.889 504.124C832.101 504.781 832.552 506.294 831.895 507.506C831.239 508.718 829.726 509.169 828.513 508.512L789.243 487.244L810.508 526.506C811.164 527.717 810.714 529.232 809.503 529.888C809.125 530.092 808.718 530.189 808.317 530.189Z" fill="#B7C5DC" fill-opacity="0.5"/>
<path d="M817.326 517.82C816.688 517.82 816.049 517.576 815.562 517.089L781.291 482.818C780.316 481.844 780.316 480.264 781.291 479.29C782.266 478.316 783.844 478.316 784.819 479.29L819.09 513.561C820.065 514.535 820.065 516.114 819.09 517.089C818.602 517.576 817.964 517.82 817.326 517.82Z" fill="#B7C5DC" fill-opacity="0.5"/>
<path d="M920.947 621.442C920.309 621.442 919.671 621.198 919.183 620.71L884.909 586.434C883.934 585.46 883.934 583.88 884.909 582.906C885.883 581.932 887.462 581.932 888.437 582.906L922.712 617.183C923.686 618.157 923.686 619.737 922.712 620.711C922.224 621.198 921.586 621.442 920.947 621.442Z" fill="#B7C5DC" fill-opacity="0.5"/>
</g>
<defs>
<filter id="filter0_f_101_12" x="113" y="6.76274" width="844" height="650.237" filterUnits="userSpaceOnUse" color-interpolation-filters="sRGB">
<feFlood flood-opacity="0" result="BackgroundImageFix"/>
<feBlend mode="normal" in="SourceGraphic" in2="BackgroundImageFix" result="shape"/>
<feGaussianBlur stdDeviation="2.5" result="effect1_foregroundBlur_101_12"/>
</filter>
</defs>
</svg>
