<svg width="1000" height="450" viewBox="0 0 1000 450" fill="none" xmlns="http://www.w3.org/2000/svg">
<rect width="1000" height="450" fill="#BFCEE7"/>
<g filter="url(#filter0_f_103_2)">
<path d="M338.344 110.402C338.281 110.461 338.217 110.518 338.153 110.574C336.205 112.27 334.04 112.328 332.055 110.732C330.071 109.138 328.505 106.083 327.646 102.132C325.861 93.9174 327.651 84.538 331.723 80.9841C333.67 79.2863 335.836 79.2306 337.821 80.8245C339.806 82.4202 341.371 85.4743 342.23 89.4259C343.987 97.511 342.28 106.724 338.344 110.402ZM332.868 86.8988C330.478 89.1322 329.442 94.7288 330.509 99.6369C331.031 102.038 331.982 103.893 333.187 104.861C334.393 105.83 335.708 105.795 336.891 104.764L337.008 104.659C339.398 102.425 340.434 96.8293 339.367 91.9204C338.846 89.52 337.894 87.6655 336.689 86.6964C335.484 85.7284 334.168 85.7634 332.985 86.7943L332.868 86.8988Z" fill="#B7C5DC" fill-opacity="0.5"/>
<path d="M324.025 52.0079L323.898 52.1235C321.179 54.4922 317.991 51.932 316.793 46.4174C315.605 40.9518 316.759 34.7216 319.421 32.234L319.548 32.1177C322.268 29.7505 325.455 32.3114 326.654 37.8242C327.841 43.292 326.687 49.5207 324.025 52.0079ZM320.757 37.9757C319.66 39.0008 319.166 41.6679 319.656 43.9225C320.159 46.2349 321.496 47.3088 322.635 46.3148L322.69 46.2658C323.805 45.2234 324.289 42.6115 323.791 40.3195C323.288 38.0071 321.952 36.9347 320.811 37.9275L320.757 37.9757Z" fill="#B7C5DC" fill-opacity="0.5"/>
<path d="M374.743 257.478C373.919 258.218 372.938 257.8 372.34 256.456L361.787 232.753C361.664 232.476 361.561 232.167 361.481 231.837L332.562 112.363C332.082 110.38 332.517 108.034 333.533 107.121C334.55 106.208 335.762 107.074 336.242 109.057L365.04 228.032L370.684 240.707L369.27 224.232L340.473 105.258C339.993 103.275 340.427 100.929 341.444 100.016C342.46 99.1028 343.673 99.969 344.153 101.952L373.072 221.426C373.152 221.756 373.208 222.105 373.239 222.466L375.882 253.275C376.031 255.021 375.566 256.738 374.743 257.478Z" fill="#B7C5DC" fill-opacity="0.5"/>
<path d="M334.838 85.0632C334.021 85.8011 333.038 85.1488 332.616 83.5627L323.444 49.1223C323.011 47.4969 323.332 45.5056 324.161 44.6769C325 43.8469 326.012 44.4943 326.445 46.1185L335.617 80.5605C336.05 82.1852 335.729 84.1749 334.9 85.0043C334.88 85.0248 334.859 85.0447 334.838 85.0632Z" fill="#B7C5DC" fill-opacity="0.5"/>
<path d="M330.584 88.7885C330.563 88.807 330.542 88.825 330.521 88.8422C329.66 89.5387 328.666 88.7362 328.301 87.0495L320.568 51.3088C320.204 49.6233 320.592 47.71 321.466 46.9946C322.327 46.2974 323.32 47.1014 323.686 48.7889L331.418 84.5284C331.774 86.1739 331.401 88.051 330.584 88.7885Z" fill="#B7C5DC" fill-opacity="0.5"/>
<path d="M331.783 106.087L309.144 126.911C308.394 127.602 307.499 126.946 307.145 125.448L306.371 122.177C306.053 120.831 306.277 119.232 306.899 118.424L328.388 90.4502C329.074 89.5536 330.011 89.9424 330.471 91.3259C330.93 92.7084 330.741 94.5582 330.05 95.4584L315.343 114.603L330.5 100.66C331.25 99.9698 332.146 100.626 332.5 102.124C332.854 103.621 332.533 105.397 331.783 106.087Z" fill="#B7C5DC" fill-opacity="0.5"/>
<path d="M326.584 190.881C320.767 196.278 314.357 193.513 312.296 184.717C311.938 183.191 312.262 181.382 313.02 180.679L331.375 163.648C332.133 162.945 333.037 163.614 333.395 165.14C335.456 173.936 332.401 185.484 326.584 190.881ZM315.978 184.665C317.933 188.158 321.771 188.615 325.288 185.351C328.806 182.088 331.096 175.946 331.007 170.72L315.978 184.665Z" fill="#B7C5DC" fill-opacity="0.5"/>
<path d="M331.728 166.589C331.436 166.859 331.077 166.763 330.825 166.292L312.42 131.723L322.267 173.527C322.459 174.341 322.285 175.307 321.878 175.682C321.471 176.058 320.986 175.701 320.794 174.887L309.138 125.401C308.971 124.694 309.078 123.853 309.394 123.4C309.709 122.947 310.143 123.006 310.429 123.542L331.935 163.935C332.264 164.553 332.283 165.582 331.976 166.233C331.904 166.387 331.82 166.505 331.728 166.589Z" fill="#B7C5DC" fill-opacity="0.5"/>
<path d="M313.032 183.379C312.941 183.463 312.841 183.515 312.734 183.525C312.286 183.572 311.899 182.883 311.871 181.987L310.065 123.41C310.037 122.512 310.381 121.747 310.827 121.703C311.276 121.656 311.663 122.345 311.69 123.24L313.497 181.819C313.518 182.502 313.324 183.109 313.032 183.379Z" fill="#B7C5DC" fill-opacity="0.5"/>
<path d="M363.881 78.1358L341.243 98.9598C340.493 99.65 339.598 98.9938 339.244 97.4964C338.89 95.999 339.21 94.224 339.961 93.5338L355.117 79.5916L338.229 89.5112C337.436 89.9767 336.596 89.0722 336.354 87.4903C336.112 85.9066 336.562 84.2421 337.353 83.7804L362.028 69.2875C362.742 68.8685 363.507 69.5567 363.825 70.9027L364.598 74.1742C364.952 75.6716 364.631 77.4456 363.881 78.1358Z" fill="#B7C5DC" fill-opacity="0.5"/>
<path d="M379.101 145.185C373.284 150.583 366.875 147.817 364.814 139.021C364.456 137.494 364.78 135.686 365.538 134.983L383.893 117.952C384.651 117.249 385.555 117.917 385.913 119.444C387.973 128.24 384.918 139.788 379.101 145.185ZM368.496 138.969C370.451 142.462 374.288 142.919 377.805 139.656C381.323 136.392 383.614 130.249 383.526 125.023L368.496 138.969Z" fill="#B7C5DC" fill-opacity="0.5"/>
<path d="M365.55 137.683C365.459 137.767 365.358 137.819 365.253 137.829C364.804 137.876 364.417 137.187 364.389 136.291L362.583 77.7134C362.559 76.9332 362.817 76.2375 363.193 76.0504C363.571 75.8635 363.965 76.2405 364.132 76.9483L375.789 126.434C375.98 127.248 375.806 128.214 375.4 128.589C374.994 128.964 374.508 128.607 374.316 127.793L364.469 85.9895L366.016 136.121C366.036 136.806 365.842 137.413 365.55 137.683Z" fill="#B7C5DC" fill-opacity="0.5"/>
<path d="M384.246 120.893C383.953 121.163 383.594 121.067 383.343 120.596L361.837 80.2038C361.508 79.5854 361.49 78.5564 361.796 77.9057C362.101 77.2568 362.618 77.2267 362.947 77.8444L384.453 118.237C384.782 118.856 384.801 119.885 384.494 120.535C384.422 120.69 384.337 120.809 384.246 120.893Z" fill="#B7C5DC" fill-opacity="0.5"/>
<path d="M374.903 256.099C374.462 256.485 373.937 256.119 373.727 255.282L337.246 109.202C337.037 108.365 337.224 107.371 337.664 106.982C337.665 106.981 337.665 106.981 337.666 106.981C338.106 106.595 338.632 106.961 338.841 107.797L375.323 253.877C375.532 254.715 375.345 255.71 374.904 256.098C374.904 256.098 374.903 256.098 374.903 256.099Z" fill="#B7C5DC" fill-opacity="0.5"/>
</g>
<g filter="url(#filter1_f_103_2)">
<path d="M878.115 280.792C877.937 280.627 877.771 280.393 877.628 280.093C877.036 278.847 877.062 276.918 877.687 275.788L884.733 263.031C885.358 261.899 886.345 261.995 886.937 263.241C887.529 264.487 887.503 266.414 886.878 267.546L879.831 280.303C879.357 281.16 878.676 281.313 878.115 280.792Z" fill="#B7C5DC" fill-opacity="0.5"/>
<path d="M890.158 273.681C890.133 273.658 890.108 273.634 890.083 273.607C889.808 273.318 883.324 266.439 880.479 259.238C878.72 254.783 876.989 256.962 876.798 257.226C876.149 258.119 875.236 257.809 874.76 256.533C874.283 255.256 874.423 253.497 875.072 252.603C876.229 251.013 879.866 248.498 882.781 255.874C885.241 262.098 891.371 268.599 891.433 268.664C892.146 269.416 892.423 271.132 892.05 272.497C891.691 273.816 890.857 274.323 890.158 273.681Z" fill="#B7C5DC" fill-opacity="0.5"/>
<path d="M874.566 263.051C873.902 262.434 873.285 261.506 872.821 260.221C872.285 258.74 871.553 255.571 872.666 250.991C873.424 247.869 874.667 245.869 876.257 245.209C879.89 243.698 884.046 249.538 885.663 252.117C888.751 257.046 891.764 256.503 891.89 256.476C892.697 256.315 893.438 257.459 893.545 259.04C893.651 260.621 893.094 262.045 892.289 262.231C892.113 262.271 887.943 263.14 883.825 256.574C882.581 254.589 881.311 253.039 880.147 252.044C880.244 252.31 880.32 252.611 880.369 252.94C880.818 255.956 880.672 258.764 879.955 260.847C879.335 262.653 878.338 263.769 877.15 263.986C876.367 264.131 875.428 263.852 874.566 263.051ZM878.446 250.951C877.876 250.727 877.364 250.696 876.932 250.876C876.224 251.17 875.719 252.027 875.343 253.573C875.098 254.583 874.878 255.99 875.224 256.948C875.555 257.864 876.291 258.315 876.811 258.221C877.126 258.163 877.355 257.935 877.49 257.543C877.712 256.896 877.727 255.769 877.53 254.448C877.309 252.963 877.717 251.436 878.446 250.951Z" fill="#B7C5DC" fill-opacity="0.5"/>
<path d="M890.076 273.584C887.859 271.523 886.997 265.825 888.153 260.88C889.31 255.936 892.054 253.589 894.271 255.65C895.053 256.377 895.4 258.195 895.045 259.71C894.691 261.226 893.769 261.864 892.987 261.137C892.426 260.615 891.466 261.462 890.986 263.513C890.506 265.565 890.797 267.575 891.359 268.097C892.141 268.824 892.488 270.643 892.134 272.157C891.779 273.673 890.858 274.311 890.076 273.584Z" fill="#B7C5DC" fill-opacity="0.5"/>
<path d="M888.749 259.905C888.014 259.225 887.641 257.56 887.915 256.061C888.053 255.303 891.338 237.44 895.161 230.904C895.492 230.339 895.933 230.077 896.376 230.184C896.818 230.29 897.221 230.756 897.485 231.464C897.717 232.074 898.524 233.811 899.417 234.377C900.254 234.912 900.72 236.637 900.468 238.247C900.215 239.857 899.335 240.735 898.503 240.207C897.603 239.638 896.839 238.644 896.25 237.673C893.903 243.368 891.644 254.072 890.887 258.224C890.598 259.81 889.698 260.61 888.878 260.013C888.834 259.981 888.791 259.944 888.749 259.905Z" fill="#B7C5DC" fill-opacity="0.5"/>
<path d="M895.97 235.326C895.436 234.827 895.07 233.741 895.086 232.515C895.093 231.952 895.176 229.053 896.146 227.373C896.644 226.509 897.295 226.106 897.979 226.24C899.503 226.534 901.073 228.34 901.246 228.545C901.967 229.395 902.214 231.216 901.799 232.615C901.384 234.013 900.453 234.447 899.744 233.616C899.391 233.205 898.715 232.568 898.133 232.276C898.112 232.476 898.098 232.678 898.097 232.79C898.077 234.425 897.387 235.689 896.555 235.613C896.346 235.593 896.148 235.492 895.97 235.326Z" fill="#B7C5DC" fill-opacity="0.5"/>
<path d="M897.718 231.858C897 231.199 896.616 229.609 896.849 228.12C897.241 225.608 898.577 217.245 899.279 215.15C900.366 211.899 902.166 211.954 902.368 211.97L902.3 218.142C902.3 218.142 902.322 218.148 902.36 218.144C902.286 218.152 902.1 218.208 901.974 218.584C901.645 219.605 900.646 225.32 899.911 230.027C899.657 231.65 898.766 232.538 897.92 232.012C897.851 231.969 897.783 231.917 897.718 231.858Z" fill="#B7C5DC" fill-opacity="0.5"/>
<path d="M903.334 220.461C901.082 218.363 900.08 213.1 901.1 208.729C902.12 204.359 904.783 202.509 907.035 204.607C907.811 205.331 908.156 207.141 907.804 208.649C907.452 210.158 906.537 210.793 905.76 210.069C905.06 209.417 904.232 209.993 903.915 211.351C903.597 212.709 903.909 214.346 904.609 214.998C905.386 215.722 905.731 217.531 905.379 219.04C905.027 220.548 904.111 221.185 903.334 220.461Z" fill="#B7C5DC" fill-opacity="0.5"/>
<path d="M852.03 430.418C851.284 429.746 850.888 428.119 851.137 426.608L875.655 277.783C875.925 276.145 876.849 275.262 877.719 275.809C878.594 276.363 879.075 278.13 878.805 279.768L854.288 428.592C854.018 430.231 853.094 431.112 852.224 430.566C852.157 430.523 852.092 430.473 852.03 430.418Z" fill="#B7C5DC" fill-opacity="0.5"/>
<path d="M857.891 396.616C857.826 396.557 857.763 396.48 857.705 396.387C857.357 395.821 857.309 394.835 857.598 394.185L862.853 382.384L884.607 291.973L876.855 279.874C876.501 279.321 876.443 278.337 876.726 277.676C877.009 277.014 877.524 276.926 877.879 277.479L886.13 290.356C886.423 290.814 886.52 291.586 886.365 292.229L864.302 383.925C864.272 384.051 864.234 384.168 864.186 384.274L858.86 396.234C858.62 396.774 858.22 396.913 857.891 396.616Z" fill="#B7C5DC" fill-opacity="0.5"/>
<path d="M894.549 295.288C893.988 294.767 893.609 293.629 893.634 292.354L894.011 273.402C894.044 271.721 894.768 270.442 895.628 270.544C896.487 270.647 897.159 272.091 897.126 273.772L896.749 292.725C896.716 294.404 895.991 295.685 895.131 295.582C894.923 295.556 894.727 295.453 894.549 295.288Z" fill="#B7C5DC" fill-opacity="0.5"/>
<path d="M889.761 272.581C889.062 271.938 888.724 270.353 889.004 268.963C889.295 267.523 890.139 266.837 890.89 267.43C890.955 267.481 897.43 272.562 901.422 272.275C906.16 271.933 907.523 279.047 907.648 281.816C907.717 283.37 907.124 284.712 906.322 284.814C905.519 284.915 904.813 283.736 904.742 282.181C904.681 281.158 904.271 277.72 901.594 277.914C896.967 278.246 890.126 272.875 889.838 272.646C889.811 272.626 889.786 272.603 889.761 272.581Z" fill="#B7C5DC" fill-opacity="0.5"/>
<path d="M903.99 289.32C903.129 288.519 902.419 287.263 901.971 285.975C901.29 284.019 901.078 281.78 901.374 279.671C901.713 277.238 902.698 275.209 904.145 273.957C904.303 273.82 904.467 273.742 904.631 273.72C903.503 272.584 902.089 271.638 900.527 271.013C895.355 268.943 893.012 262.014 892.914 261.719C892.465 260.363 892.655 258.576 893.338 257.728C894.019 256.883 894.93 257.287 895.382 258.632C895.467 258.883 897.198 263.798 901.058 265.34C903.089 266.153 908.002 268.747 909.758 275.269C910.526 278.123 910.556 281.305 909.844 284.471C908.801 289.116 907.112 290.033 906.2 290.168C905.409 290.285 904.654 289.938 903.99 289.32ZM906.146 275.616C906.427 277.042 906.103 278.645 905.39 279.263C904.757 279.811 904.334 280.559 904.227 281.314C904.164 281.772 904.223 282.268 904.404 282.788C904.701 283.64 905.347 284.476 905.913 284.393C906.504 284.306 906.902 283.067 907.131 282.042C907.484 280.473 907.489 279.151 907.146 277.879C906.939 277.104 906.597 276.342 906.146 275.616Z" fill="#B7C5DC" fill-opacity="0.5"/>
<path d="M889.851 273.233C889.068 272.505 888.721 270.688 889.076 269.173C889.43 267.658 890.352 267.019 891.134 267.746C891.695 268.268 892.656 267.421 893.136 265.37C893.615 263.319 893.324 261.308 892.762 260.786C891.98 260.058 891.633 258.241 891.987 256.726C892.341 255.211 893.263 254.571 894.046 255.299C896.262 257.359 897.125 263.06 895.968 268.004C894.811 272.948 892.067 275.293 889.851 273.233Z" fill="#B7C5DC" fill-opacity="0.5"/>
<path d="M896.376 266.752C896.334 266.713 896.293 266.671 896.252 266.624C895.493 265.761 895.224 263.88 895.651 262.422C896.769 258.602 899.45 248.285 900.141 241.065C899.388 240.796 898.511 240.27 897.715 239.272C896.976 238.346 896.75 236.446 897.209 235.027C897.669 233.609 898.638 233.211 899.38 234.136C900.17 235.122 901.362 235.238 901.754 235.197C902.196 235.153 902.634 235.469 902.956 236.073C903.278 236.675 903.463 237.507 903.457 238.366C903.39 248.377 898.601 264.849 898.398 265.547C897.993 266.926 897.112 267.432 896.376 266.752Z" fill="#B7C5DC" fill-opacity="0.5"/>
<path d="M901.602 240.399C901.423 240.232 901.257 239.994 901.116 239.686C900.552 238.457 900.592 236.584 901.204 235.503C901.26 235.4 901.323 235.261 901.378 235.119C900.867 234.377 900.157 233.738 899.832 233.507C899.046 232.942 898.623 231.244 898.891 229.707C899.158 228.17 900.014 227.379 900.802 227.939C900.991 228.073 902.691 229.323 903.784 231.474C904.274 232.439 904.539 233.697 904.529 235.017C904.51 237.586 903.455 239.577 903.244 239.95C902.786 240.761 902.136 240.897 901.602 240.399Z" fill="#B7C5DC" fill-opacity="0.5"/>
<path d="M902.065 235.58C902.001 235.52 901.938 235.451 901.876 235.375C901.133 234.44 900.907 232.531 901.372 231.109C902.722 226.986 904.294 221.822 904.478 220.67C904.542 220.247 904.442 219.902 904.441 219.899C903.848 218.619 903.892 216.673 904.539 215.552C905.187 214.432 906.192 214.561 906.784 215.84C906.919 216.133 908.09 218.805 907.528 222.525C907.165 224.921 904.786 232.291 904.066 234.492C903.639 235.797 902.779 236.237 902.065 235.58Z" fill="#B7C5DC" fill-opacity="0.5"/>
<path d="M903.119 220.109C902.341 219.385 901.997 217.574 902.349 216.066C902.701 214.557 903.617 213.922 904.394 214.646C905.093 215.297 905.922 214.722 906.239 213.365C906.556 212.007 906.244 210.369 905.544 209.717C904.767 208.993 904.422 207.184 904.774 205.675C905.126 204.168 906.042 203.531 906.819 204.255C909.071 206.352 910.073 211.616 909.053 215.986C908.032 220.357 905.37 222.206 903.119 220.109Z" fill="#B7C5DC" fill-opacity="0.5"/>
<path d="M850.735 429.003C850.673 428.947 850.612 428.882 850.552 428.811C849.776 427.875 849.532 425.941 850.008 424.488L893.26 292.541C893.735 291.088 894.75 290.669 895.528 291.604C896.303 292.539 896.547 294.474 896.071 295.927L852.82 427.875C852.381 429.215 851.482 429.675 850.735 429.003Z" fill="#B7C5DC" fill-opacity="0.5"/>
<path d="M860.658 398.845C860.331 398.549 860.128 397.868 860.187 397.16L861.491 381.566C861.503 381.428 861.524 381.295 861.554 381.169L883.617 289.473C883.772 288.83 884.139 288.478 884.509 288.619L894.903 292.591C895.35 292.763 895.646 293.585 895.566 294.43C895.485 295.274 895.06 295.822 894.614 295.651L884.848 291.918L863.094 382.33L861.807 397.717C861.737 398.565 861.317 399.127 860.869 398.974C860.795 398.948 860.724 398.905 860.658 398.845Z" fill="#B7C5DC" fill-opacity="0.5"/>
</g>
<defs>
<filter id="filter0_f_103_2" x="299.227" y="24.2354" width="94.3284" height="240.605" filterUnits="userSpaceOnUse" color-interpolation-filters="sRGB">
<feFlood flood-opacity="0" result="BackgroundImageFix"/>
<feBlend mode="normal" in="SourceGraphic" in2="BackgroundImageFix" result="shape"/>
<feGaussianBlur stdDeviation="3.5" result="effect1_foregroundBlur_103_2"/>
</filter>
<filter id="filter1_f_103_2" x="843.765" y="197.742" width="72.5923" height="238.986" filterUnits="userSpaceOnUse" color-interpolation-filters="sRGB">
<feFlood flood-opacity="0" result="BackgroundImageFix"/>
<feBlend mode="normal" in="SourceGraphic" in2="BackgroundImageFix" result="shape"/>
<feGaussianBlur stdDeviation="3" result="effect1_foregroundBlur_103_2"/>
</filter>
</defs>
</svg>
