<svg width="1000" height="1501" viewBox="0 0 1000 1501" fill="none" xmlns="http://www.w3.org/2000/svg">
<rect y="1" width="1000" height="1500" fill="#BFCEE7"/>
<g filter="url(#filter0_f_103_3)">
<path d="M450.155 805.576C445.957 805.717 440.535 806.294 436.264 807.052C412.593 811.237 391.261 824.176 375.913 843.623C364.212 858.45 356.685 876.229 354.017 895.291C352.659 905.06 352.659 915.74 354.03 925.675C356.171 941.259 361.765 956.329 370.271 969.423C375.583 977.612 381.861 984.852 389.18 991.232C400.012 1000.67 412.63 1007.59 426.313 1011.58C431.698 1013.14 438.197 1014.4 443.301 1014.86C444.109 1014.94 444.99 1015.02 445.259 1015.06C448.233 1015.4 455.54 1015.43 459.763 1015.12C477.362 1013.81 493.579 1008.07 508.107 997.984C529.513 983.132 544.652 960.321 550.405 934.289C554.174 917.229 553.832 899.142 549.413 882.518C545.326 867.127 538.325 853.546 528.203 841.313C526.208 838.9 521.019 833.47 518.755 831.416C503.97 818.014 486.493 809.568 467.534 806.667C462.321 805.871 455.112 805.422 450.155 805.576ZM461.109 807.09C471.488 808.04 481.242 810.492 490.483 814.484C508.033 822.058 522.94 834.574 533.992 850.979C538.753 858.052 543 866.575 545.84 874.765C548.287 881.787 549.891 888.526 550.931 896.125C552.008 903.93 552.131 913.878 551.237 922.248C549.132 942.145 541.287 961.361 528.938 976.868C525.376 981.348 520.591 986.367 516.344 990.077C501.51 1003.07 483.213 1011.3 464.23 1013.5C457.511 1014.29 449.127 1014.31 442.322 1013.58C431.05 1012.35 419.386 1008.77 409.093 1003.38C399.069 998.125 390.918 991.977 383.085 983.748C380.111 980.629 378.312 978.524 375.864 975.327C364.139 959.988 356.881 941.772 354.764 922.312C354.287 917.986 354.201 916.073 354.201 910.438C354.201 904.854 354.299 902.942 354.752 898.667C357.273 875.381 367.211 853.803 383.085 837.141C399.963 819.452 422.262 808.746 445.81 807.039C446.85 806.962 447.952 806.885 448.258 806.859C449.886 806.744 459.04 806.911 461.109 807.09Z" fill="#B7C5DC" fill-opacity="0.5"/>
<path d="M447.768 809.491C423.364 810.916 400.807 821.686 383.819 840.042C366.293 858.976 356.588 884.059 356.588 910.426C356.588 926.446 360.064 941.798 366.93 956.073C381.274 985.879 409.056 1006.52 440.547 1010.74C445.088 1011.36 446.838 1011.46 452.848 1011.46C458.722 1011.46 460.338 1011.39 464.413 1010.87C492.269 1007.41 517.2 991.425 532.977 966.92C542.29 952.453 547.7 936.176 549.132 918.333C549.377 915.226 549.34 904.931 549.071 901.838C547.835 887.782 544.285 875.138 538.178 863.071C525.082 837.205 501.742 818.4 474.633 811.904C465.98 809.838 456.495 808.977 447.768 809.491ZM452.297 810.852C452.297 811.044 452.077 813.342 451.807 815.948C451.538 818.566 451.036 823.393 450.694 826.679C450.363 829.965 449.837 835.01 449.543 837.911C449.249 840.8 448.748 845.626 448.442 848.63C448.136 851.634 447.634 856.447 447.34 859.349C445.994 872.416 445.443 877.846 445.259 879.759C445.149 880.888 445.015 881.941 444.978 882.095C444.904 882.326 444.109 881.389 439.678 875.869C434.734 869.695 422.47 854.394 407.465 835.703C403.72 831.018 400.648 827.141 400.648 827.077C400.648 826.846 404.259 824.523 407.6 822.623C420.916 814.998 435.823 810.89 451.477 810.518C452.285 810.505 452.297 810.505 452.297 810.852ZM456.948 810.633C472.724 811.416 487.056 815.755 500.396 823.778C502.66 825.152 505.426 826.974 505.39 827.09C505.365 827.141 498.854 835.511 490.911 845.703C482.968 855.883 473.47 868.065 469.811 872.763C462.418 882.249 462.076 882.673 462.015 882.621C461.99 882.596 461.892 881.826 461.782 880.914C461.28 876.537 460.448 869.335 460.007 865.574C459.506 861.3 458.735 854.573 457.755 846.063C457.449 843.418 456.886 838.617 456.519 835.408C456.14 832.199 455.601 827.462 455.295 824.882C455.002 822.302 454.5 818.053 454.194 815.421C453.888 812.803 453.643 810.621 453.643 810.582C453.643 810.479 453.9 810.479 456.948 810.633ZM454.194 825.28C454.94 831.634 456.03 841.056 457.07 850.042C457.327 852.34 457.853 856.871 458.233 860.119C460.889 883.058 460.999 883.969 460.938 884.021C460.913 884.059 460.313 883.931 459.616 883.751C457.927 883.315 456.421 883.045 454.867 882.929L453.582 882.84L453.545 851.724C453.533 834.612 453.557 820.633 453.594 820.672C453.631 820.71 453.9 822.79 454.194 825.28ZM452.358 882.737C452.321 882.84 452.052 882.904 451.599 882.904C450.669 882.904 448.613 883.199 447.169 883.533C446.532 883.687 446.006 883.79 445.994 883.764C445.981 883.751 446.128 882.236 446.312 880.401C446.704 876.588 447.34 870.491 448.319 860.953C448.686 857.32 449.213 852.237 449.482 849.657C449.751 847.077 450.302 841.711 450.706 837.719C451.55 829.452 452.285 822.482 452.321 822.263C452.346 822.186 452.37 835.729 452.395 852.353C452.407 868.976 452.395 882.66 452.358 882.737ZM399.877 828.502C400.208 829.093 403.328 835.832 407.686 845.421C408.383 846.935 409.399 849.156 409.95 850.363C410.501 851.557 411.492 853.726 412.153 855.177C412.814 856.627 413.83 858.848 414.417 860.119C415.005 861.39 416.4 864.445 417.538 866.922C420.096 872.519 423.352 879.643 426.387 886.241C429.508 893.058 429.912 893.969 429.838 894.046C429.777 894.11 427.941 893.687 421.271 892.069C416.596 890.94 415.714 890.721 412.826 890.041C407.808 888.834 397.601 886.395 395.936 885.985C394.345 885.599 386.157 883.635 380.943 882.39C379.426 882.031 377.149 881.479 375.864 881.171C374.591 880.863 372.303 880.311 370.785 879.951C363.087 878.116 362.952 878.077 362.952 877.808C362.952 877.589 363.907 874.907 364.849 872.506C370.76 857.346 380.27 843.868 392.57 833.213C394.578 831.467 399.204 827.847 399.424 827.835C399.461 827.835 399.669 828.143 399.877 828.502ZM508.278 829.08C522.329 839.644 533.148 853.572 540.185 870.157C541.678 873.674 543.184 877.897 543 878.026C542.927 878.064 541.752 878.347 540.393 878.655C538.043 879.168 535.951 879.63 529.378 881.107C527.812 881.453 523.773 882.352 520.407 883.096C515.022 884.29 510.065 885.394 502.232 887.14C500.984 887.422 495.917 888.539 490.972 889.643C486.028 890.747 480.716 891.928 479.161 892.275C475.526 893.083 475.429 893.096 475.429 892.942C475.429 892.865 480.006 883.199 485.599 871.453C491.205 859.708 497.875 845.69 500.421 840.286C504.631 831.377 506.369 827.963 506.687 827.963C506.748 827.963 507.47 828.464 508.278 829.08ZM499.931 836.332C499.087 837.642 481.83 864.868 474.107 877.063C470.582 882.634 467.657 887.243 467.608 887.307C467.559 887.358 467.057 887.101 466.482 886.755C465.417 886.074 464.12 885.394 462.945 884.881C462.578 884.727 462.272 884.534 462.272 884.457C462.272 884.316 500.359 835.408 500.47 835.408C500.506 835.408 500.262 835.832 499.931 836.332ZM417.122 849.593C421.369 854.881 427.807 862.917 431.429 867.436C443.962 883.071 444.733 884.033 444.733 884.136C444.721 884.187 444.317 884.38 443.827 884.573C442.64 885.022 440.976 885.856 439.776 886.575C439.238 886.896 438.76 887.114 438.712 887.05C438.663 886.999 436.374 883.417 433.632 879.117C430.879 874.804 427.415 869.374 425.922 867.051C420.28 858.245 416.804 852.815 411.847 845.036C409.02 840.62 406.56 836.782 406.376 836.512C406.192 836.243 406.033 835.96 406.033 835.896C406.033 835.768 406.768 836.666 417.122 849.593ZM410.439 844.997C413.462 849.708 417.722 856.37 419.912 859.798C422.091 863.225 425.432 868.45 427.341 871.415C432.788 879.939 436.9 886.37 437.377 887.14L437.83 887.859L436.692 888.783C435.419 889.836 432.935 892.454 432.102 893.661C431.796 894.097 431.515 894.444 431.478 894.457C431.442 894.457 431.087 893.751 430.695 892.878C430.303 892.018 429.398 890.067 428.7 888.552C428.002 887.037 427.195 885.266 426.901 884.637C426.472 883.661 421.051 871.826 418.358 865.959C416.755 862.455 412.85 853.919 410.048 847.796C408.457 844.33 406.633 840.35 405.984 838.951C404.858 836.512 404.711 836.166 404.883 836.345C404.932 836.384 407.429 840.286 410.439 844.997ZM490.066 859.374C479.7 881.145 474.009 893.109 473.911 893.353C473.886 893.43 473.483 893.058 473.03 892.531C471.916 891.222 470.129 889.438 469.285 888.783C468.893 888.475 468.587 888.167 468.575 888.077C468.575 887.987 470.349 885.137 472.516 881.723C474.682 878.308 481.695 867.243 488.108 857.128C494.521 847.025 499.809 838.746 499.845 838.746C499.882 838.746 495.476 848.027 490.066 859.374ZM378.924 887.499C386.537 891.273 393.146 894.547 393.611 894.778C394.59 895.265 400.22 898.051 414.882 905.329C420.512 908.128 425.089 910.464 425.041 910.515C424.955 910.592 418.431 913.853 411.112 917.46C409.974 918.038 408.506 918.757 407.869 919.065C407.233 919.386 406.266 919.861 405.727 920.13C405.189 920.4 398.445 923.737 390.747 927.562C383.048 931.388 376.292 934.738 375.754 935.008C374.114 935.816 365.95 939.873 364.188 940.746C363.282 941.195 362.499 941.529 362.45 941.477C362.328 941.323 361.814 939.578 361.189 937.203C359.513 930.81 358.546 925.047 357.995 918.012C357.885 916.716 357.689 912.069 357.689 910.978C357.689 910.169 357.726 909.976 357.836 910.092C358.044 910.31 402.863 910.31 403.071 910.092C403.28 909.874 403.255 909.527 403.022 909.296C402.851 909.116 400.636 909.091 380.49 909.091C359.855 909.091 358.117 909.103 357.909 909.309C357.64 909.566 357.64 909.771 357.812 906.241C358.24 897.152 359.427 889.874 361.875 881.235C362.144 880.285 362.389 879.464 362.413 879.412C362.438 879.374 363.062 879.618 363.784 879.977C364.506 880.336 371.323 883.712 378.924 887.499ZM543.833 880.234C545.693 886.216 547.235 894.187 547.822 900.875C548.043 903.468 548.251 907.178 548.251 908.718V909.861H526.233H504.203L504.019 910.13C503.835 910.413 503.884 910.746 504.117 910.913C504.19 910.965 514.165 911.016 526.27 911.016H548.288L548.202 913.494C547.92 922.158 546.758 930.014 544.567 938.101C544.187 939.501 543.6 941.465 543.527 941.554C543.514 941.58 541.874 940.797 539.904 939.834C537.933 938.859 534.09 936.972 531.361 935.637C523.956 931.991 519.134 929.616 514.777 927.473C507.275 923.789 493.236 916.882 492.38 916.472C491.915 916.241 489.271 914.944 486.505 913.583C483.751 912.223 481.193 910.978 480.826 910.811C480.459 910.644 480.19 910.477 480.214 910.451C480.239 910.426 481.915 909.591 483.935 908.603C485.954 907.614 490.336 905.471 493.665 903.828C501.424 900.002 506.614 897.461 511.289 895.163C513.345 894.162 515.989 892.852 517.164 892.275C518.339 891.697 519.722 891.017 520.223 890.773C520.725 890.529 522.904 889.45 525.058 888.398C527.212 887.332 531.128 885.42 533.748 884.123C536.379 882.84 539.573 881.261 540.846 880.619C542.131 879.99 543.27 879.464 543.38 879.451C543.527 879.438 543.649 879.669 543.833 880.234ZM533.185 881.543C533.16 881.569 528.681 883.161 523.222 885.086C495.023 895.022 484.718 898.654 481.548 899.771C479.627 900.451 477.987 900.991 477.901 900.978C477.815 900.952 477.497 900.336 477.191 899.604C476.591 898.115 475.906 896.767 475.086 895.445C474.792 894.957 474.572 894.547 474.596 894.521C474.609 894.508 475.71 894.251 477.02 893.969C478.329 893.674 482.025 892.852 485.22 892.146C488.414 891.427 492.049 890.619 493.298 890.349C494.546 890.067 497.128 889.489 499.05 889.065C500.971 888.629 503.309 888.115 504.251 887.91C505.194 887.705 507.532 887.178 509.453 886.755C512.794 886.01 514.128 885.715 520.407 884.316C526.061 883.058 528.534 882.506 530.688 882.018C532.817 881.53 533.295 881.44 533.185 881.543ZM376.782 884.187C383.195 886.485 390.392 889.053 397.65 891.658C400.611 892.711 404.381 894.059 406.033 894.649C409.24 895.792 423.364 900.837 426.093 901.825C426.999 902.146 427.745 902.415 427.758 902.415C427.77 902.415 427.623 903.057 427.439 903.828C427.072 905.355 426.717 907.922 426.717 909.039C426.717 909.514 426.668 909.732 426.57 909.732C426.485 909.732 421.565 907.332 415.641 904.392C404.124 898.667 372.743 883.083 371.678 882.557C371.079 882.249 370.76 881.992 371.25 882.198C371.36 882.249 373.857 883.148 376.782 884.187ZM376.892 882.634C377.737 882.852 379.67 883.315 381.188 883.674C382.706 884.033 384.994 884.585 386.267 884.893C387.552 885.202 389.829 885.754 391.346 886.113C392.864 886.472 395.043 886.999 396.181 887.268C399.571 888.09 407.098 889.9 412.275 891.132C419.105 892.762 420.94 893.212 423.719 893.879C425.065 894.2 427.182 894.701 428.431 894.996C429.679 895.291 430.707 895.548 430.732 895.561C430.744 895.574 430.438 896.203 430.022 896.973C429.618 897.743 429.03 899.001 428.724 899.784C428.406 900.554 428.137 901.209 428.125 901.235C428.113 901.26 426.864 900.837 425.359 900.297C423.853 899.758 421.43 898.885 419.986 898.372C416.473 897.127 400.893 891.556 398.2 890.58C397.025 890.156 394.627 889.296 392.876 888.68C384.223 885.599 375.264 882.377 375.215 882.326C375.105 882.211 375.313 882.249 376.892 882.634ZM533.136 883.096C532.536 883.392 530.272 884.508 528.118 885.561C523.712 887.73 509.722 894.611 500.763 899.014C482.172 908.166 479.443 909.488 479.382 909.424C479.357 909.399 479.272 908.77 479.21 908.038C479.088 906.549 478.733 904.457 478.378 903.147C478.256 902.672 478.195 902.249 478.256 902.223C478.341 902.159 489.381 898.256 509.698 891.106C513.1 889.913 519.954 887.499 524.935 885.728C529.917 883.969 534.054 882.532 534.115 882.532C534.188 882.544 533.748 882.788 533.136 883.096ZM455.663 884.2C463.018 884.983 469.872 889.348 473.984 895.869C477.852 902.005 479.137 909.758 477.448 916.793C475.894 923.275 472.197 928.769 466.861 932.517C464.695 934.032 461.244 935.598 458.637 936.227C454.059 937.331 448.894 936.997 444.415 935.316C442.481 934.584 439.434 932.915 439.201 932.453C439.14 932.325 438.932 932.184 438.748 932.132C438.1 931.965 435.725 929.86 434.342 928.217C431.05 924.315 429.03 919.989 428.161 914.995C427.807 912.993 427.77 908.128 428.1 906.266C429.079 900.683 431.295 896.036 434.856 892.159C436.178 890.708 438.406 888.809 438.785 888.809C438.944 888.809 439.177 888.629 439.372 888.372C440.046 887.435 444.819 885.291 447.646 884.65C450.02 884.098 453.129 883.931 455.663 884.2ZM426.754 912.454C426.84 913.93 427.072 915.509 427.464 917.216C427.611 917.871 427.684 918.397 427.623 918.461C427.525 918.551 423.976 919.835 409.95 924.815C408.298 925.406 404.369 926.805 401.199 927.935C394.235 930.425 375.803 936.985 373.392 937.845C372.425 938.191 371.642 938.435 371.642 938.409C371.642 938.371 371.984 938.178 372.413 937.986C372.829 937.78 375.729 936.356 378.863 934.79C390.93 928.795 412.373 918.153 415.763 916.484C417.722 915.522 420.916 913.93 422.862 912.954C424.82 911.966 426.472 911.157 426.546 911.157C426.632 911.144 426.705 911.619 426.754 912.454ZM481.487 912.428C482.368 912.865 485.171 914.251 487.729 915.509C493.09 918.14 506.393 924.674 512.023 927.447C522.635 932.671 524.189 933.442 525.609 934.122C526.453 934.533 528.681 935.624 530.565 936.561C532.45 937.498 534.176 938.345 534.408 938.448C534.629 938.551 534.788 938.653 534.763 938.679C534.702 938.743 532.94 938.127 518.388 932.967C513.37 931.182 508.719 929.539 508.046 929.308C507.372 929.077 502.722 927.434 497.704 925.65C492.686 923.878 486.334 921.619 483.568 920.644C480.814 919.668 478.464 918.834 478.354 918.795C478.17 918.718 478.182 918.564 478.488 917.332C478.856 915.881 479.223 913.519 479.223 912.698C479.223 912.428 479.259 912.03 479.296 911.812C479.382 911.35 479.235 911.298 481.487 912.428ZM428.418 920.412C428.822 921.529 430.034 924.058 430.646 925.072C430.927 925.534 431.136 925.932 431.111 925.958C431.05 925.996 429.679 926.317 421.638 928.153C418.076 928.975 414.025 929.899 412.642 930.22C407.331 931.439 406.266 931.696 403.83 932.248C402.447 932.569 399.779 933.172 397.894 933.609C393.464 934.623 390.074 935.406 386.94 936.125C385.557 936.445 383.33 936.959 381.984 937.267C380.637 937.575 378.153 938.153 376.452 938.551C373.318 939.27 373.147 939.308 373.245 939.193C373.282 939.167 377.467 937.652 382.547 935.842C387.626 934.032 394.369 931.632 397.527 930.502C400.697 929.372 404.822 927.909 406.706 927.229C412.177 925.29 413.279 924.892 420.843 922.197C424.783 920.785 428.027 919.629 428.064 919.629C428.1 919.617 428.259 919.976 428.418 920.412ZM479.957 920.631C481.132 921.041 485.048 922.428 488.647 923.699C492.245 924.982 498.634 927.242 502.844 928.731C515.487 933.211 523.712 936.112 528.387 937.755C530.822 938.615 532.793 939.334 532.781 939.359C532.744 939.398 531.997 939.244 525.609 937.845C523.956 937.485 521.839 937.023 520.897 936.818C519.954 936.612 517.592 936.099 515.634 935.662C513.688 935.239 511.044 934.661 509.759 934.379C508.486 934.109 506.112 933.583 504.496 933.236C479.871 927.845 474.523 926.677 474.474 926.613C474.437 926.587 474.67 926.15 474.976 925.663C475.673 924.559 476.873 922.184 477.399 920.862C477.607 920.323 477.791 919.873 477.803 919.873C477.815 919.873 478.782 920.22 479.957 920.631ZM432.543 927.858C433.388 929 435.395 931.08 436.668 932.132C437.341 932.684 437.72 933.082 437.671 933.185C437.622 933.352 434.893 937.626 428.064 948.242C426.754 950.283 424.612 953.621 423.315 955.649C422.017 957.677 419.925 960.951 418.664 962.902C417.403 964.866 413.989 970.193 411.064 974.75C408.138 979.307 405.727 983.004 405.703 982.991C405.666 982.94 406.939 980.193 411.627 970.193C412.606 968.114 413.976 965.187 414.662 963.711C415.347 962.221 416.767 959.192 417.807 956.971C418.86 954.751 421.026 950.091 422.642 946.638C424.269 943.172 426.827 937.716 428.333 934.507C429.838 931.298 431.233 928.307 431.429 927.858C431.625 927.421 431.821 927.062 431.858 927.062C431.907 927.062 432.213 927.421 432.543 927.858ZM430.267 927.55C430.267 927.601 428.333 931.773 425.971 936.818C423.609 941.863 421.112 947.203 420.414 948.692C419.729 950.168 417.599 954.712 415.702 958.768C413.805 962.825 410.88 969.063 409.215 972.632C407.551 976.201 405.152 981.31 403.891 983.992C402.631 986.675 401.382 989.358 401.113 989.949C400.562 991.168 399.485 992.914 399.29 992.914C399.106 992.914 397.025 991.361 394.957 989.692C380.76 978.229 370.148 963.197 363.747 945.482C363.258 944.135 362.891 943.005 362.94 942.954C363.025 942.851 364.041 942.607 376.415 939.77C381.359 938.641 386.267 937.511 387.308 937.267C388.348 937.023 390.343 936.561 391.75 936.24C393.146 935.919 395.398 935.406 396.768 935.098C398.127 934.777 401.909 933.904 405.177 933.159C417.465 930.335 419.337 929.912 426.044 928.346C429.997 927.434 430.267 927.383 430.267 927.55ZM477.277 935.175C479.235 939.295 481.658 944.327 482.65 946.381C485.514 952.299 500.078 982.645 500.249 983.081C500.347 983.299 500.359 983.415 500.298 983.351C500.237 983.274 498.732 980.937 496.945 978.152C495.158 975.366 491.89 970.244 489.675 966.791C487.46 963.325 484.057 957.998 482.099 954.943C480.153 951.901 476.224 945.765 473.385 941.311C470.533 936.869 468.208 933.185 468.208 933.134C468.208 933.069 468.611 932.697 469.113 932.286C470.215 931.401 472.516 929.103 473.103 928.294C473.336 927.973 473.568 927.717 473.617 927.704C473.666 927.704 475.318 931.067 477.277 935.175ZM477.473 928.551C478.611 928.795 480.434 929.193 481.548 929.437C482.662 929.681 485.171 930.233 487.117 930.656C489.075 931.08 491.572 931.632 492.686 931.876C496.259 932.646 506.173 934.815 517.102 937.203C533.539 940.797 535.192 941.157 537.358 941.631C541.25 942.466 542.927 942.864 543.025 942.966C543.074 943.018 542.719 944.16 542.241 945.495C536.244 962.106 526.588 976.265 513.529 987.625C511.228 989.615 506.822 993.042 506.552 993.042C506.32 993.042 506.467 993.338 494.558 968.524C492.196 963.621 487.496 953.826 484.118 946.766C480.74 939.706 477.338 932.646 476.579 931.08C475.808 929.514 475.184 928.204 475.184 928.166C475.184 928.037 475.318 928.063 477.473 928.551ZM439.886 934.404C441.037 935.11 443.007 936.06 444.378 936.561C444.831 936.728 445.198 936.895 445.198 936.946C445.198 937.023 442.701 940.104 427.023 959.41C424.93 961.99 421.577 966.111 419.57 968.588C417.562 971.053 413.475 976.098 410.476 979.782C407.477 983.479 405.005 986.496 404.968 986.496C404.932 986.496 405.005 986.329 405.14 986.136C405.458 985.623 409.472 979.371 414.699 971.22C417.171 967.369 421.92 959.975 425.249 954.789C428.578 949.603 432.396 943.647 433.73 941.567C435.064 939.488 436.741 936.869 437.463 935.752C438.173 934.648 438.76 933.737 438.785 933.737C438.797 933.737 439.299 934.032 439.886 934.404ZM472.075 941.439C474.719 945.572 477.876 950.502 479.1 952.414C480.324 954.314 482.748 958.101 484.485 960.822C486.223 963.544 488.879 967.69 490.385 970.026C491.89 972.375 494.35 976.213 495.856 978.563C498.94 983.389 499.527 984.326 499.27 984.057C499.16 983.954 496.039 979.962 492.306 975.199C482.442 962.581 479.688 959.051 478.109 957.035C477.338 956.047 475.184 953.3 473.336 950.938C471.488 948.576 468.195 944.366 466.017 941.58C463.85 938.807 462.113 936.484 462.174 936.433C462.223 936.368 462.627 936.176 463.067 935.983C464.022 935.56 466.041 934.494 466.555 934.135C466.763 933.994 466.996 933.891 467.094 933.904C467.192 933.917 469.431 937.306 472.075 941.439ZM460.815 937.485C460.778 937.858 460.57 939.642 460.362 941.439C460.167 943.236 459.75 946.843 459.457 949.462C459.163 952.068 458.673 956.381 458.367 959.025C458.061 961.669 457.4 967.472 456.886 971.926C456.385 976.367 455.699 982.375 455.357 985.276C455.026 988.164 454.524 992.593 454.255 995.096C453.974 997.599 453.692 999.769 453.643 999.91C453.582 1000.05 453.533 986.2 453.533 969.14L453.521 938.127L454.353 938.05C456.409 937.858 458.233 937.562 459.469 937.216C460.203 937.01 460.827 936.831 460.852 936.831C460.876 936.818 460.864 937.126 460.815 937.485ZM449.653 937.832C450.265 937.909 451.134 937.999 451.599 938.05L452.419 938.127V968.101C452.419 984.596 452.395 998.061 452.37 998.036C452.309 997.972 451.942 994.364 451.073 985.34C450.816 982.555 450.29 977.125 449.91 973.274C448.919 963.107 448.588 959.654 447.707 950.489C447.267 945.97 446.801 941.157 446.667 939.783C446.532 938.409 446.422 937.267 446.422 937.267C446.422 937.254 446.899 937.344 447.487 937.472C448.074 937.601 449.041 937.768 449.653 937.832ZM464.426 941.439C466.8 944.468 472.283 951.477 479.541 960.758C481.695 963.505 484.73 967.382 486.272 969.359C489.895 973.993 494.962 980.475 499.527 986.303C501.51 988.845 503.652 991.566 504.276 992.362C504.9 993.158 505.414 993.825 505.414 993.851C505.414 994.018 501.388 996.585 498.744 998.113C487.484 1004.6 474.964 1008.64 462.21 1009.91C458.367 1010.29 453.643 1010.5 453.643 1010.27C453.643 1010.22 453.802 1008.79 454.01 1007.1C454.206 1005.4 454.537 1002.52 454.745 1000.68C454.953 998.844 455.222 996.418 455.357 995.289C455.601 993.209 456.483 985.559 457.254 978.729C457.486 976.676 457.902 973.068 458.172 970.707C458.698 966.098 459.542 958.743 460.436 950.874C460.742 948.191 461.182 944.353 461.415 942.337C461.647 940.322 461.843 938.602 461.843 938.512C461.843 938.409 461.892 938.358 461.953 938.384C462.015 938.397 463.128 939.783 464.426 941.439ZM445.443 938.923C445.443 939.026 445.553 940.194 445.688 941.529C445.908 943.788 446.679 951.657 447.952 964.866C448.258 967.972 448.772 973.377 449.115 976.868C449.457 980.36 449.947 985.469 450.216 988.229C450.632 992.516 451.697 1003.58 452.211 1008.82L452.37 1010.41L449.971 1010.32C439.36 1009.94 429.679 1007.96 419.839 1004.16C414.625 1002.16 408.432 999.011 403.647 995.931C400.367 993.825 400.501 993.928 400.685 993.697C400.783 993.581 402.937 990.924 405.495 987.779C408.04 984.634 410.733 981.31 411.48 980.398C412.226 979.474 416.657 974.018 421.332 968.268C426.007 962.517 430.573 956.881 431.49 955.752C434.832 951.657 438.479 947.151 441.832 943.005C443.717 940.669 445.296 938.756 445.357 938.756C445.406 938.743 445.443 938.82 445.443 938.923Z" fill="#B7C5DC" fill-opacity="0.5"/>
<path d="M448.013 813.136C447.866 813.316 446.924 822.443 446.912 823.739C446.912 824.112 446.985 824.394 447.095 824.497C447.352 824.728 447.879 824.548 447.952 824.201C447.976 824.047 448.233 821.557 448.503 818.682C448.858 814.895 448.956 813.367 448.87 813.188C448.711 812.892 448.233 812.867 448.013 813.136Z" fill="#B7C5DC" fill-opacity="0.5"/>
<path d="M405.703 826.769C405.617 826.795 405.544 826.987 405.544 827.192C405.544 827.539 406.621 828.977 413.842 838.232C415.078 839.811 423.327 850.414 429.104 857.834C433.094 862.968 433.657 863.649 433.963 863.649C434.391 863.649 434.624 863.263 434.428 862.866C434.354 862.724 433.045 861.004 431.515 859.053C427.537 853.931 427.709 854.162 422.311 847.218C419.594 843.726 416.339 839.528 415.078 837.911C413.817 836.281 411.37 833.136 409.632 830.915C407.906 828.694 406.437 826.833 406.352 826.782C406.205 826.666 405.923 826.666 405.703 826.769Z" fill="#B7C5DC" fill-opacity="0.5"/>
<path d="M446.557 827.693C446.373 827.886 446.312 828.219 446.239 829.323C446.153 830.568 446.165 830.723 446.373 830.877C446.655 831.095 446.716 831.095 447.01 830.812C447.218 830.633 447.291 830.337 447.389 829.259C447.511 828.065 447.499 827.898 447.328 827.68C447.059 827.385 446.85 827.385 446.557 827.693Z" fill="#B7C5DC" fill-opacity="0.5"/>
<path d="M445.957 833.251C445.847 833.393 442.628 866.062 442.628 867.025C442.628 867.525 443.154 867.782 443.485 867.423C443.693 867.204 443.815 866.113 444.586 858.193C445.064 853.251 445.688 846.691 445.994 843.623C446.961 833.624 446.973 833.521 446.789 833.303C446.606 833.059 446.128 833.033 445.957 833.251Z" fill="#B7C5DC" fill-opacity="0.5"/>
<path d="M436.411 866.627C436.08 866.973 436.3 867.384 437.891 869.438C438.773 870.593 439.691 871.787 439.923 872.095C440.266 872.57 440.388 872.647 440.719 872.608C441.037 872.57 441.098 872.519 441.135 872.185C441.159 871.851 440.878 871.415 439.128 869.13C437.059 866.447 436.802 866.216 436.411 866.627Z" fill="#B7C5DC" fill-opacity="0.5"/>
<path d="M457.804 814.035C457.694 814.176 458 817.424 459.273 829.593C461.231 848.373 462.161 857.243 462.333 859.027C462.492 860.606 462.59 860.889 462.945 860.991C463.373 861.107 463.691 860.67 463.618 860.08C463.581 859.823 462.48 849.387 461.17 836.91C459.714 822.982 458.747 814.138 458.661 814.022C458.465 813.791 458 813.791 457.804 814.035Z" fill="#B7C5DC" fill-opacity="0.5"/>
<path d="M500.543 826.641C500.2 826.962 494.215 834.907 494.118 835.164C494.02 835.485 494.375 835.947 494.681 835.896C494.986 835.857 501.498 827.398 501.498 827.039C501.498 826.782 501.179 826.422 500.947 826.422C500.861 826.422 500.678 826.525 500.543 826.641Z" fill="#B7C5DC" fill-opacity="0.5"/>
<path d="M491.119 838.771C490.25 839.901 490.128 840.119 490.213 840.44C490.275 840.709 490.752 840.876 491.009 840.709C491.339 840.53 492.686 838.656 492.686 838.399C492.686 838.078 492.453 837.847 492.123 837.847C491.927 837.847 491.633 838.129 491.119 838.771Z" fill="#B7C5DC" fill-opacity="0.5"/>
<path d="M488.255 842.558C488.084 842.763 485.807 845.716 483.188 849.143C480.581 852.571 476.212 858.283 473.495 861.839C470.778 865.382 468.465 868.462 468.354 868.655C468.171 869.002 468.171 869.04 468.391 869.297C468.513 869.438 468.734 869.554 468.868 869.528C469.015 869.502 470.423 867.769 472.65 864.868C482.209 852.352 489.222 843.161 489.308 843.007C489.43 842.789 489.063 842.211 488.794 842.211C488.671 842.211 488.426 842.366 488.255 842.558Z" fill="#B7C5DC" fill-opacity="0.5"/>
<path d="M463.067 864.907L462.822 865.125L463.141 868.462C463.349 870.568 463.532 871.903 463.63 872.082C463.838 872.429 464.181 872.467 464.45 872.147C464.622 871.954 464.609 871.659 464.34 868.847C464.181 867.153 464.01 865.574 463.948 865.33C463.838 864.778 463.434 864.586 463.067 864.907Z" fill="#B7C5DC" fill-opacity="0.5"/>
<path d="M396.634 833.765C396.56 833.842 396.487 834.021 396.487 834.163C396.487 834.381 400.881 843.585 401.174 843.97C401.321 844.175 401.774 844.188 401.97 843.983C402.056 843.893 402.117 843.713 402.117 843.559C402.117 843.418 401.052 841.133 399.755 838.489C397.674 834.227 397.368 833.675 397.099 833.636C396.927 833.611 396.719 833.675 396.634 833.765Z" fill="#B7C5DC" fill-opacity="0.5"/>
<path d="M402.802 846.91C402.692 847.012 402.606 847.166 402.606 847.23C402.606 847.41 403.586 849.438 403.806 849.682C404.075 850.016 404.54 849.977 404.699 849.618C404.809 849.361 404.736 849.117 404.21 848.013C403.671 846.897 403.537 846.704 403.292 846.704C403.12 846.704 402.9 846.794 402.802 846.91Z" fill="#B7C5DC" fill-opacity="0.5"/>
<path d="M405.25 851.903C405.14 852.018 405.054 852.173 405.054 852.237C405.054 852.365 411.933 866.793 416.975 877.255C419.508 882.518 419.606 882.711 419.974 882.749C420.243 882.775 420.377 882.724 420.488 882.506C420.61 882.249 419.986 880.875 414.368 869.181C405.96 851.646 406.021 851.787 405.715 851.736C405.568 851.71 405.36 851.787 405.25 851.903Z" fill="#B7C5DC" fill-opacity="0.5"/>
<path d="M368.043 874.29C367.762 874.611 367.835 874.958 368.215 875.163C368.386 875.253 369.757 875.587 371.274 875.908C372.792 876.228 376.782 877.101 380.148 877.846C388.58 879.707 390.429 880.105 398.2 881.812C401.933 882.634 406.156 883.558 407.563 883.866C411.81 884.791 411.651 884.765 411.884 884.624C412.141 884.444 412.214 883.892 412.006 883.712C411.92 883.635 411.027 883.391 410.011 883.186C409.007 882.968 406.584 882.441 404.626 882.005C402.68 881.569 399.926 880.965 398.506 880.657C397.099 880.349 394.345 879.733 392.387 879.309C390.441 878.873 387.932 878.334 386.818 878.09C385.704 877.846 383.207 877.307 381.249 876.87C373.147 875.086 368.386 874.046 368.3 874.046C368.276 874.046 368.153 874.162 368.043 874.29Z" fill="#B7C5DC" fill-opacity="0.5"/>
<path d="M415.824 884.957C415.139 885.676 415.763 885.92 421.295 887.075C422.225 887.281 422.446 887.294 422.605 887.152C422.837 886.947 422.862 886.459 422.654 886.267C422.568 886.19 421.442 885.894 420.169 885.612C418.884 885.33 417.477 885.009 417.048 884.906C416.057 884.649 416.118 884.649 415.824 884.957Z" fill="#B7C5DC" fill-opacity="0.5"/>
<path d="M506.197 836.666C505.989 836.794 486.199 878.359 486.199 878.655C486.199 879.001 486.517 879.219 486.872 879.13C487.141 879.053 488.426 876.434 497.092 858.257C502.55 846.82 507.005 837.333 507.005 837.167C507.005 836.679 506.577 836.409 506.197 836.666Z" fill="#B7C5DC" fill-opacity="0.5"/>
<path d="M536.012 875.984C535.779 876.036 533.515 876.549 530.994 877.127C526.465 878.154 526.098 878.269 526.098 878.731C526.098 878.821 526.208 878.988 526.343 879.117C526.551 879.322 526.661 879.322 527.224 879.206C532.879 877.961 536.917 876.998 537.003 876.844C537.162 876.588 537.138 876.267 536.917 876.049C536.709 875.817 536.636 875.817 536.012 875.984Z" fill="#B7C5DC" fill-opacity="0.5"/>
<path d="M521.582 879.104C520.725 879.309 520.382 879.45 520.26 879.656C519.991 880.067 520.236 880.464 520.75 880.464C521.178 880.452 523.051 880.041 523.271 879.9C523.503 879.746 523.43 879.078 523.173 878.924C522.891 878.77 523.014 878.757 521.582 879.104Z" fill="#B7C5DC" fill-opacity="0.5"/>
<path d="M516.858 880.157C516.454 880.246 514.422 880.709 512.329 881.171C510.249 881.633 507.519 882.236 506.271 882.519C505.023 882.801 502.685 883.314 501.069 883.674C487.925 886.588 486.199 886.986 486.015 887.14C485.771 887.358 485.783 887.692 486.052 887.961C486.321 888.205 485.575 888.346 495.011 886.241C512.072 882.442 517.543 881.235 517.678 881.235C517.812 881.235 518.265 880.747 518.265 880.593C518.265 880.439 517.812 879.951 517.69 879.964C517.629 879.964 517.262 880.054 516.858 880.157Z" fill="#B7C5DC" fill-opacity="0.5"/>
<path d="M484.204 882.416C483.91 882.66 481.181 888.333 481.181 888.719C481.181 889.142 481.56 889.386 481.915 889.193C482.111 889.078 484.938 883.507 485.073 882.942C485.11 882.788 484.681 882.262 484.51 882.262C484.449 882.262 484.314 882.339 484.204 882.416Z" fill="#B7C5DC" fill-opacity="0.5"/>
<path d="M366.55 884.161C366.305 884.341 366.269 884.688 366.477 884.944C366.587 885.086 368.729 886.254 371.238 887.537C374.787 889.36 375.852 889.848 376.097 889.784C376.464 889.694 376.623 889.258 376.39 888.975C376.195 888.718 367.174 884.059 366.881 884.059C366.77 884.059 366.624 884.11 366.55 884.161Z" fill="#B7C5DC" fill-opacity="0.5"/>
<path d="M378.863 890.862C378.642 891.286 378.924 891.594 380.086 892.21C381.31 892.852 381.604 892.903 381.8 892.531C382.045 892.043 381.824 891.773 380.686 891.183C379.487 890.541 379.058 890.477 378.863 890.862Z" fill="#B7C5DC" fill-opacity="0.5"/>
<path d="M383.856 893.186C383.734 893.25 383.636 893.442 383.636 893.609C383.636 893.776 383.734 893.994 383.856 894.11C383.966 894.212 385.251 894.906 386.696 895.65C388.14 896.382 391.885 898.32 395.018 899.95C411.48 908.487 412.704 909.103 412.973 909.026C413.291 908.949 413.438 908.551 413.279 908.23C413.205 908.102 409.411 906.061 404.724 903.635C400.097 901.247 393.598 897.884 390.282 896.164C386.965 894.444 384.211 893.044 384.162 893.044C384.113 893.044 383.966 893.109 383.856 893.186Z" fill="#B7C5DC" fill-opacity="0.5"/>
<path d="M414.001 911.516C412.018 912.479 411.1 912.993 411.039 913.172C410.929 913.468 411.223 913.968 411.492 913.968C411.847 913.968 417.477 911.157 417.636 910.9C417.868 910.541 417.636 910.117 417.195 910.117C417.012 910.117 415.58 910.746 414.001 911.516Z" fill="#B7C5DC" fill-opacity="0.5"/>
<path d="M399.118 918.641C394.81 920.772 388.776 923.75 385.717 925.265C382.657 926.766 378.03 929.051 375.436 930.335C372.841 931.619 369.855 933.095 368.79 933.608C367.211 934.391 366.844 934.622 366.783 934.879C366.685 935.303 367.125 935.701 367.517 935.547C367.664 935.483 370.21 934.237 373.171 932.774C376.133 931.311 380.295 929.257 382.412 928.217C393.035 923.005 407.453 915.855 407.6 915.74C407.783 915.573 407.796 915.098 407.6 914.893C407.514 914.803 407.343 914.739 407.208 914.751C407.061 914.751 403.426 916.51 399.118 918.641Z" fill="#B7C5DC" fill-opacity="0.5"/>
<path d="M537.48 885.651C535.143 886.819 523.455 892.595 522.255 893.173C521.839 893.366 520.933 893.815 520.223 894.174C518.853 894.855 510.971 898.744 503.835 902.261C499.172 904.559 498.915 904.739 499.527 905.252C499.87 905.547 499.882 905.547 501.657 904.662C503.419 903.789 513.113 899.014 514.471 898.346C526.123 892.634 540.149 885.651 540.271 885.497C540.344 885.381 540.418 885.227 540.418 885.137C540.418 884.906 540.063 884.572 539.83 884.585C539.72 884.585 538.655 885.073 537.48 885.651Z" fill="#B7C5DC" fill-opacity="0.5"/>
<path d="M492.465 907.653C490.887 908.41 489.553 909.142 489.479 909.27C489.296 909.617 489.553 910.117 489.895 910.117C490.054 910.105 491.499 909.463 493.114 908.667C495.586 907.46 496.064 907.178 496.088 906.934C496.137 906.562 495.917 906.266 495.574 906.266C495.44 906.266 494.032 906.895 492.465 907.653Z" fill="#B7C5DC" fill-opacity="0.5"/>
<path d="M493.909 911.324C493.836 911.426 493.787 911.632 493.812 911.786C493.86 912.12 494.093 912.248 502.599 916.651C506.136 918.474 512.109 921.567 515.866 923.518C519.636 925.47 522.83 927.061 522.977 927.061C523.344 927.061 523.577 926.753 523.479 926.381C523.43 926.137 522.549 925.637 518.608 923.596C515.964 922.222 510.249 919.27 505.904 917.01C493.726 910.695 494.228 910.926 493.909 911.324Z" fill="#B7C5DC" fill-opacity="0.5"/>
<path d="M525.388 927.601C525.303 927.691 525.241 927.883 525.241 928.05C525.241 928.294 525.449 928.448 526.49 929C527.542 929.552 527.775 929.629 528.02 929.514C528.301 929.372 528.399 928.949 528.203 928.654C528.069 928.423 526.135 927.447 525.817 927.447C525.658 927.447 525.474 927.511 525.388 927.601Z" fill="#B7C5DC" fill-opacity="0.5"/>
<path d="M530.773 930.553C530.565 930.772 530.59 931.092 530.847 931.323C530.957 931.426 533.111 932.569 535.62 933.865C539.671 935.932 540.234 936.189 540.491 936.06C540.907 935.868 540.883 935.367 540.454 935.046C539.806 934.584 531.483 930.399 531.202 930.399C531.043 930.399 530.859 930.463 530.773 930.553Z" fill="#B7C5DC" fill-opacity="0.5"/>
<path d="M449.727 886.446C445.712 887.063 441.686 888.86 438.65 891.414C437.72 892.197 435.97 894.02 435.113 895.098C430.683 900.67 428.933 908.243 430.389 915.611C431.356 920.464 434.11 925.393 437.696 928.666C443.95 934.366 452.517 936.189 460.313 933.467C467.057 931.105 472.442 925.573 474.804 918.538C476.481 913.558 476.542 907.884 474.988 902.929C472.149 893.943 464.707 887.538 455.724 886.369C454.316 886.19 451.146 886.228 449.727 886.446ZM456.642 887.717C465.772 889.412 472.675 896.485 474.596 906.074C474.841 907.306 474.878 907.845 474.878 910.438C474.878 913.006 474.841 913.583 474.596 914.841C472.809 924.122 466.041 931.246 457.241 933.108C455.357 933.506 451.917 933.596 449.971 933.3C443.595 932.325 438.136 928.705 434.636 923.146C430.364 916.343 429.838 907.614 433.265 900.297C436.557 893.263 442.958 888.526 450.498 887.525C451.758 887.358 455.344 887.473 456.642 887.717Z" fill="#B7C5DC" fill-opacity="0.5"/>
<path d="M451.073 889.591C439.495 890.901 431.466 901.825 433.265 913.776C434.293 920.553 438.516 926.484 444.403 929.385C451.819 933.043 460.375 931.696 466.531 925.881C467.534 924.944 467.681 924.635 467.363 924.225L467.155 923.955L466.139 924.225C463.03 925.046 459.75 924.815 456.776 923.557C451.513 921.349 447.842 916.112 447.426 910.246C447.095 905.535 448.625 901.132 451.746 897.858C454.108 895.381 456.911 893.904 460.252 893.365C460.889 893.263 461.672 893.173 461.99 893.173C462.443 893.173 462.602 893.109 462.749 892.89C463.03 892.48 462.798 892.172 461.831 891.671C458.686 890.015 454.475 889.193 451.073 889.591ZM456.886 891.106C458.343 891.466 459.934 892.018 459.799 892.133C459.75 892.184 459.261 892.338 458.722 892.467C450.339 894.444 444.978 903.019 446.495 912.043C447.352 917.126 450.583 921.67 455.026 924.032C457.596 925.406 459.42 925.842 462.553 925.842H464.793L464.45 926.137C463.765 926.715 462.48 927.562 461.403 928.127C456.421 930.746 450.571 930.913 445.467 928.576C439.421 925.804 435.162 919.86 434.293 912.98C434.11 911.516 434.22 907.935 434.489 906.664C435.101 903.814 436.178 901.17 437.622 899.013C438.589 897.576 440.645 895.406 441.979 894.418C443.117 893.571 445.125 892.441 446.324 891.966C447.279 891.581 448.821 891.157 450.094 890.914C451.501 890.657 455.454 890.76 456.886 891.106Z" fill="#B7C5DC" fill-opacity="0.5"/>
<path d="M424.967 931.195C424.49 932.004 422.066 937.126 422.066 937.318C422.066 937.78 422.74 938.05 423.021 937.678C423.303 937.318 425.983 931.696 425.983 931.465C425.983 930.887 425.261 930.707 424.967 931.195Z" fill="#B7C5DC" fill-opacity="0.5"/>
<path d="M418.762 932.453C417.318 932.787 416.106 933.056 406.951 935.084C404.871 935.547 402.521 936.073 401.75 936.24C400.978 936.419 398.641 936.933 396.548 937.395C391.322 938.55 389.449 938.987 389.217 939.077C388.948 939.179 388.862 939.577 389.021 939.911C389.217 940.27 389.033 940.309 395.997 938.743C399.192 938.037 403.218 937.138 404.932 936.753C409.007 935.855 411.859 935.226 416.498 934.186C418.59 933.724 420.451 933.3 420.634 933.262C420.94 933.197 421.332 932.8 421.332 932.556C421.332 932.35 420.916 932.068 420.622 932.081C420.439 932.081 419.606 932.248 418.762 932.453Z" fill="#B7C5DC" fill-opacity="0.5"/>
<path d="M385.41 939.86C383.942 940.219 383.77 940.283 383.697 940.54C383.575 940.925 383.844 941.31 384.223 941.31C384.737 941.297 386.561 940.848 386.757 940.668C387.014 940.437 386.989 939.937 386.708 939.77C386.414 939.616 386.353 939.616 385.41 939.86Z" fill="#B7C5DC" fill-opacity="0.5"/>
<path d="M379.781 941.002C379.67 941.041 378.055 941.413 372.388 942.671C371.274 942.915 370.295 943.185 370.21 943.262C369.989 943.454 370.051 944.006 370.32 944.173C370.467 944.276 371.727 944.045 375.264 943.249C377.883 942.658 380.209 942.119 380.454 942.029C381.2 941.786 381.066 940.913 380.282 940.938C380.074 940.938 379.854 940.964 379.781 941.002Z" fill="#B7C5DC" fill-opacity="0.5"/>
<path d="M420.035 941.156C419.949 941.208 415.421 950.63 409.95 962.093C401.187 980.488 400.036 982.978 400.146 983.248C400.244 983.466 400.379 983.543 400.648 983.543C401.015 983.543 401.027 983.504 411.002 962.594C419.814 944.122 420.965 941.618 420.855 941.349C420.72 941.054 420.316 940.951 420.035 941.156Z" fill="#B7C5DC" fill-opacity="0.5"/>
<path d="M483.335 934.199C483.09 934.456 483.09 934.815 483.323 935.02C483.494 935.175 488.537 936.381 489.589 936.522C490.017 936.587 490.115 936.548 490.238 936.317C490.434 935.919 490.287 935.572 489.834 935.418C489.479 935.303 483.751 933.994 483.592 933.994C483.555 933.994 483.433 934.083 483.335 934.199Z" fill="#B7C5DC" fill-opacity="0.5"/>
<path d="M493.934 936.715C493.848 936.805 493.787 936.997 493.787 937.151C493.787 937.703 493.065 937.511 504.007 939.898C506.565 940.463 510.114 941.233 511.901 941.631C513.688 942.029 516.05 942.543 517.164 942.786C519.281 943.249 529.672 945.533 534.176 946.522C537.529 947.266 537.75 947.292 537.958 947.035C538.215 946.702 538.031 946.227 537.578 946.073C537.358 945.996 536.097 945.713 534.788 945.431C533.478 945.148 529.623 944.301 526.22 943.557C518.302 941.811 515.45 941.195 511.901 940.412C510.322 940.065 507.568 939.462 505.781 939.064C503.994 938.666 501.632 938.152 500.519 937.909C499.405 937.665 497.581 937.267 496.443 937.023C494.13 936.509 494.13 936.509 493.934 936.715Z" fill="#B7C5DC" fill-opacity="0.5"/>
<path d="M485.526 938.794C485.33 939.09 485.526 939.513 492.453 953.98C496.37 962.157 499.686 969.012 499.821 969.204C499.992 969.474 500.139 969.551 500.372 969.525C501.167 969.423 501.412 969.987 493.738 953.98C489.773 945.701 486.456 938.833 486.346 938.705C486.089 938.396 485.746 938.435 485.526 938.794Z" fill="#B7C5DC" fill-opacity="0.5"/>
<path d="M501.314 971.605C501.094 971.862 501.094 971.9 501.693 973.158C502.024 973.877 502.391 974.506 502.513 974.583C502.771 974.724 503.334 974.403 503.334 974.121C503.334 973.89 502.379 971.874 502.134 971.566C501.889 971.271 501.583 971.284 501.314 971.605Z" fill="#B7C5DC" fill-opacity="0.5"/>
<path d="M503.97 977.279C503.897 977.356 503.823 977.548 503.823 977.689C503.823 977.959 508.266 987.189 508.572 987.548C508.927 987.984 509.465 987.741 509.441 987.137C509.441 986.958 508.376 984.647 507.091 982.003C505.01 977.741 504.704 977.189 504.435 977.15C504.264 977.125 504.056 977.189 503.97 977.279Z" fill="#B7C5DC" fill-opacity="0.5"/>
<path d="M464.817 947.356C464.218 947.587 464.438 947.998 466.629 950.822C467.999 952.581 468.783 953.505 468.942 953.505C469.248 953.505 469.578 953.146 469.529 952.85C469.48 952.568 465.601 947.523 465.295 947.369C465.185 947.292 464.964 947.292 464.817 947.356Z" fill="#B7C5DC" fill-opacity="0.5"/>
<path d="M464.511 953.146C464.352 953.274 464.169 954.378 463.618 958.768C462.639 966.573 461.904 972.388 461.354 976.739C460.546 983.094 460.13 986.47 460.13 986.791C460.13 986.97 460.215 987.176 460.313 987.265C460.534 987.458 461.06 987.342 461.158 987.073C461.195 986.97 461.611 983.774 462.088 979.987C462.565 976.187 463.202 971.168 463.496 968.845C463.789 966.509 464.34 962.106 464.732 959.05C465.246 955.02 465.405 953.415 465.307 953.274C465.148 952.992 464.768 952.94 464.511 953.146Z" fill="#B7C5DC" fill-opacity="0.5"/>
<path d="M471.488 956.342C470.937 956.663 470.888 956.586 477.558 965.058C478.317 966.008 483.543 972.67 489.185 979.859C494.815 987.034 499.539 992.978 499.674 993.042C500.041 993.26 500.421 992.978 500.372 992.528C500.347 992.272 496.541 987.342 486.444 974.467C478.807 964.737 472.43 956.65 472.283 956.483C471.989 956.175 471.806 956.137 471.488 956.342Z" fill="#B7C5DC" fill-opacity="0.5"/>
<path d="M459.836 989.73C459.567 990.179 459.322 992.477 459.518 992.721C459.714 992.965 460.179 992.965 460.362 992.734C460.436 992.644 460.57 991.976 460.656 991.258C460.803 990.154 460.791 989.91 460.656 989.704C460.423 989.358 460.056 989.383 459.836 989.73Z" fill="#B7C5DC" fill-opacity="0.5"/>
<path d="M458.918 996.033C458.845 996.136 458.563 997.997 458.294 1000.18C458.025 1002.36 457.731 1004.77 457.633 1005.54C457.511 1006.48 457.498 1007.03 457.572 1007.19C457.706 1007.44 458.343 1007.51 458.49 1007.28C458.575 1007.12 459.016 1003.76 459.579 999.05C459.848 996.79 459.885 996.213 459.763 996.059C459.579 995.815 459.102 995.802 458.918 996.033Z" fill="#B7C5DC" fill-opacity="0.5"/>
<path d="M442.273 948.717C442.126 949.012 442.799 955.623 442.995 955.88C443.215 956.149 443.693 956.111 443.852 955.816C443.987 955.546 443.448 949.333 443.24 948.781C443.093 948.422 442.457 948.383 442.273 948.717Z" fill="#B7C5DC" fill-opacity="0.5"/>
<path d="M438.148 951.682C438.075 951.734 436.704 953.48 435.089 955.559C433.473 957.639 430.781 961.105 429.116 963.261C427.439 965.418 424.22 969.564 421.956 972.478C417.721 977.946 417.464 978.344 418.015 978.652C418.15 978.729 418.346 978.755 418.444 978.716C418.676 978.627 418.872 978.37 430.34 963.582C435.052 957.497 438.944 952.44 438.981 952.324C439.152 951.888 438.528 951.4 438.148 951.682Z" fill="#B7C5DC" fill-opacity="0.5"/>
<path d="M443.35 960.001C443.264 960.116 443.203 960.412 443.215 960.668C443.24 960.938 444.317 971.4 445.627 983.928C448.123 1007.78 448.038 1007.03 448.576 1007.03C448.784 1007.03 449.115 1006.67 449.115 1006.44C449.115 1006.34 448.564 1000.99 447.891 994.544C446.814 984.339 445.822 974.763 444.623 963.39C444.292 960.181 444.195 959.795 443.729 959.795C443.607 959.795 443.448 959.885 443.35 960.001Z" fill="#B7C5DC" fill-opacity="0.5"/>
<path d="M416.094 980.167C415.825 980.282 414.356 982.272 414.356 982.516C414.356 982.785 414.662 983.158 414.894 983.158C414.98 983.158 415.127 983.081 415.237 982.991C415.506 982.76 416.926 980.847 416.926 980.706C416.926 980.565 416.473 980.077 416.351 980.09C416.29 980.09 416.18 980.128 416.094 980.167Z" fill="#B7C5DC" fill-opacity="0.5"/>
<path d="M411.92 985.301C411.724 985.507 410.721 986.752 409.693 988.1C408.677 989.435 407.318 991.206 406.694 992.015C405.629 993.401 405.495 993.645 405.531 994.03C405.556 994.287 406.009 994.48 406.254 994.338C406.657 994.107 412.826 985.995 412.863 985.635C412.887 985.417 412.826 985.224 412.691 985.122C412.385 984.891 412.324 984.904 411.92 985.301Z" fill="#B7C5DC" fill-opacity="0.5"/>
</g>
<g filter="url(#filter1_f_103_3)">
<path d="M861.241 1397.21C849.159 1397.21 839.33 1385.67 839.33 1371.49C839.33 1357.32 849.159 1345.78 861.241 1345.78C872.942 1345.78 882.556 1356.52 883.129 1370.22C883.225 1372.52 881.763 1374.47 879.864 1374.59C877.967 1374.72 876.346 1372.94 876.25 1370.64C875.864 1361.37 869.27 1354.11 861.241 1354.11C852.958 1354.11 846.218 1361.91 846.218 1371.49C846.218 1381.08 852.958 1388.88 861.241 1388.88C866.048 1388.88 870.451 1386.31 873.32 1381.84C874.485 1380.02 876.648 1379.69 878.152 1381.1C879.655 1382.5 879.928 1385.12 878.764 1386.94C874.58 1393.46 868.194 1397.21 861.241 1397.21Z" fill="#B7C5DC" fill-opacity="0.5"/>
<path d="M858.44 1385.17C850.293 1385.17 843.198 1379 841.184 1370.16C840.932 1369.05 841.47 1367.91 842.387 1367.6C843.307 1367.3 844.252 1367.95 844.505 1369.05C846.106 1376.09 851.838 1381.01 858.44 1381.01C866.361 1381.01 872.805 1373.92 872.805 1365.2C872.805 1360.85 871.228 1356.8 868.364 1353.78C867.646 1353.03 867.571 1351.71 868.194 1350.85C868.819 1349.98 869.906 1349.89 870.624 1350.64C874.198 1354.4 876.248 1359.71 876.248 1365.2C876.248 1376.21 868.26 1385.17 858.44 1385.17Z" fill="#B7C5DC" fill-opacity="0.5"/>
<path d="M923.997 1397.21C911.915 1397.21 902.086 1385.67 902.086 1371.49C902.086 1357.32 911.915 1345.78 923.997 1345.78C935.698 1345.78 945.312 1356.52 945.885 1370.22C945.982 1372.52 944.519 1374.47 942.619 1374.59C940.752 1374.72 939.101 1372.94 939.006 1370.64C938.619 1361.37 932.026 1354.11 923.997 1354.11C915.714 1354.11 908.974 1361.91 908.974 1371.49C908.974 1381.08 915.714 1388.88 923.997 1388.88C928.805 1388.88 933.207 1386.31 936.077 1381.84C937.243 1380.02 939.406 1379.69 940.909 1381.1C942.412 1382.51 942.686 1385.12 941.521 1386.94C937.337 1393.46 930.949 1397.21 923.997 1397.21Z" fill="#B7C5DC" fill-opacity="0.5"/>
<path d="M921.197 1385.17C913.049 1385.17 905.953 1379 903.941 1370.16C903.689 1369.05 904.227 1367.91 905.143 1367.6C906.063 1367.3 907.008 1367.95 907.261 1369.05C908.863 1376.09 914.594 1381.01 921.197 1381.01C929.117 1381.01 935.561 1373.92 935.561 1365.2C935.561 1360.85 933.983 1356.79 931.12 1353.78C930.403 1353.03 930.326 1351.71 930.951 1350.85C931.574 1349.98 932.66 1349.88 933.38 1350.64C936.954 1354.4 939.005 1359.71 939.005 1365.2C939.005 1376.21 931.016 1385.17 921.197 1385.17Z" fill="#B7C5DC" fill-opacity="0.5"/>
<path d="M902.863 1429.39C895.819 1429.39 891.248 1425.42 890.638 1418.77C889.994 1411.76 894.943 1399.58 899.79 1393.03C902.518 1389.35 905.176 1387.47 907.691 1387.47C909.624 1387.47 911.362 1388.57 912.584 1390.56C917.117 1397.92 921.993 1416.03 920.2 1421.91C918.631 1427.06 911.632 1428.68 905.972 1429.14C905.514 1429.22 904.347 1429.39 902.863 1429.39ZM907.312 1395.95C904.081 1397.7 896.964 1412.2 897.484 1417.85C897.68 1419.98 899.489 1421.06 902.864 1421.06C904.109 1421.06 905.038 1420.89 905.047 1420.88C905.153 1420.86 905.273 1420.85 905.381 1420.84C908.75 1420.58 912.503 1419.6 913.742 1418.71C913.87 1415.24 911.177 1402.59 907.312 1395.95Z" fill="#B7C5DC" fill-opacity="0.5"/>
<path d="M908.885 1426.63C908.564 1426.63 908.24 1426.52 907.951 1426.3C907.548 1425.98 898.067 1418.4 896.553 1403.05C896.439 1401.91 897.114 1400.88 898.058 1400.74C899 1400.6 899.859 1401.42 899.971 1402.56C901.297 1415.99 909.736 1422.74 909.821 1422.8C910.621 1423.43 910.848 1424.71 910.332 1425.68C910.002 1426.3 909.448 1426.63 908.885 1426.63Z" fill="#B7C5DC" fill-opacity="0.5"/>
<path d="M891.761 1474.78C871.181 1474.78 851.521 1465.02 850.665 1464.6C849.365 1463.94 848.526 1462.4 848.541 1460.7C848.68 1446.39 847.812 1424.03 845.446 1419.11C844.49 1417.12 845.048 1414.57 846.693 1413.41C848.34 1412.26 850.446 1412.93 851.402 1414.92C855.113 1422.64 855.457 1448.03 855.444 1457.89C861.218 1460.45 877.754 1467 893.916 1466.41C909.652 1465.82 921.727 1458.42 926.008 1455.42L923.613 1424.94C923.505 1423.56 923.975 1422.2 924.867 1421.32C925.89 1420.31 935.051 1411.43 941.687 1409.62C945.055 1408.7 950.841 1400.3 948.634 1375.14C947.254 1359.4 942.632 1351.7 938.919 1345.51C936.663 1341.75 934.715 1338.51 933.928 1334.38C933.502 1332.14 934.658 1329.9 936.513 1329.39C938.354 1328.87 940.213 1330.27 940.641 1332.51C941.113 1334.99 942.604 1337.47 944.493 1340.62C948.467 1347.24 953.908 1356.31 955.484 1374.26C958.017 1403.15 950.803 1415.66 943.207 1417.74C939.57 1418.74 933.808 1423.53 930.647 1426.43L933.067 1457.21C933.186 1458.72 932.619 1460.18 931.585 1461.04C930.952 1461.57 915.805 1473.92 894.129 1474.73C893.339 1474.76 892.548 1474.78 891.761 1474.78Z" fill="#B7C5DC" fill-opacity="0.5"/>
<path d="M874.53 1434.27C873.458 1434.27 872.402 1433.66 871.729 1432.53C871.624 1432.36 866.936 1424.69 860.411 1422.75C859.055 1422.35 856.799 1422.13 854.188 1421.87C843.561 1420.81 823.781 1418.85 822.556 1396.19C821.626 1379.06 826.62 1365.88 831.026 1354.24C833.126 1348.7 835.109 1343.46 836.32 1338.22C836.831 1336 838.733 1334.71 840.563 1335.33C842.395 1335.94 843.465 1338.24 842.955 1340.46C841.598 1346.33 839.506 1351.86 837.289 1357.71C833.023 1368.97 828.612 1380.62 829.428 1395.64C830.204 1409.95 841.849 1412.28 854.753 1413.56C857.656 1413.85 860.164 1414.1 862.052 1414.66C871.131 1417.35 877.078 1427.25 877.326 1427.67C878.434 1429.54 878.077 1432.15 876.531 1433.49C875.923 1434.01 875.223 1434.27 874.53 1434.27Z" fill="#B7C5DC" fill-opacity="0.5"/>
<path d="M829.419 1412.64C824.48 1412.64 819.851 1409.47 815.965 1403.41C805.904 1387.72 801.425 1351.59 812.335 1312.91C818.118 1292.41 831.549 1277.07 850.154 1269.72C874.073 1260.27 903.514 1265.25 923.417 1282.1C957.315 1310.79 951.461 1353.97 951.193 1355.79C950.864 1358.06 949.074 1359.56 947.204 1359.17C945.332 1358.77 944.082 1356.61 944.409 1354.35C944.647 1352.68 949.658 1314.48 919.466 1288.92C901.249 1273.5 874.252 1268.97 852.293 1277.64C840.622 1282.25 825.347 1292.57 818.854 1315.6C808.729 1351.49 812.475 1384.37 821.407 1398.3C823.277 1401.22 826.273 1404.63 829.975 1404.28C831.86 1404.1 833.527 1405.82 833.673 1408.11C833.818 1410.4 832.401 1412.41 830.504 1412.58C830.143 1412.62 829.78 1412.64 829.419 1412.64Z" fill="#B7C5DC" fill-opacity="0.5"/>
<path d="M863.357 1467.44C862.406 1467.44 861.635 1466.5 861.635 1465.35V1446.21C861.635 1445.06 862.406 1444.13 863.357 1444.13C864.308 1444.13 865.079 1445.06 865.079 1446.21V1465.35C865.079 1466.5 864.309 1467.44 863.357 1467.44Z" fill="#B7C5DC" fill-opacity="0.5"/>
<path d="M874.526 1471.1C873.575 1471.1 872.804 1470.17 872.804 1469.02V1449.88C872.804 1448.73 873.575 1447.8 874.526 1447.8C875.477 1447.8 876.248 1448.73 876.248 1449.88V1469.02C876.248 1470.17 875.478 1471.1 874.526 1471.1Z" fill="#B7C5DC" fill-opacity="0.5"/>
<path d="M885.695 1472.69C884.744 1472.69 883.973 1471.76 883.973 1470.61V1451.47C883.973 1450.32 884.744 1449.39 885.695 1449.39C886.646 1449.39 887.417 1450.32 887.417 1451.47V1470.61C887.417 1471.76 886.647 1472.69 885.695 1472.69Z" fill="#B7C5DC" fill-opacity="0.5"/>
<path d="M897.688 1472.69C896.737 1472.69 895.966 1471.76 895.966 1470.61V1451.47C895.966 1450.32 896.737 1449.39 897.688 1449.39C898.639 1449.39 899.41 1450.32 899.41 1451.47V1470.61C899.41 1471.76 898.64 1472.69 897.688 1472.69Z" fill="#B7C5DC" fill-opacity="0.5"/>
<path d="M907.761 1470.47C906.811 1470.47 906.039 1469.54 906.039 1468.39V1449.24C906.039 1448.09 906.811 1447.16 907.761 1447.16C908.712 1447.16 909.483 1448.09 909.483 1449.24V1468.39C909.483 1469.54 908.712 1470.47 907.761 1470.47Z" fill="#B7C5DC" fill-opacity="0.5"/>
<path d="M917.834 1467.44C916.883 1467.44 916.112 1466.5 916.112 1465.35V1446.21C916.112 1445.06 916.883 1444.13 917.834 1444.13C918.785 1444.13 919.556 1445.06 919.556 1446.21V1465.35C919.556 1466.5 918.785 1467.44 917.834 1467.44Z" fill="#B7C5DC" fill-opacity="0.5"/>
</g>
<g filter="url(#filter2_f_103_3)">
<path d="M248.155 578.311C247.678 578.311 247.24 577.927 247.011 577.309L236.868 549.886L218.321 534.89C217.902 534.552 217.643 533.903 217.643 533.198C217.643 532.496 217.902 531.846 218.321 531.509L236.868 516.513L247.011 489.09C247.24 488.472 247.678 488.088 248.155 488.088C248.631 488.088 249.069 488.472 249.299 489.09L259.442 516.513L277.988 531.509C278.406 531.845 278.666 532.496 278.666 533.198C278.666 533.903 278.406 534.55 277.988 534.89L259.442 549.886L249.299 577.309C249.069 577.927 248.63 578.311 248.155 578.311ZM221.663 533.198L238.454 546.777C238.673 546.953 238.853 547.219 238.973 547.542L248.155 572.369L257.337 547.542C257.457 547.219 257.636 546.953 257.856 546.777L274.646 533.198L257.856 519.622C257.636 519.446 257.457 519.18 257.337 518.857L248.155 494.03L238.973 518.857C238.853 519.18 238.673 519.446 238.454 519.622L221.663 533.198Z" fill="#B7C5DC" fill-opacity="0.5"/>
<path d="M227.502 565.663C227.161 565.663 226.828 565.465 226.58 565.099C226.243 564.6 226.117 563.869 226.251 563.194L232.191 533.199L226.251 503.206C226.117 502.532 226.243 501.801 226.58 501.301C226.917 500.805 227.407 500.616 227.868 500.814L248.155 509.601L268.441 500.814C268.9 500.616 269.392 500.804 269.73 501.301C270.066 501.8 270.192 502.531 270.059 503.206L264.117 533.199L270.059 563.194C270.192 563.868 270.066 564.599 269.73 565.099C269.393 565.595 268.901 565.783 268.441 565.585L248.155 556.801L227.868 565.585C227.747 565.638 227.624 565.663 227.502 565.663ZM229.422 505.503L234.801 532.66C234.872 533.011 234.872 533.387 234.801 533.741L229.422 560.896L247.789 552.946C248.028 552.84 248.282 552.84 248.522 552.946L266.887 560.896L261.509 533.741C261.438 533.387 261.438 533.01 261.509 532.657L266.887 505.503L248.522 513.457C248.282 513.56 248.028 513.56 247.789 513.457L229.422 505.503Z" fill="#B7C5DC" fill-opacity="0.5"/>
<path d="M292.714 608.387H201.286C199.846 608.387 198.679 606.66 198.679 604.532V585.694C198.679 583.567 199.846 581.841 201.286 581.841H292.714C294.154 581.841 295.321 583.567 295.321 585.694V604.532C295.321 606.66 294.154 608.387 292.714 608.387ZM203.892 600.679H290.107V589.548H203.892V600.679Z" fill="#B7C5DC" fill-opacity="0.5"/>
<path d="M285.095 589.549H208.904C207.464 589.549 206.298 587.823 206.298 585.695V483.368C206.298 481.241 207.464 479.515 208.904 479.515H285.095C286.534 479.515 287.702 481.241 287.702 483.368V585.694C287.702 587.823 286.534 589.549 285.095 589.549ZM211.511 581.841H282.488V487.223H211.511V581.841Z" fill="#B7C5DC" fill-opacity="0.5"/>
<path d="M294.393 487.223H199.606C198.166 487.223 197 485.496 197 483.368V468.382C197 466.256 198.166 464.529 199.606 464.529H294.393C295.833 464.529 297 466.256 297 468.382V483.368C297 485.497 295.834 487.223 294.393 487.223ZM202.213 479.515H291.787V472.237H202.213V479.515Z" fill="#B7C5DC" fill-opacity="0.5"/>
<path d="M285.095 472.237H208.904C207.808 472.237 206.828 471.223 206.454 469.697C206.08 468.175 206.391 466.468 207.232 465.427L245.327 418.332C246.297 417.135 247.703 417.135 248.672 418.332L286.767 465.427C287.608 466.469 287.919 468.175 287.545 469.697C287.171 471.222 286.191 472.237 285.095 472.237ZM216.085 464.529H277.914L247 426.311L216.085 464.529Z" fill="#B7C5DC" fill-opacity="0.5"/>
<path d="M270.697 627.224H223.304C222.668 627.224 222.053 626.878 221.577 626.256L207.177 607.418C206.366 606.357 206.084 604.663 206.467 603.165C206.852 601.667 207.821 600.679 208.905 600.679H285.095C286.179 600.679 287.149 601.667 287.533 603.165C287.917 604.663 287.635 606.357 286.823 607.418L272.425 626.256C271.947 626.878 271.333 627.224 270.697 627.224ZM224.292 619.517H269.709L278.217 608.388H215.784L224.292 619.517Z" fill="#B7C5DC" fill-opacity="0.5"/>
<path d="M269.587 589.549H224.413C222.974 589.549 221.807 587.823 221.807 585.695V483.368C221.807 481.241 222.974 479.515 224.413 479.515H269.587C271.027 479.515 272.193 481.241 272.193 483.368V585.694C272.193 587.823 271.027 589.549 269.587 589.549ZM227.02 581.841H266.981V487.223H227.02V581.841Z" fill="#B7C5DC" fill-opacity="0.5"/>
<path d="M269.587 472.237H224.413C223.439 472.237 222.544 471.433 222.098 470.154C221.649 468.872 221.724 467.33 222.287 466.155L244.874 419.059C245.362 418.039 246.155 417.434 247 417.434C247.845 417.434 248.638 418.039 249.126 419.059L271.714 466.155C272.278 467.33 272.351 468.872 271.902 470.154C271.455 471.433 270.561 472.237 269.587 472.237ZM229.456 464.529H264.544L247 427.953L229.456 464.529Z" fill="#B7C5DC" fill-opacity="0.5"/>
<path d="M261.049 627.224H232.949C232.08 627.224 231.268 626.582 230.784 625.516L222.247 606.677C221.712 605.493 221.66 603.972 222.114 602.715C222.567 601.461 223.451 600.679 224.413 600.679H269.587C270.549 600.679 271.433 601.462 271.886 602.715C272.339 603.972 272.288 605.495 271.753 606.677L263.215 625.516C262.731 626.582 261.919 627.224 261.049 627.224ZM234.341 619.517H259.659L264.703 608.388H229.297L234.341 619.517Z" fill="#B7C5DC" fill-opacity="0.5"/>
<path d="M269.587 487.223C268.147 487.223 266.981 485.496 266.981 483.368V468.382C266.981 466.256 268.147 464.529 269.587 464.529C271.027 464.529 272.193 466.256 272.193 468.382V483.368C272.193 485.497 271.027 487.223 269.587 487.223Z" fill="#B7C5DC" fill-opacity="0.5"/>
<path d="M224.413 487.223C222.974 487.223 221.807 485.496 221.807 483.368V468.382C221.807 466.256 222.974 464.529 224.413 464.529C225.853 464.529 227.02 466.256 227.02 468.382V483.368C227.02 485.497 225.853 487.223 224.413 487.223Z" fill="#B7C5DC" fill-opacity="0.5"/>
<path d="M269.587 608.387C268.147 608.387 266.981 606.66 266.981 604.532V585.265C266.981 583.138 268.147 581.412 269.587 581.412C271.027 581.412 272.193 583.138 272.193 585.265V604.532C272.193 606.66 271.027 608.387 269.587 608.387Z" fill="#B7C5DC" fill-opacity="0.5"/>
<path d="M224.413 608.387C222.974 608.387 221.807 606.66 221.807 604.532V585.265C221.807 583.138 222.974 581.412 224.413 581.412C225.853 581.412 227.02 583.138 227.02 585.265V604.532C227.02 606.66 225.853 608.387 224.413 608.387Z" fill="#B7C5DC" fill-opacity="0.5"/>
</g>
<g filter="url(#filter3_f_103_3)">
<path d="M442.31 185.615C441.614 185.615 440.92 185.502 440.248 185.275C434.214 183.228 430.921 170.725 430.461 148.11C429.941 122.609 430.855 94.5191 431.01 90.0771C428.638 86.4174 424.603 81.2422 422.336 80.2316C418.861 78.685 415.049 78.6425 415.011 78.6425C413.67 78.6425 412.489 77.9415 412.118 76.9246C411.747 75.907 412.272 74.8184 413.408 74.2544C413.763 74.0781 422.206 69.9813 430.249 73.9861C430.297 74.0089 430.344 74.033 430.39 74.0559C429.957 61.381 428.231 32.5364 425.819 29.0695C420.938 24.5019 426.486 16.1808 427.138 15.2419C427.299 15.0097 427.508 14.801 427.757 14.624C429.043 13.7048 440.588 5.6913 449.848 7.58112C456.154 8.87081 459.188 12.2165 460.436 14.0962C461.992 16.4396 462.418 18.9188 461.575 20.7267C460.587 23.0759 457.781 46.1489 457.5 64.9138C457.357 74.4663 456.134 102.963 454.299 129.503C450.73 181.108 447.927 183.139 446.421 184.23C445.163 185.143 443.734 185.615 442.31 185.615ZM429.758 79.4634C433.085 82.8154 435.996 87.31 436.738 88.488C436.957 88.8369 437.064 89.2239 437.05 89.6134C437.038 89.9186 435.92 120.5 436.483 148.032C436.951 171.039 440.518 179.017 442.271 180.645C446.442 172.394 451.109 89.4732 451.477 64.858C451.756 46.2935 454.53 22.0767 455.924 19.0875C456.056 18.802 456.033 17.7052 455.102 16.3013C454.317 15.1188 452.394 13.0108 448.338 12.1817C443.363 11.1654 435.198 15.8173 432.185 17.8765C430.449 20.5523 428.948 24.67 430.441 26.0238C431.516 26.9982 433.52 28.8132 435.266 52.9596C436.025 63.4618 436.418 73.9246 436.502 77.623C439.172 79.4456 440.495 80.7714 440.581 80.8577C441.603 81.893 441.367 83.3851 440.055 84.1926C438.744 84.9964 436.857 84.8137 435.834 83.7828C435.763 83.7124 433.791 81.789 429.758 79.4634Z" fill="#B7C5DC" fill-opacity="0.5"/>
<path d="M434.881 75.3773C434.871 75.3773 434.861 75.3773 434.85 75.3761C434.019 75.3634 433.36 74.8222 433.375 74.1669C433.38 73.9842 433.508 69.6241 435.537 63.0697C437.652 56.2362 441.084 35.4393 439.877 31.2854C434.828 33.016 428.045 29.0118 427.248 28.5239C426.592 28.1218 426.473 27.377 426.981 26.8581C427.489 26.3398 428.433 26.244 429.092 26.6443C430.917 27.7564 436.272 30.3351 439.107 28.9274C439.911 28.5252 440.821 28.529 441.539 28.9369C442.466 29.4647 444.194 30.4449 442.124 45.1035C441.049 52.7154 439.387 60.6483 438.462 63.6331C436.519 69.9109 436.387 74.1708 436.386 74.2133C436.368 74.8616 435.697 75.3773 434.881 75.3773Z" fill="#B7C5DC" fill-opacity="0.5"/>
<path d="M441.498 174.601C440.858 174.601 439.995 174.388 439.226 173.477C436.931 170.767 437.611 167.636 438.554 163.303C439.449 159.187 440.676 153.548 439.735 145.835C438.768 137.897 436.923 129.04 435.439 121.921C433.974 114.89 432.816 109.337 432.913 106.849C432.938 106.192 433.659 105.675 434.464 105.697C435.295 105.718 435.948 106.267 435.922 106.922C435.834 109.18 437.028 114.906 438.41 121.536C439.9 128.689 441.755 137.592 442.732 145.608C443.712 153.638 442.445 159.456 441.522 163.705C440.699 167.484 440.145 170.031 441.548 171.929C443.921 168.95 446.682 152.501 446.17 145.977C445.894 142.474 443.845 131.416 441.863 120.72C439.698 109.048 437.655 98.0221 437.459 94.6567C437.16 89.5183 442.094 65.0699 445.359 48.8913C446.281 44.3219 447.077 40.376 447.508 38.0694C449.287 28.5658 443.888 22.9515 443.833 22.8963C443.323 22.378 443.442 21.6308 444.099 21.2292C444.756 20.827 445.7 20.9215 446.211 21.4379C446.466 21.698 452.452 27.9194 450.488 38.4171C450.054 40.737 449.256 44.6892 448.333 49.2662C445.285 64.3721 440.183 89.6541 440.466 94.5483C440.657 97.7957 442.785 109.275 444.842 120.376C446.926 131.615 448.893 142.23 449.176 145.83C449.519 150.199 447.509 173.102 442.232 174.507C442.062 174.552 441.805 174.601 441.498 174.601Z" fill="#B7C5DC" fill-opacity="0.5"/>
<path d="M449.372 120.718C448.672 120.718 448.046 120.331 447.898 119.769C447.844 119.557 442.417 98.3894 445.066 81.2345C445.514 78.3373 446.116 74.7778 446.811 70.6568C449.754 53.252 455.23 20.8542 451.281 17.3556C448.393 14.7952 440.73 16.3146 437.171 18.5482C436.478 18.984 434.942 20.0796 435.641 20.8593C435.976 21.2323 436.206 21.4118 436.334 21.4943C436.597 21.3217 437.018 20.9113 437.34 20.5979C438.591 19.3793 440.48 17.5364 443.913 17.3277C444.738 17.2826 445.466 17.7667 445.53 18.4214C445.593 19.0754 444.972 19.6463 444.144 19.6977C442.005 19.8271 440.822 20.9785 439.681 22.0919C438.739 23.0111 437.751 23.962 436.255 23.9221C434.832 23.8865 433.822 22.9413 433.186 22.2327C431.669 20.544 432.458 18.4721 435.297 16.6889C439.895 13.8024 449.283 12.011 453.53 15.7747C458.032 19.7631 454.502 43.1317 449.797 70.9708C449.103 75.0854 448.501 78.6373 448.057 81.5225C445.467 98.2961 450.795 119.082 450.85 119.291C451.017 119.933 450.492 120.561 449.678 120.693C449.574 120.709 449.472 120.718 449.372 120.718Z" fill="#B7C5DC" fill-opacity="0.5"/>
</g>
<g filter="url(#filter4_f_103_3)">
<path d="M909.997 498.203C901.151 498.203 892.559 495.537 885.153 490.491C884.228 489.863 883.96 488.557 884.554 487.578C885.149 486.597 886.382 486.315 887.306 486.944C894.07 491.55 901.916 493.986 909.997 493.986C918.077 493.986 925.924 491.55 932.689 486.944C933.614 486.314 934.846 486.597 935.441 487.578C936.036 488.557 935.767 489.863 934.843 490.491C927.433 495.537 918.842 498.203 909.997 498.203Z" fill="#B7C5DC" fill-opacity="0.5"/>
<path d="M868.652 435.594C868.424 435.594 868.193 435.552 867.968 435.465C866.936 435.065 866.404 433.855 866.782 432.76C873.181 414.216 889.343 401.676 907.954 400.813C909.047 400.767 909.982 401.664 910.03 402.827C910.078 403.991 909.226 404.976 908.127 405.027C891.129 405.815 876.368 417.269 870.522 434.208C870.227 435.062 869.463 435.594 868.652 435.594Z" fill="#B7C5DC" fill-opacity="0.5"/>
<path d="M882.571 488.047C882.136 488.047 881.698 487.896 881.331 487.586C870.316 478.28 863.999 464.392 863.999 449.484C863.999 445.299 864.501 441.142 865.491 437.129C865.769 436.002 866.857 435.325 867.921 435.622C868.985 435.915 869.622 437.068 869.344 438.194C868.44 441.86 867.981 445.658 867.981 449.484C867.981 463.101 873.752 475.787 883.814 484.289C884.673 485.016 884.815 486.342 884.129 487.254C883.737 487.775 883.157 488.047 882.571 488.047Z" fill="#B7C5DC" fill-opacity="0.5"/>
<path d="M937.423 488.047C936.838 488.047 936.259 487.776 935.865 487.254C935.179 486.344 935.32 485.017 936.18 484.289C946.242 475.787 952.012 463.101 952.012 449.484C952.012 445.657 951.553 441.859 950.65 438.195C950.372 437.068 951.008 435.916 952.072 435.622C953.136 435.328 954.224 436.002 954.502 437.129C955.492 441.141 955.995 445.298 955.995 449.484C955.995 464.392 949.678 478.28 938.664 487.588C938.296 487.897 937.858 488.047 937.423 488.047Z" fill="#B7C5DC" fill-opacity="0.5"/>
<path d="M951.343 435.597C950.531 435.597 949.768 435.067 949.473 434.211C943.629 417.271 928.867 405.815 911.867 405.027C910.768 404.976 909.916 403.991 909.964 402.827C910.012 401.664 910.957 400.767 912.04 400.813C930.654 401.675 946.815 414.218 953.213 432.764C953.59 433.858 953.059 435.068 952.026 435.469C951.801 435.555 951.57 435.597 951.343 435.597Z" fill="#B7C5DC" fill-opacity="0.5"/>
<path d="M939.668 494.242C939.257 494.242 938.846 494.109 938.497 493.839L909.998 471.908L881.499 493.839C880.801 494.376 879.857 494.376 879.158 493.839C878.461 493.303 878.169 492.351 878.435 491.482L889.321 455.996L860.82 434.064C860.123 433.527 859.831 432.575 860.097 431.706C860.364 430.838 861.128 430.249 861.992 430.249H897.22L908.105 394.765C908.373 393.897 909.136 393.308 910 393.308C910.863 393.308 911.627 393.897 911.894 394.765L922.779 430.249H958.008C958.871 430.249 959.635 430.838 959.903 431.706C960.169 432.575 959.877 433.527 959.179 434.064L930.679 455.996L941.566 491.482C941.832 492.351 941.539 493.302 940.842 493.839C940.488 494.108 940.078 494.242 939.668 494.242ZM892.708 458.602L884.115 486.612L906.61 469.302L892.708 458.602ZM913.385 469.302L935.88 486.612L927.287 458.602L913.385 469.302ZM894.001 454.385L909.997 466.695L925.994 454.385L919.883 434.466H900.111L894.001 454.385ZM924.07 434.466L929.381 451.778L951.878 434.466H924.07ZM868.118 434.466L890.614 451.778L895.924 434.466H868.118ZM901.405 430.249H918.589L909.997 402.24L901.405 430.249Z" fill="#B7C5DC" fill-opacity="0.5"/>
</g>
<defs>
<filter id="filter0_f_103_3" x="347" y="799.546" width="212" height="221.79" filterUnits="userSpaceOnUse" color-interpolation-filters="sRGB">
<feFlood flood-opacity="0" result="BackgroundImageFix"/>
<feBlend mode="normal" in="SourceGraphic" in2="BackgroundImageFix" result="shape"/>
<feGaussianBlur stdDeviation="3" result="effect1_foregroundBlur_103_3"/>
</filter>
<filter id="filter1_f_103_3" x="799" y="1257.99" width="164" height="223.79" filterUnits="userSpaceOnUse" color-interpolation-filters="sRGB">
<feFlood flood-opacity="0" result="BackgroundImageFix"/>
<feBlend mode="normal" in="SourceGraphic" in2="BackgroundImageFix" result="shape"/>
<feGaussianBlur stdDeviation="3.5" result="effect1_foregroundBlur_103_3"/>
</filter>
<filter id="filter2_f_103_3" x="190" y="410.434" width="114" height="223.79" filterUnits="userSpaceOnUse" color-interpolation-filters="sRGB">
<feFlood flood-opacity="0" result="BackgroundImageFix"/>
<feBlend mode="normal" in="SourceGraphic" in2="BackgroundImageFix" result="shape"/>
<feGaussianBlur stdDeviation="3.5" result="effect1_foregroundBlur_103_3"/>
</filter>
<filter id="filter3_f_103_3" x="405" y="0.293701" width="64" height="192.322" filterUnits="userSpaceOnUse" color-interpolation-filters="sRGB">
<feFlood flood-opacity="0" result="BackgroundImageFix"/>
<feBlend mode="normal" in="SourceGraphic" in2="BackgroundImageFix" result="shape"/>
<feGaussianBlur stdDeviation="3.5" result="effect1_foregroundBlur_103_3"/>
</filter>
<filter id="filter4_f_103_3" x="853" y="386.308" width="114" height="118.895" filterUnits="userSpaceOnUse" color-interpolation-filters="sRGB">
<feFlood flood-opacity="0" result="BackgroundImageFix"/>
<feBlend mode="normal" in="SourceGraphic" in2="BackgroundImageFix" result="shape"/>
<feGaussianBlur stdDeviation="3.5" result="effect1_foregroundBlur_103_3"/>
</filter>
</defs>
</svg>
