<svg width="1000" height="600" viewBox="0 0 1000 600" fill="none" xmlns="http://www.w3.org/2000/svg">
<rect width="1000" height="600" fill="#BFCEE7"/>
<g filter="url(#filter0_f_103_6)">
<path d="M113.548 269.297L112.213 275.968L107.425 276.903L102.637 277.837L105.228 281.439C106.719 283.308 108.367 285.443 108.917 286.243C109.702 287.311 109.702 288.779 108.76 294.116C107.111 303.323 107.19 303.457 111.036 298.92C112.998 296.785 114.804 294.917 115.196 294.917C115.51 294.917 117.394 296.651 119.356 298.92C121.24 301.055 122.888 302.656 123.045 302.523C123.124 302.256 122.653 298.92 121.947 294.917L120.691 287.711L124.144 282.907L127.52 277.97L122.888 276.769C118.493 275.568 118.257 275.435 117.237 270.231C115.589 262.224 114.961 261.957 113.548 269.297ZM116.531 276.903C116.923 279.571 117.551 280.239 119.513 280.239H121.947L120.22 283.441C118.964 285.709 118.65 287.444 119.042 290.113C119.592 293.983 118.885 294.383 116.688 291.581C115.432 289.98 114.961 289.98 113.234 291.981L111.272 294.25L111.742 289.98C112.135 286.377 111.899 285.309 110.094 283.041L107.975 280.372L110.565 280.239C112.527 280.239 113.312 279.438 114.019 276.903C114.49 275.034 115.196 273.567 115.51 273.567C115.824 273.567 116.295 275.034 116.531 276.903Z" fill="#B7C5DC" fill-opacity="0.5"/>
<path d="M75.0077 297.185C73.6733 302.789 73.5949 302.923 69.9842 302.923L66.3735 303.056L69.1992 307.326C71.554 310.929 71.9465 312.13 71.4755 314.932C70.0627 322.538 70.4551 323.339 73.5164 319.736L76.4206 316.4L79.1678 319.603C80.7377 321.471 82.0721 322.672 82.2291 322.538C82.3076 322.271 82.0721 319.736 81.6011 316.934C80.7377 311.997 80.8162 311.463 83.171 307.993C84.5054 305.992 85.6043 303.99 85.6043 303.59C85.6043 303.19 84.0344 302.923 82.0721 302.923C79.7958 302.923 78.5399 302.389 78.5399 301.188C78.4614 300.387 77.9905 297.719 77.441 295.584L76.4206 291.581L75.0077 297.185Z" fill="#B7C5DC" fill-opacity="0.5"/>
<path d="M152.716 297.185C151.381 302.789 151.303 302.923 147.692 302.923L144.081 303.056L147.064 307.326C149.811 311.329 149.968 311.997 149.262 315.466C147.692 322.405 148.163 323.339 151.224 319.736L154.129 316.4L156.876 319.603C158.446 321.471 159.78 322.672 159.937 322.538C160.016 322.271 159.78 320.003 159.388 317.468C158.289 311.063 158.367 310.529 160.957 307.593C164.176 303.99 163.94 302.923 159.78 302.923C157.504 302.923 156.248 302.389 156.248 301.188C156.169 300.387 155.698 297.719 155.149 295.584L154.129 291.581L152.716 297.185Z" fill="#B7C5DC" fill-opacity="0.5"/>
<path d="M111.978 339.351C110.958 341.219 109.859 344.689 109.623 347.091C108.603 359.901 107.739 387.923 108.132 399.265C108.446 407.538 108.289 412.342 107.818 412.342C107.347 412.342 106.248 407.138 105.228 400.6C104.286 394.194 102.951 387.389 102.402 385.388C101.774 383.386 100.597 376.581 99.7331 370.309C98.0063 357.899 97.0644 353.896 95.102 351.361C93.2182 348.825 89.9215 349.359 88.3517 352.295C87.0958 354.563 87.0173 356.431 87.4882 365.905C87.7237 372.044 88.8226 384.187 89.9215 392.994C93.9247 424.752 94.3956 430.356 94.0816 438.496C93.7677 447.303 91.4914 454.108 87.4882 458.512C84.741 461.581 82.7002 460.247 74.9294 449.838C66.8446 438.763 62.5275 436.228 57.8179 439.564C54.9137 441.565 52.8729 446.769 53.6578 450.105C53.8933 451.173 57.033 455.176 60.7222 458.912C66.7661 465.05 77.7551 482.397 77.7551 485.6C77.7551 486.267 81.9937 492.272 87.1743 498.944C94.9451 509.085 96.6719 512.021 97.3783 516.157C98.7912 523.763 99.2622 546.982 98.2418 555.121C97.7708 558.991 97.5353 562.46 97.7708 562.861C98.7912 564.729 99.9686 559.925 100.754 550.318C101.695 538.575 100.597 517.625 98.5557 511.22C97.9278 509.085 93.6107 502.547 88.9011 496.542C84.1915 490.67 79.325 483.331 78.1476 480.262C74.8509 472.256 67.7865 461.714 61.4286 455.309C58.2889 452.107 55.7771 448.771 55.7771 447.703C55.7771 444.901 58.9168 441.699 61.6641 441.699C64.2543 441.699 69.0424 446.369 76.9702 456.644C79.6389 460.113 83.2496 463.716 85.055 464.517C88.4302 465.984 93.2967 465.317 95.9655 462.915C98.0848 460.914 96.9859 458.912 94.5526 460.38C93.4537 461.181 91.8838 461.714 90.9419 461.714C89.5291 461.714 89.6075 461.181 91.8838 456.777C97.3783 446.235 97.6923 437.295 93.8462 407.805C91.8838 392.994 90.157 376.18 89.1366 363.637C88.7441 357.899 88.9011 356.431 90.157 354.563C92.9042 350.293 95.73 355.097 96.9074 365.639C97.2214 368.174 98.8697 377.782 100.518 386.989C102.245 396.196 104.05 406.337 104.6 409.673C105.699 416.078 107.504 417.947 109.623 414.877C110.644 413.41 110.722 411.141 110.33 400.866C109.623 385.121 111.193 347.358 112.763 343.221C114.019 340.018 116.531 339.351 117.551 341.887C118.1 343.621 118.336 350.827 118.807 392.593C118.964 406.738 119.356 414.21 119.984 415.278C121.711 418.213 123.281 413.41 124.537 401.667C125.165 395.529 126.028 388.19 126.499 385.254C126.97 382.452 127.834 374.579 128.462 367.907C129.717 354.697 130.424 352.295 133.093 352.295C136.546 352.295 137.017 355.23 135.604 368.708C134.898 375.513 133.956 385.521 133.564 390.992C133.093 396.463 132.229 406.07 131.523 412.342C130.345 423.151 130.345 423.684 131.837 426.086C134.27 430.356 136.782 428.088 143.454 415.411C155.463 392.593 158.603 388.59 159.937 394.595C160.565 397.397 159.937 398.998 149.733 421.683C145.024 432.091 141.099 441.298 140.942 442.099C140.706 443.033 139.921 451.173 139.137 460.38C138.116 471.589 136.625 481.463 134.662 490.404L131.68 503.747L133.014 530.835C134.349 557.924 135.133 565.396 136.625 563.795C137.096 563.261 137.253 562.46 137.096 561.927C136.546 560.459 134.27 518.292 134.27 509.619C134.27 504.148 135.055 498.677 137.017 490.003C138.823 481.864 140.157 472.656 141.177 460.647L142.669 443.3L150.832 425.152C162.841 398.331 162.92 398.064 162.056 394.061C160.251 385.254 156.484 386.722 149.89 398.598C131.366 431.824 131.366 431.824 134.035 407.939C134.976 399.799 135.997 389.391 136.232 384.987C136.468 380.584 137.253 372.311 137.959 366.706C139.137 357.232 139.137 356.164 137.881 353.095C136.232 348.692 133.014 347.358 130.424 349.759C128.854 351.227 128.148 353.496 127.52 358.967C126.97 362.97 125.793 372.577 124.772 380.317C123.83 388.056 122.81 397.13 122.496 400.6C121.711 410.741 120.926 409.673 120.926 398.198C120.926 374.579 119.827 341.486 119.042 339.618C118.571 338.551 117.237 337.35 116.06 336.949C114.411 336.282 113.469 336.816 111.978 339.351Z" fill="#B7C5DC" fill-opacity="0.5"/>
<path d="M176.264 348.692L174.772 356.298H170.22C167.708 356.298 165.667 356.698 165.667 357.232C165.667 357.899 167.237 360.301 169.199 362.703L172.653 367.106L171.476 373.912C170.769 377.515 170.455 380.851 170.691 381.251C170.848 381.651 172.653 380.05 174.537 377.782L177.991 373.778L181.287 377.915C183.093 380.183 184.741 381.651 185.055 381.251C185.29 380.851 185.055 377.381 184.506 373.645C183.956 369.909 183.642 366.706 183.799 366.439C183.956 366.306 185.447 364.438 187.096 362.436C188.666 360.301 190 358.166 190 357.499C190 356.832 188.038 356.298 185.683 356.298C181.915 356.298 181.209 355.898 180.659 353.229C180.267 351.628 179.482 348.292 178.854 345.756L177.755 341.219L176.264 348.692ZM179.089 356.298C179.796 359.634 180.424 360.301 182.386 360.301L184.898 360.435L183.014 362.97C181.601 365.105 181.287 366.439 181.68 369.642C182.151 374.045 181.68 374.446 179.482 371.643C178.148 369.909 177.755 369.909 176.185 371.643C173.673 374.446 173.516 374.179 174.301 369.642C174.851 366.306 174.694 365.372 172.889 363.103L170.769 360.435L173.36 360.301C175.557 360.301 176.107 359.634 176.735 356.298C177.206 354.029 177.755 352.295 177.912 352.295C178.148 352.295 178.697 354.029 179.089 356.298Z" fill="#B7C5DC" fill-opacity="0.5"/>
<path d="M50.7535 349.493L49.4191 356.031L44.7096 356.965L40 357.899L43.6107 362.57C45.573 365.238 47.1429 367.373 47.1429 367.507C47.1429 367.507 46.5934 370.976 45.9655 374.979C45.3375 378.983 44.7881 382.452 44.7881 382.719C44.7881 382.986 46.3579 381.251 48.2418 378.983C50.2041 376.848 52.1664 374.979 52.6374 374.979C53.1083 374.979 55.1491 376.848 57.033 379.116L60.5651 383.119L60.0157 379.383C59.7017 377.381 59.1523 374.312 58.8383 372.577C57.8179 367.907 57.8179 367.64 61.7425 362.57L65.3532 357.766L60.5651 356.832L55.7771 355.898L54.4427 349.493C53.6578 345.89 52.8728 342.954 52.6374 342.954C52.4019 342.954 51.5385 345.89 50.7535 349.493ZM53.8932 356.965C54.2857 359.634 54.8352 360.301 56.7975 360.301H59.1523L57.4254 363.504C56.091 365.906 55.8556 367.507 56.248 370.309C56.7975 373.912 56.7975 373.912 54.5212 371.91C52.5589 370.176 52.0879 370.176 50.4396 372.044C48.5557 374.179 48.5557 374.179 49.0267 369.909C49.4976 366.573 49.2622 365.505 48.0063 364.037C45.73 361.636 45.9655 360.301 48.6342 360.301C50.3611 360.301 50.989 359.501 51.3815 356.965C51.6954 355.097 52.2449 353.629 52.6374 353.629C53.0298 353.629 53.5793 355.097 53.8932 356.965Z" fill="#B7C5DC" fill-opacity="0.5"/>
<path d="M111.821 447.703C110.016 452.507 111.35 457.711 114.411 457.711C118.415 457.711 120.22 452.774 118.179 447.57C116.531 443.3 113.469 443.433 111.821 447.703Z" fill="#B7C5DC" fill-opacity="0.5"/>
<path d="M104.914 458.512C103.108 466.518 105.777 477.994 110.33 481.196C119.199 487.468 127.598 475.192 125.165 459.313C124.537 455.309 123.83 455.576 122.731 460.247C121.633 465.451 118.179 469.054 114.411 469.054C111.978 469.054 110.879 468.119 109.074 464.65C107.818 462.248 106.797 459.446 106.797 458.378C106.797 455.71 105.542 455.843 104.914 458.512Z" fill="#B7C5DC" fill-opacity="0.5"/>
</g>
<g filter="url(#filter1_f_103_6)">
<path d="M859.547 28.1501C858.552 29.2165 857.337 31.3492 856.674 32.5488C856.011 34.015 853.912 35.2146 851.039 35.7478C847.504 36.281 845.405 37.7472 842.311 41.6127C840.101 44.4118 836.897 47.7441 835.24 49.077C832.809 51.2097 832.367 52.2761 832.92 55.3418C833.362 57.4745 833.141 60.2736 832.588 61.6065C831.152 64.8055 832.809 68.4044 836.345 70.0039C838.555 71.0703 838.996 72.1366 838.996 76.402C838.996 81.4671 841.538 85.999 844.3 85.999C844.963 85.999 846.73 87.4652 848.277 89.3313C850.487 91.9972 852.255 92.6636 856.895 92.7969C860.099 92.9302 863.414 93.0635 864.297 93.1968C865.181 93.1968 866.397 95.4628 866.949 97.9953C868.164 103.594 867.17 132.518 865.734 134.251C865.181 134.917 860.983 136.117 856.563 136.917C852.034 137.583 846.73 138.516 844.742 138.783C840.322 139.583 838.444 143.981 835.903 159.976C833.03 178.104 832.478 179.97 827.838 188.368C823.75 195.699 823.308 197.165 824.081 201.563C824.523 204.363 824.965 212.36 825.075 219.425L825.186 232.087L831.373 243.417C841.206 261.145 842.642 265.011 841.869 273.808C840.543 291.136 838.996 325.125 839.549 325.659C840.985 327.391 841.648 322.993 843.084 301.666C843.968 289.003 844.963 275.807 845.294 272.342C845.736 266.743 845.294 264.744 840.875 255.014C838.113 248.882 834.356 241.551 832.367 238.752C828.5 232.754 827.506 229.022 828.279 222.89C828.5 220.624 828.279 217.025 827.727 214.893C826.954 212.36 826.954 210.627 827.948 209.294C828.832 207.961 828.832 206.762 828.058 204.762C826.18 200.497 826.622 195.832 829.495 191.7C833.914 185.302 835.792 179.57 838.113 164.908C841.096 145.447 842.421 141.982 846.62 141.982C848.498 141.982 853.47 141.315 857.668 140.382C865.181 138.783 865.402 138.916 869.822 142.382C872.473 144.514 875.014 147.98 875.898 150.646C876.893 153.312 878.66 155.844 880.097 156.644C882.085 157.577 880.87 157.844 875.125 157.844C868.164 157.977 867.391 157.71 864.629 154.111C861.977 150.512 861.425 150.379 859.547 152.112C858.331 153.178 855.901 153.978 854.133 153.978C851.592 153.978 851.039 154.511 851.592 156.111C853.912 163.309 853.691 164.108 847.393 169.84C843.968 172.906 841.206 175.971 841.206 176.771C841.206 178.904 843.416 177.571 852.034 169.973C863.082 160.243 865.181 160.776 871.81 173.839C874.462 179.17 877.003 185.835 877.224 188.501L877.777 193.299L876.23 189.301C873.689 182.769 871.81 181.57 865.292 182.503C858.331 183.569 839.438 192.766 840.101 194.632C840.764 196.365 841.096 196.232 852.807 190.767C858.331 188.101 864.739 186.102 867.28 185.968C871.258 185.968 872.031 186.501 873.026 189.567C874.793 194.899 875.898 213.293 874.683 215.959C873.799 217.825 873.026 216.759 870.374 210.361C868.164 205.162 866.397 202.496 864.85 202.23C862.309 201.83 838.002 210.761 836.345 212.76C833.472 215.959 838.002 215.293 849.272 210.894C856.122 208.228 862.64 205.962 863.635 205.962C864.96 205.962 866.397 208.095 867.833 212.094C871.037 220.758 871.589 226.356 869.49 228.489C868.275 229.688 867.722 229.821 867.722 228.755C867.722 227.955 866.507 227.289 864.96 227.289C863.414 227.289 861.646 226.223 860.983 224.89C859.768 222.49 859.547 222.49 855.79 224.89C853.58 226.223 850.597 227.289 849.272 227.289C847.835 227.289 846.73 227.822 846.73 228.622C846.73 229.288 847.946 229.955 849.492 229.955C851.702 229.955 852.255 230.621 852.255 233.42C852.255 237.019 852.255 237.019 859.547 236.219C865.181 235.686 866.949 235.953 867.391 237.419C868.496 241.018 877.666 245.283 877.666 242.218C877.666 241.551 875.898 240.085 873.799 238.885C869.711 236.486 868.938 233.953 871.589 231.288C872.473 230.355 873.247 227.822 873.247 225.689C873.247 219.558 875.567 221.691 879.765 231.688L883.522 240.751L881.643 251.015C880.539 256.613 878.771 264.877 877.666 269.276C874.572 281.539 872.252 298.2 871.368 312.729C870.816 324.459 870.926 325.925 872.473 325.925C874.02 325.925 874.352 324.326 874.352 316.195C874.352 303.665 877.114 283.938 880.539 271.809C881.975 266.61 883.19 260.612 883.301 258.479C883.301 256.347 883.743 253.414 884.185 251.948C885.731 247.549 887.61 258.213 887.61 270.875C887.61 281.539 888.825 285.271 890.261 278.873C891.477 273.275 890.924 262.611 888.825 252.081C887.389 244.75 887.057 240.485 887.72 238.352C889.267 233.554 888.935 224.49 886.947 217.159C886.063 213.56 884.848 207.562 884.295 203.963C883.08 195.565 880.428 185.435 877.556 179.037C875.456 174.105 874.793 166.508 876.34 163.975C876.782 163.175 879.102 161.976 881.423 161.309C883.853 160.509 885.952 159.31 886.173 158.377C886.394 157.577 885.179 154.911 883.301 152.379C880.318 148.247 880.207 147.58 881.643 144.648C885.51 135.984 881.423 131.052 873.136 134.517L868.606 136.384L869.38 131.585C869.711 128.786 870.926 124.52 871.921 121.988C873.799 117.456 873.799 117.456 880.539 117.856C887.057 118.122 887.278 117.989 892.913 111.991C899.321 105.06 901.42 99.195 900.315 91.3307C899.431 85.066 897.111 84.3995 890.924 88.6649C888.825 90.1311 884.516 92.7969 881.423 94.5297C874.462 98.3952 872.142 102.127 872.031 109.992C871.81 115.323 871.7 114.923 871.037 107.326C870.595 102.527 869.932 97.0623 869.49 95.1962C868.717 91.9972 869.048 91.5973 874.572 89.198C879.213 87.1986 880.87 85.5991 882.638 81.7337C884.185 78.2681 885.842 76.5353 888.935 75.4689C895.233 73.203 896.448 69.8706 896.117 56.9413C895.786 46.9444 895.454 45.6114 892.581 42.0125C890.814 39.7466 888.162 37.6139 886.836 37.214C885.51 36.8141 884.074 35.2146 883.632 33.7484C882.085 27.4837 863.524 23.2183 859.547 28.1501ZM876.893 31.749C879.102 32.9487 880.981 34.6815 880.981 35.7478C880.981 37.4806 879.876 37.3473 874.241 35.2146C866.065 32.1489 862.972 32.0156 861.093 34.6815C858.884 37.8805 858.442 36.0144 860.541 32.2822C862.088 29.4831 862.972 29.0832 867.501 29.3498C870.374 29.4831 874.572 30.6827 876.893 31.749ZM868.164 42.679C867.501 44.4118 862.088 47.3442 859.326 47.3442C857.226 47.3442 853.138 42.1458 853.912 40.6796C854.354 39.8799 855.68 39.6133 857.116 40.1465C858.663 40.5463 860.541 39.8799 862.309 38.1471L864.96 35.4812L866.839 38.1471C867.833 39.6133 868.496 41.6127 868.164 42.679ZM873.247 43.4788C873.247 49.077 871.7 52.0095 867.722 54.0089C865.071 55.3418 864.076 55.3418 862.751 54.0089C860.32 51.6096 860.762 50.41 864.297 49.6102C868.385 48.5439 871.037 45.3449 871.037 41.2128C871.037 39.3467 871.479 38.2804 872.142 38.6802C872.805 39.0801 873.247 41.3461 873.247 43.4788ZM851.15 44.5451C851.15 49.6102 850.929 50.0101 845.073 53.3424C841.759 55.3418 838.223 56.6747 837.339 56.1415C835.019 55.0752 835.24 51.7429 837.671 50.8098C838.775 50.2767 841.648 47.6108 843.968 44.6784C849.492 37.8805 851.15 37.8805 851.15 44.5451ZM878.881 47.3442C878.439 50.2767 877.445 52.1428 876.119 52.4094C874.462 52.8092 874.352 52.5426 875.346 50.2767C876.009 48.6772 876.561 45.6114 876.561 43.2122C876.561 39.3467 876.782 39.0801 878.108 40.6796C879.323 42.1458 879.544 44.0119 878.881 47.3442ZM889.93 44.1452C892.471 47.4775 892.802 49.077 893.244 64.6722C893.355 68.9376 889.488 72.6698 884.737 72.6698C879.986 72.6698 879.876 70.937 884.627 69.3375C888.052 68.0046 888.162 67.738 888.162 61.0734C888.162 57.3412 888.494 53.7423 889.046 53.2091C890.703 51.2097 889.709 45.7447 887.389 43.2122C885.952 41.8793 885.4 40.8129 886.063 40.6796C886.726 40.6796 888.383 42.2791 889.93 44.1452ZM885.952 46.5445C888.052 48.4106 888.052 48.5439 886.173 50.9431C883.964 53.8756 883.743 58.1409 885.51 60.2736C887.499 62.6729 885.842 66.0052 882.859 66.0052C881.312 66.0052 879.544 66.9382 878.771 68.0046C877.997 69.0709 876.119 70.0039 874.572 70.0039C873.026 70.0039 869.822 71.6034 867.501 73.4695C865.181 75.4689 863.082 76.8018 862.861 76.5353C862.64 76.2687 863.193 73.8694 864.297 71.3369C865.844 67.3381 866.728 66.5383 870.706 65.8719C875.898 65.0721 878.771 62.8062 878.771 59.3406C878.771 58.0076 879.544 55.2085 880.428 53.2091C881.312 51.0764 882.085 48.2773 882.085 46.9444C882.085 44.1452 883.19 44.0119 885.952 46.5445ZM861.314 57.741C863.303 61.7398 863.414 62.8062 862.309 67.4714C860.209 75.8688 855.017 77.8682 851.923 71.4702C849.713 66.8049 849.492 62.1397 851.592 58.6741C852.365 57.2079 853.359 54.2754 853.801 52.1428C854.575 48.5439 854.575 48.4106 856.784 50.8098C858 52.1428 859.989 55.2085 861.314 57.741ZM847.835 60.1403C846.73 63.6059 846.841 66.8049 848.498 71.87C849.492 75.2023 847.614 74.4026 840.764 69.0709C836.676 65.7386 835.019 63.6059 835.682 62.8062C836.787 61.4732 848.167 55.4751 848.719 56.0082C848.83 56.1415 848.498 58.0076 847.835 60.1403ZM875.235 58.9407C874.793 61.6065 867.943 64.1391 866.397 62.273C864.739 60.2736 868.606 56.6747 872.252 56.6747C874.793 56.6747 875.567 57.2079 875.235 58.9407ZM879.765 75.2023C881.754 76.6686 880.428 81.6004 877.335 83.8663C876.009 84.9327 873.247 86.1323 871.147 86.6655L867.391 87.5985L868.275 82.5334C868.717 79.601 869.49 76.5353 870.153 75.6022C871.479 73.7361 877.445 73.4695 879.765 75.2023ZM850.045 79.4677C850.045 80.0009 849.272 81.0672 848.388 82.0002C846.067 84.2662 842.311 82.4001 842.311 78.8012C842.311 75.8688 842.532 75.8688 846.178 77.2017C848.277 78.0015 850.045 79.0678 850.045 79.4677ZM862.53 80.6673C865.402 80.6673 865.623 81.0672 865.292 84.9327L864.96 89.3313L858.331 88.9314C854.685 88.7982 851.26 87.9984 850.708 87.3319C849.051 85.3326 854.464 79.0678 857.226 79.8676C858.442 80.2674 860.872 80.6673 862.53 80.6673ZM897.553 94.9296C897.443 101.328 895.896 104.527 890.04 110.525C884.958 115.457 884.516 115.723 879.876 114.124C877.224 113.191 877.335 113.057 882.085 110.125C886.947 107.059 895.344 98.3952 895.344 96.3958C895.344 94.1298 892.25 95.4628 890.593 98.3952C888.935 101.461 875.788 110.791 874.793 109.725C874.572 109.325 874.904 107.326 875.456 105.06C876.34 101.994 878.218 100.128 882.969 97.4622C886.394 95.5961 890.482 93.0635 892.029 91.9972C896.448 88.9314 897.553 89.4646 897.553 94.9296ZM879.876 138.916C879.876 140.249 879.434 142.115 878.881 143.181C878.108 144.648 877.445 144.514 875.014 142.515C871.7 139.583 871.479 138.383 874.131 137.583C878.218 136.25 879.876 136.65 879.876 138.916ZM863.082 157.71C863.303 158.643 862.53 159.31 861.204 159.31C859.989 159.31 858.663 159.843 858.331 160.643C857.337 162.509 855.569 162.242 855.569 160.243C855.569 158.377 859.768 155.311 861.535 155.844C862.198 155.977 862.861 156.911 863.082 157.71ZM873.247 164.641C873.247 166.108 872.805 167.307 872.142 167.307C871.589 167.307 871.037 167.041 871.037 166.774C871.037 166.508 870.706 165.308 870.374 164.108C869.932 162.642 870.264 161.976 871.479 161.976C872.473 161.976 873.247 163.042 873.247 164.641ZM881.202 202.097C881.202 203.829 881.975 207.961 882.748 211.294C885.179 221.024 886.505 231.421 885.621 233.42C884.958 234.753 883.853 233.02 881.533 227.689C878.881 221.291 878.329 218.092 878.108 209.294C877.997 203.43 878.108 198.098 878.439 197.565C879.323 195.699 881.091 198.631 881.202 202.097ZM861.867 230.088L864.96 231.688L860.651 232.887C855.79 234.087 855.238 233.953 856.232 230.754C857.005 228.222 857.779 228.089 861.867 230.088Z" fill="#B7C5DC" fill-opacity="0.5"/>
<path d="M770.496 162.109C769.17 166.375 768.397 167.174 764.53 167.974L760 168.774L763.204 171.973C765.966 174.639 766.298 175.572 765.635 179.97C765.193 182.636 765.193 184.636 765.745 184.369C766.187 184.102 767.955 183.036 769.612 182.103C772.264 180.504 772.927 180.637 775.91 183.169C779.666 186.368 779.887 186.102 778.34 179.704C777.346 175.705 777.567 175.039 780.771 172.106L784.307 168.774L779.666 167.841C775.689 167.174 774.915 166.375 773.59 162.109L772.043 157.311L770.496 162.109Z" fill="#B7C5DC" fill-opacity="0.5"/>
<path d="M947.382 162.109C946.277 166.374 945.504 167.041 941.416 167.841L936.775 168.774L940.311 172.106C943.515 175.038 943.736 175.705 942.631 179.437C941.195 184.635 941.968 185.435 945.614 182.503C948.045 180.503 948.818 180.503 951.47 182.103C953.127 183.036 954.784 184.102 955.337 184.369C955.779 184.635 955.889 182.503 955.447 179.704C954.895 175.038 955.116 174.239 957.767 172.106C960.198 170.24 960.53 169.44 959.314 168.507C958.43 167.841 956.552 167.307 955.005 167.307C952.906 167.307 951.801 166.108 950.475 162.242L948.818 157.311L947.382 162.109Z" fill="#B7C5DC" fill-opacity="0.5"/>
<path d="M799.885 168.24C799.443 169.973 798.117 171.306 796.902 171.306C794.582 171.306 794.03 173.306 796.018 174.772C796.681 175.172 797.013 177.038 796.681 178.771C796.129 182.236 796.902 182.903 798.891 180.503C799.775 179.437 800.769 179.437 802.537 180.637C804.636 181.97 804.857 181.836 804.526 179.57C804.305 178.237 804.857 176.105 805.741 174.905C806.956 172.906 806.846 172.506 804.415 171.439C802.868 170.64 801.432 169.04 801.211 167.707C800.769 165.575 800.659 165.708 799.885 168.24Z" fill="#B7C5DC" fill-opacity="0.5"/>
<path d="M919.429 168.374C918.987 170.24 917.882 171.306 916.446 171.306C913.795 171.306 913.463 172.906 915.673 175.172C916.557 176.105 916.999 177.971 916.667 179.57C916.115 181.97 916.225 182.103 918.545 180.637C920.313 179.437 921.307 179.437 922.191 180.503C924.18 182.903 924.953 182.236 924.401 178.771C924.07 177.038 924.401 175.172 925.064 174.772C926.942 173.306 926.5 171.306 924.291 171.306C923.075 171.306 921.749 169.973 921.086 168.374L919.982 165.441L919.429 168.374Z" fill="#B7C5DC" fill-opacity="0.5"/>
</g>
<defs>
<filter id="filter0_f_103_6" x="33" y="257" width="164" height="314" filterUnits="userSpaceOnUse" color-interpolation-filters="sRGB">
<feFlood flood-opacity="0" result="BackgroundImageFix"/>
<feBlend mode="normal" in="SourceGraphic" in2="BackgroundImageFix" result="shape"/>
<feGaussianBlur stdDeviation="3.5" result="effect1_foregroundBlur_103_6"/>
</filter>
<filter id="filter1_f_103_6" x="753" y="19" width="214" height="314" filterUnits="userSpaceOnUse" color-interpolation-filters="sRGB">
<feFlood flood-opacity="0" result="BackgroundImageFix"/>
<feBlend mode="normal" in="SourceGraphic" in2="BackgroundImageFix" result="shape"/>
<feGaussianBlur stdDeviation="3.5" result="effect1_foregroundBlur_103_6"/>
</filter>
</defs>
</svg>
