<svg width="1000" height="350" viewBox="0 0 1000 350" fill="none" xmlns="http://www.w3.org/2000/svg">
<rect width="1000" height="350" fill="#913333"/>
<g filter="url(#filter0_f_155_2)">
<path d="M176.057 185.663C160.399 185.663 145.697 179.541 134.658 168.423C133.863 167.621 133.78 166.355 134.457 165.453C135.14 164.551 136.382 164.286 137.371 164.832C143.655 168.3 150.795 170.134 158.017 170.134C181.618 170.134 200.819 150.933 200.819 127.332C200.819 103.73 181.618 84.53 158.017 84.53C150.795 84.53 143.658 86.363 137.371 89.832C136.382 90.379 135.14 90.114 134.46 89.211C133.78 88.309 133.863 87.044 134.661 86.24C145.697 75.122 160.399 69 176.057 69C208.222 69 234.391 95.167 234.391 127.332C234.391 159.497 208.222 185.663 176.057 185.663ZM148.922 173.798C157.065 178.574 166.364 181.119 176.057 181.119C205.715 181.119 229.846 156.989 229.846 127.332C229.846 97.673 205.715 73.546 176.057 73.546C166.365 73.546 157.065 76.09 148.924 80.865C151.908 80.283 154.955 79.985 158.016 79.985C184.123 79.985 205.363 101.225 205.363 127.332C205.363 153.439 184.124 174.679 158.016 174.679C154.955 174.68 151.908 174.382 148.922 173.798Z" fill="#E38B8B" fill-opacity="0.2"/>
<path d="M206.374 90.719C206.065 90.719 205.76 90.594 205.534 90.347C196.361 80.284 183.879 74.009 170.388 72.679C169.762 72.617 169.306 72.061 169.367 71.437C169.428 70.812 169.988 70.353 170.609 70.417C184.662 71.802 197.663 78.336 207.213 88.816C207.636 89.28 207.605 89.999 207.141 90.421C206.923 90.621 206.647 90.719 206.374 90.719Z" fill="#E38B8B" fill-opacity="0.2"/>
<path d="M216.959 107.556C216.51 107.556 216.085 107.285 215.904 106.842C214.772 104.025 213.39 101.28 211.8 98.682C211.47 98.147 211.64 97.448 212.175 97.12C212.71 96.791 213.408 96.96 213.736 97.495C215.394 100.201 216.834 103.059 218.014 105.994C218.249 106.576 217.967 107.238 217.386 107.473C217.246 107.529 217.101 107.556 216.959 107.556Z" fill="#E38B8B" fill-opacity="0.2"/>
<path d="M170.493 184.253C169.917 184.253 169.423 183.815 169.366 183.229C169.305 182.604 169.762 182.048 170.387 181.986C198.588 179.207 219.854 155.71 219.854 127.333C219.854 122.306 219.174 117.325 217.835 112.529C217.667 111.925 218.02 111.298 218.623 111.129C219.226 110.959 219.856 111.314 220.025 111.918C221.419 116.912 222.126 122.1 222.126 127.333C222.126 141.62 216.832 155.298 207.211 165.849C197.661 176.329 184.66 182.863 170.607 184.248C170.57 184.251 170.532 184.253 170.493 184.253Z" fill="#E38B8B" fill-opacity="0.2"/>
<path d="M170.5 184.253C170.46 184.253 170.421 184.252 170.388 184.248C157.221 182.951 144.821 177.047 135.466 167.623C135.067 167.222 135.024 166.588 135.367 166.137C135.706 165.686 136.327 165.554 136.821 165.827C143.274 169.388 150.602 171.27 158.015 171.27C182.243 171.27 201.952 151.559 201.952 127.332C201.952 103.103 182.243 83.393 158.015 83.393C150.602 83.393 143.274 85.276 136.821 88.836C136.327 89.109 135.706 88.976 135.367 88.525C135.023 88.074 135.066 87.441 135.466 87.04C144.82 77.617 157.221 71.713 170.388 70.415C171.009 70.35 171.567 70.81 171.627 71.435C171.689 72.06 171.232 72.615 170.608 72.677C160.43 73.68 150.726 77.552 142.642 83.747C147.557 82.016 152.766 81.12 158.015 81.12C183.496 81.12 204.226 101.849 204.226 127.33C204.226 152.81 183.497 173.54 158.015 173.54C152.766 173.54 147.557 172.643 142.642 170.913C150.726 177.109 160.43 180.98 170.608 181.983C171.232 182.045 171.688 182.601 171.627 183.226C171.571 183.815 171.076 184.253 170.5 184.253Z" fill="#E38B8B" fill-opacity="0.2"/>
</g>
<g filter="url(#filter1_f_155_2)">
<path d="M805.577 130.356C805.286 130.356 804.994 130.245 804.775 130.022L801.888 127.139C801.443 126.693 801.443 125.975 801.888 125.533L805.854 121.566C806.298 121.121 807.019 121.121 807.461 121.566C807.905 122.009 807.905 122.729 807.461 123.171L804.297 126.334L806.379 128.417C806.824 128.86 806.824 129.582 806.379 130.022C806.159 130.245 805.869 130.356 805.577 130.356Z" fill="#E38B8B" fill-opacity="0.2"/>
<path d="M799.473 108.268C798.609 108.268 797.784 107.772 797.403 106.935C797.1 106.289 795.94 104.432 794.299 103.776C792.82 103.186 788.775 103.821 786.507 104.436C786.313 104.489 786.111 104.517 785.91 104.517H781.583C780.326 104.517 779.31 103.497 779.31 102.243C779.31 100.988 780.327 99.971 781.583 99.971H785.614C787.297 99.533 792.797 98.28 795.988 99.558C799.614 101.007 801.354 104.644 801.54 105.056C802.06 106.197 801.554 107.546 800.412 108.064C800.108 108.201 799.787 108.268 799.473 108.268Z" fill="#E38B8B" fill-opacity="0.2"/>
<path d="M778.318 132.106C770.744 132.106 768.208 119.747 768.102 119.208C767.981 118.591 768.381 117.996 768.995 117.874C769.612 117.752 770.208 118.15 770.331 118.767C770.353 118.883 772.711 130.315 778.714 129.82C779.346 129.769 779.886 130.235 779.937 130.859C779.988 131.484 779.522 132.032 778.897 132.084C778.701 132.099 778.507 132.106 778.318 132.106Z" fill="#E38B8B" fill-opacity="0.2"/>
<path d="M802.692 99.538C802.479 99.538 802.262 99.477 802.07 99.353C801.489 98.972 800.878 98.545 800.234 98.094C797.442 96.15 793.97 93.727 790.396 93.308C783.889 92.546 781.168 96.261 781.142 96.299C780.779 96.81 780.069 96.93 779.558 96.569C779.045 96.207 778.925 95.498 779.288 94.985C779.431 94.788 782.83 90.135 790.663 91.052C794.803 91.538 798.535 94.141 801.535 96.231C802.167 96.673 802.764 97.092 803.317 97.453C803.843 97.795 803.989 98.5 803.644 99.024C803.424 99.359 803.061 99.538 802.692 99.538Z" fill="#E38B8B" fill-opacity="0.2"/>
<path d="M793.7 108.869C791.324 108.869 789.39 106.935 789.39 104.558C789.39 102.182 791.324 100.248 793.7 100.248C796.076 100.248 798.011 102.182 798.011 104.558C798.011 106.935 796.077 108.869 793.7 108.869ZM793.7 102.521C792.576 102.521 791.663 103.435 791.663 104.559C791.663 105.681 792.577 106.597 793.7 106.597C794.824 106.597 795.739 105.681 795.739 104.559C795.739 103.435 794.824 102.521 793.7 102.521Z" fill="#E38B8B" fill-opacity="0.2"/>
<path d="M790.931 132.194C790.522 132.194 790.127 131.976 789.924 131.589C789.091 130.001 788.073 128.239 786.902 126.351C786.571 125.816 786.737 125.116 787.27 124.784C787.804 124.455 788.504 124.62 788.835 125.152C790.032 127.088 791.076 128.896 791.935 130.53C792.227 131.086 792.013 131.772 791.457 132.065C791.289 132.153 791.109 132.194 790.931 132.194Z" fill="#E38B8B" fill-opacity="0.2"/>
<path d="M785.275 122.862C784.908 122.862 784.548 122.687 784.329 122.358C779.954 115.805 775.489 110.149 775.444 110.091C775.055 109.6 775.139 108.885 775.632 108.495C776.125 108.106 776.839 108.19 777.228 108.683C777.273 108.737 781.795 114.469 786.219 121.095C786.569 121.619 786.428 122.323 785.906 122.673C785.711 122.803 785.491 122.862 785.275 122.862Z" fill="#E38B8B" fill-opacity="0.2"/>
<path d="M774.638 105.695C774.456 105.695 774.273 105.65 774.102 105.558C773.586 105.282 761.417 98.647 759.651 88.282C759.546 87.663 759.962 87.076 760.58 86.97C761.198 86.863 761.787 87.278 761.892 87.899C763.474 97.183 775.059 103.491 775.176 103.555C775.73 103.85 775.937 104.539 775.641 105.094C775.435 105.475 775.044 105.695 774.638 105.695Z" fill="#E38B8B" fill-opacity="0.2"/>
<path d="M775.103 95.414C774.818 95.414 774.534 95.308 774.313 95.095C773.901 94.696 764.221 85.233 763.632 77.202C763.586 76.576 764.057 76.032 764.684 75.987C765.306 75.949 765.855 76.41 765.899 77.035C766.424 84.203 775.798 93.37 775.896 93.463C776.345 93.9 776.356 94.617 775.919 95.068C775.695 95.3 775.401 95.414 775.103 95.414Z" fill="#E38B8B" fill-opacity="0.2"/>
<path d="M776.11 114.896C775.969 114.896 775.824 114.87 775.685 114.813C775.06 114.561 760.33 108.526 755.668 99.451C755.38 98.892 755.601 98.206 756.159 97.919C756.716 97.633 757.401 97.854 757.688 98.412C761.964 106.735 776.391 112.648 776.536 112.707C777.118 112.943 777.399 113.606 777.163 114.187C776.986 114.628 776.56 114.896 776.11 114.896Z" fill="#E38B8B" fill-opacity="0.2"/>
<path d="M772.495 194.427C772.347 194.427 772.199 194.396 772.055 194.335C771.476 194.091 771.204 193.427 771.449 192.848C778.888 175.184 772.946 129.653 772.886 129.195C772.803 128.574 773.24 128.003 773.863 127.919C774.481 127.837 775.056 128.274 775.139 128.896C775.389 130.79 781.222 175.5 773.543 193.731C773.359 194.164 772.938 194.427 772.495 194.427Z" fill="#E38B8B" fill-opacity="0.2"/>
<path d="M779.804 193.281C779.619 193.281 779.431 193.238 779.259 193.141C778.709 192.837 778.507 192.149 778.809 191.599C783.89 182.342 782.825 147.106 782.814 146.751C782.794 146.124 783.286 145.597 783.914 145.58C783.926 145.58 783.938 145.58 783.951 145.58C784.561 145.58 785.066 146.063 785.086 146.679C785.133 148.151 786.179 182.896 780.801 192.693C780.594 193.069 780.205 193.281 779.804 193.281Z" fill="#E38B8B" fill-opacity="0.2"/>
<path d="M800.305 57.627C799.919 57.627 799.541 57.43 799.329 57.072C799.248 56.941 791.188 43.611 782.538 43.216C781.911 43.189 781.426 42.657 781.455 42.029C781.483 41.403 782.016 40.923 782.641 40.946C792.513 41.397 800.926 55.318 801.281 55.91C801.601 56.448 801.426 57.145 800.887 57.466C800.704 57.575 800.504 57.627 800.305 57.627Z" fill="#E38B8B" fill-opacity="0.2"/>
<path d="M780.215 60.371C779.851 60.371 779.494 60.196 779.273 59.871C779.246 59.829 777.116 56.777 772 53.621C771.464 53.292 771.298 52.591 771.628 52.056C771.958 51.521 772.657 51.356 773.192 51.687C778.773 55.129 781.06 58.456 781.154 58.596C781.507 59.117 781.37 59.824 780.849 60.175C780.655 60.306 780.433 60.371 780.215 60.371Z" fill="#E38B8B" fill-opacity="0.2"/>
<path d="M804.368 48.656C803.905 48.656 803.469 48.37 803.301 47.911C803.261 47.803 799.989 39.086 794.466 38.246C793.846 38.153 793.419 37.574 793.514 36.954C793.608 36.334 794.187 35.906 794.807 36.001C801.668 37.039 805.284 46.715 805.435 47.129C805.65 47.718 805.347 48.37 804.758 48.586C804.629 48.634 804.498 48.656 804.368 48.656Z" fill="#E38B8B" fill-opacity="0.2"/>
<path d="M808.126 70.056H766.394C765.766 70.056 765.258 69.547 765.258 68.919C765.258 68.293 765.766 67.782 766.394 67.782H808.126C808.754 67.782 809.262 68.292 809.262 68.919C809.262 69.547 808.754 70.056 808.126 70.056Z" fill="#E38B8B" fill-opacity="0.2"/>
<path d="M815.738 130.356C815.446 130.356 815.155 130.245 814.934 130.022C814.49 129.581 814.49 128.86 814.934 128.417L817.017 126.334L813.852 123.171C813.408 122.728 813.408 122.008 813.852 121.566C814.296 121.121 815.016 121.121 815.459 121.566L819.425 125.533C819.869 125.975 819.869 126.693 819.425 127.139L816.541 130.022C816.318 130.245 816.028 130.356 815.738 130.356Z" fill="#E38B8B" fill-opacity="0.2"/>
<path d="M820.747 108.268C820.434 108.268 820.114 108.201 819.809 108.062C818.665 107.544 818.16 106.195 818.68 105.055C818.866 104.643 820.606 101.005 824.232 99.556C827.422 98.278 832.923 99.532 834.605 99.969H838.637C839.892 99.969 840.909 100.987 840.909 102.241C840.909 103.495 839.891 104.515 838.637 104.515H834.309C834.108 104.515 833.907 104.488 833.711 104.434C831.443 103.819 827.4 103.184 825.92 103.774C823.969 104.553 822.828 106.91 822.817 106.933C822.436 107.773 821.612 108.268 820.747 108.268Z" fill="#E38B8B" fill-opacity="0.2"/>
<path d="M777.767 126.596C777.377 126.596 776.982 126.496 776.621 126.286C774.626 125.117 757.035 114.707 753.798 109.159C751.633 105.448 754.102 98.624 758.429 87.833C760.638 82.316 762.923 76.614 763.237 73.318C763.356 72.07 764.464 71.151 765.716 71.273C766.965 71.392 767.881 72.501 767.761 73.752C767.385 77.698 765.084 83.442 762.647 89.524C761.068 93.463 759.436 97.535 758.457 100.879C757.112 105.469 757.611 106.673 757.724 106.869C759.712 110.276 771.78 118.181 778.918 122.365C780.002 122.998 780.365 124.391 779.731 125.473C779.309 126.197 778.548 126.596 777.767 126.596Z" fill="#E38B8B" fill-opacity="0.2"/>
<path d="M793.38 175.767C792.126 175.767 791.108 174.749 791.108 173.496V153.815C791.108 152.562 792.126 151.542 793.38 151.542C794.635 151.542 795.653 152.562 795.653 153.815V173.496C795.653 174.749 794.634 175.767 793.38 175.767Z" fill="#E38B8B" fill-opacity="0.2"/>
<path d="M812.094 75.807H765.5C764.507 75.807 763.629 75.165 763.333 74.218L757.056 54.313C756.752 53.346 757.126 52.293 757.97 51.736C758.816 51.175 759.929 51.24 760.701 51.901C764.474 55.119 771.875 60.229 775.67 60.229C778.332 60.229 780.723 53.197 781.425 48.124C781.564 47.116 782.357 46.325 783.365 46.185C784.373 46.045 785.35 46.593 785.758 47.525C785.794 47.608 789.648 56.175 796.064 57.066C797.156 57.223 799.773 54.918 802.674 45.332C804.729 38.535 805.873 31.483 805.884 31.413C806.083 30.176 807.245 29.331 808.487 29.529C809.727 29.729 810.571 30.895 810.372 32.134C810.323 32.431 809.176 39.522 807.036 46.608C803.805 57.31 800.005 62.197 795.438 61.569C790.603 60.895 787.007 57.512 784.693 54.473C783.319 59.151 780.634 64.772 775.669 64.772C771.961 64.772 767.214 62.187 763.524 59.712L767.165 71.265H812.094C813.347 71.265 814.366 72.281 814.366 73.536C814.366 74.791 813.347 75.807 812.094 75.807Z" fill="#E38B8B" fill-opacity="0.2"/>
<path d="M769.217 62.736C769.048 62.736 768.875 62.718 768.704 62.675C767.483 62.394 766.72 61.18 767.001 59.958C767.064 59.674 768.664 52.899 774.385 46.306C779.655 40.232 789.551 33.167 806.76 33.984C808.013 34.043 808.982 35.108 808.921 36.363C808.862 37.615 807.793 38.589 806.542 38.524C794.277 37.936 784.653 41.508 777.949 49.132C772.901 54.875 771.444 60.916 771.429 60.977C771.185 62.026 770.251 62.736 769.217 62.736Z" fill="#E38B8B" fill-opacity="0.2"/>
<path d="M767.589 195.562C767.27 195.562 766.948 195.495 766.64 195.353C765.499 194.829 765 193.48 765.525 192.338C770.914 180.638 765.601 133.771 763.098 116.699C762.916 115.458 763.775 114.305 765.018 114.12C766.257 113.942 767.414 114.799 767.594 116.04C767.97 118.601 776.707 178.926 769.654 194.24C769.272 195.073 768.449 195.562 767.589 195.562Z" fill="#E38B8B" fill-opacity="0.2"/>
<path d="M808.126 190.495H790.671C789.417 190.495 788.4 189.477 788.4 188.222V173.218C788.4 172.576 788.671 171.963 789.149 171.532C789.627 171.101 790.259 170.892 790.903 170.958L805.041 172.4C805.623 172.461 806.16 172.743 806.54 173.188L809.857 177.084C810.67 178.039 810.556 179.474 809.601 180.286C808.645 181.102 807.21 180.986 806.398 180.031L803.671 176.832L792.945 175.735V185.95H808.126C809.382 185.95 810.398 186.967 810.398 188.222C810.398 189.477 809.382 190.495 808.126 190.495Z" fill="#E38B8B" fill-opacity="0.2"/>
<path d="M765.703 195.615C765.546 195.615 765.422 195.615 765.33 195.613C764.074 195.605 763.064 194.579 763.074 193.326C763.083 192.076 764.1 191.07 765.346 191.07C765.352 191.07 765.357 191.07 765.363 191.07C770.327 191.104 784.337 190.348 789.258 186.44C790.242 185.663 791.672 185.827 792.451 186.81C793.231 187.79 793.068 189.221 792.085 190.001C785.35 195.345 768.93 195.615 765.703 195.615Z" fill="#E38B8B" fill-opacity="0.2"/>
<path d="M821.327 160.777H798.895C798.338 160.777 797.803 160.573 797.387 160.204C793.933 157.144 784.104 148.839 780.132 147.186C779.401 146.881 778.882 146.219 778.762 145.436C778.701 145.057 772.843 107.347 772.278 104.237C771.572 100.352 774.84 78.003 776.057 72.999C776.353 71.777 777.582 71.029 778.802 71.327C780.022 71.622 780.768 72.852 780.474 74.071C779.107 79.688 776.289 100.892 776.75 103.421C777.274 106.311 782.048 136.992 783.068 143.557C788.241 146.297 797.099 153.908 799.751 156.23H820.468C823.121 153.908 831.978 146.297 837.152 143.557C838.173 136.992 842.945 106.311 843.47 103.421C843.929 100.892 841.113 79.688 839.747 74.071C839.45 72.852 840.2 71.622 841.418 71.327C842.637 71.029 843.867 71.777 844.161 72.999C845.38 78.002 848.647 100.352 847.941 104.237C847.375 107.347 841.517 145.057 841.458 145.436C841.337 146.219 840.818 146.881 840.087 147.186C836.116 148.839 826.285 157.144 822.834 160.204C822.418 160.573 821.883 160.777 821.327 160.777Z" fill="#E38B8B" fill-opacity="0.2"/>
<path d="M842.453 126.596C841.673 126.596 840.912 126.197 840.491 125.472C839.855 124.39 840.219 122.997 841.301 122.364C848.442 118.18 860.509 110.276 862.496 106.868C862.61 106.672 863.108 105.468 861.764 100.878C860.785 97.534 859.152 93.462 857.574 89.523C855.136 83.441 852.835 77.697 852.459 73.751C852.339 72.501 853.255 71.391 854.505 71.272C855.754 71.15 856.863 72.07 856.984 73.317C857.297 76.613 859.583 82.315 861.792 87.832C866.118 98.624 868.587 105.447 866.422 109.158C863.185 114.706 845.592 125.116 843.598 126.285C843.238 126.496 842.844 126.596 842.453 126.596Z" fill="#E38B8B" fill-opacity="0.2"/>
<path d="M826.841 175.767C825.586 175.767 824.569 174.749 824.569 173.496V153.815C824.569 152.562 825.587 151.542 826.841 151.542C828.095 151.542 829.115 152.562 829.115 153.815V173.496C829.115 174.749 828.095 175.767 826.841 175.767Z" fill="#E38B8B" fill-opacity="0.2"/>
<path d="M854.722 75.807H812.094C810.839 75.807 809.821 74.791 809.821 73.535C809.821 72.28 810.84 71.264 812.094 71.264H853.055L856.696 59.711C853.007 62.186 848.26 64.771 844.55 64.771C839.586 64.771 836.902 59.15 835.528 54.472C833.213 57.511 829.618 60.894 824.781 61.568C820.212 62.198 816.417 57.308 813.183 46.607C811.045 39.521 809.897 32.43 809.849 32.133C809.65 30.893 810.494 29.728 811.734 29.528C812.977 29.33 814.139 30.175 814.338 31.412C814.348 31.482 815.492 38.534 817.547 45.331C820.446 54.916 823.062 57.222 824.157 57.065C830.574 56.174 834.426 47.607 834.464 47.519C834.874 46.591 835.852 46.043 836.858 46.184C837.864 46.327 838.656 47.116 838.795 48.123C839.504 53.196 841.9 60.228 844.549 60.228C848.346 60.228 855.747 55.118 859.52 51.9C860.291 51.239 861.405 51.174 862.25 51.735C863.095 52.292 863.467 53.345 863.163 54.312L856.888 74.217C856.592 75.165 855.714 75.807 854.722 75.807Z" fill="#E38B8B" fill-opacity="0.2"/>
<path d="M851.003 62.739C849.969 62.739 849.033 62.028 848.791 60.977C848.763 60.855 847.292 54.847 842.272 49.133C835.568 41.509 825.944 37.939 813.678 38.525C812.424 38.589 811.359 37.618 811.298 36.364C811.239 35.109 812.207 34.044 813.461 33.985C830.667 33.161 840.564 40.233 845.836 46.307C851.557 52.9 853.157 59.675 853.22 59.959C853.5 61.183 852.735 62.403 851.512 62.682C851.341 62.72 851.171 62.739 851.003 62.739Z" fill="#E38B8B" fill-opacity="0.2"/>
<path d="M841.912 133.244C841.688 133.244 841.462 133.234 841.231 133.215C839.98 133.112 839.049 132.017 839.149 130.767C839.251 129.515 840.351 128.575 841.599 128.686C841.686 128.694 841.775 128.696 841.86 128.696C845.856 128.696 848.245 121.226 848.775 118.547C849.019 117.316 850.215 116.516 851.446 116.758C852.677 117.002 853.479 118.196 853.235 119.43C853.119 120.008 850.399 133.244 841.912 133.244Z" fill="#E38B8B" fill-opacity="0.2"/>
<path d="M852.632 195.562C851.771 195.562 850.949 195.073 850.565 194.241C843.514 178.927 852.249 118.601 852.625 116.041C852.808 114.8 853.965 113.943 855.205 114.121C856.446 114.306 857.306 115.458 857.122 116.7C854.62 133.774 849.307 180.641 854.694 192.339C855.219 193.481 854.721 194.829 853.582 195.354C853.273 195.495 852.949 195.562 852.632 195.562Z" fill="#E38B8B" fill-opacity="0.2"/>
<path d="M829.549 190.495H812.094C810.839 190.495 809.821 189.477 809.821 188.222C809.821 186.967 810.84 185.95 812.094 185.95H827.277V175.735L816.55 176.83L813.824 180.029C813.01 180.985 811.575 181.1 810.62 180.284C809.665 179.472 809.55 178.036 810.364 177.082L813.681 173.186C814.061 172.742 814.599 172.459 815.181 172.398L829.318 170.956C829.962 170.89 830.595 171.099 831.073 171.53C831.551 171.961 831.822 172.574 831.822 173.216V188.22C831.821 189.477 830.803 190.495 829.549 190.495Z" fill="#E38B8B" fill-opacity="0.2"/>
<path d="M854.519 195.615C851.291 195.615 834.872 195.347 828.137 190.001C827.154 189.221 826.987 187.79 827.77 186.81C828.549 185.827 829.979 185.664 830.963 186.44C835.891 190.351 849.886 191.113 854.857 191.07C854.863 191.07 854.87 191.07 854.875 191.07C856.121 191.07 857.136 192.075 857.147 193.326C857.156 194.579 856.147 195.605 854.892 195.613C854.8 195.615 854.674 195.615 854.519 195.615Z" fill="#E38B8B" fill-opacity="0.2"/>
<path d="M817.233 100.066C816.969 100.066 816.703 99.975 816.489 99.787C816.016 99.374 815.967 98.657 816.378 98.182C818.694 95.526 823.638 92.298 829.459 91.07C836.865 89.508 840.766 94.755 840.928 94.976C841.296 95.485 841.183 96.195 840.675 96.564C840.167 96.93 839.46 96.819 839.091 96.314C838.954 96.13 835.852 92.045 829.929 93.294C824.649 94.408 820.092 97.385 818.092 99.678C817.866 99.935 817.551 100.066 817.233 100.066Z" fill="#E38B8B" fill-opacity="0.2"/>
<path d="M817.829 141.618C815.766 141.618 813.157 140.64 812.1 140.204L810.565 140.873C810.276 141 809.946 141 809.656 140.873L808.122 140.204C807.065 140.641 804.456 141.618 802.393 141.618C801.765 141.618 801.257 141.107 801.257 140.481C801.257 139.854 801.765 139.345 802.393 139.345C804.145 139.345 806.789 138.325 807.66 137.93C807.953 137.799 808.288 137.795 808.582 137.924L810.111 138.591L811.639 137.924C811.932 137.797 812.268 137.799 812.56 137.93C812.592 137.945 815.724 139.345 817.829 139.345C818.457 139.345 818.965 139.854 818.965 140.481C818.965 141.107 818.457 141.618 817.829 141.618Z" fill="#E38B8B" fill-opacity="0.2"/>
<path d="M811.281 144.303C811.039 144.303 810.813 144.296 810.611 144.288C810.258 144.277 809.963 144.277 809.611 144.288C808.021 144.345 805.065 144.442 803.611 140.552C803.391 139.965 803.69 139.31 804.278 139.092C804.867 138.874 805.521 139.171 805.74 139.758C806.621 142.117 808.036 142.07 809.532 142.019C809.94 142.005 810.28 142.005 810.686 142.019C812.184 142.069 813.6 142.117 814.479 139.758C814.698 139.171 815.354 138.874 815.942 139.092C816.53 139.31 816.827 139.966 816.609 140.552C815.343 143.946 812.929 144.303 811.281 144.303Z" fill="#E38B8B" fill-opacity="0.2"/>
<path d="M826.521 108.869C824.144 108.869 822.21 106.935 822.21 104.558C822.21 102.182 824.144 100.248 826.521 100.248C828.897 100.248 830.83 102.182 830.83 104.558C830.829 106.935 828.897 108.869 826.521 108.869ZM826.521 102.521C825.397 102.521 824.482 103.435 824.482 104.559C824.482 105.681 825.397 106.597 826.521 106.597C827.643 106.597 828.556 105.681 828.556 104.559C828.556 103.435 827.642 102.521 826.521 102.521Z" fill="#E38B8B" fill-opacity="0.2"/>
<path d="M828.37 134.028C828.205 134.028 828.038 133.991 827.881 133.916C827.314 133.645 827.075 132.967 827.346 132.4C828.007 131.018 828.823 129.486 829.778 127.837C830.092 127.294 830.788 127.109 831.33 127.423C831.873 127.737 832.059 128.433 831.745 128.977C830.821 130.571 830.032 132.053 829.398 133.379C829.2 133.788 828.793 134.028 828.37 134.028Z" fill="#E38B8B" fill-opacity="0.2"/>
<path d="M833.268 125.432C833.058 125.432 832.846 125.374 832.657 125.254C832.128 124.917 831.972 124.214 832.311 123.684C837.206 116.018 842.935 108.755 842.994 108.683C843.382 108.19 844.096 108.106 844.59 108.495C845.083 108.885 845.164 109.599 844.775 110.091C844.72 110.163 839.059 117.338 834.227 124.906C834.01 125.246 833.642 125.432 833.268 125.432Z" fill="#E38B8B" fill-opacity="0.2"/>
<path d="M845.582 105.695C845.178 105.695 844.786 105.475 844.579 105.095C844.283 104.544 844.492 103.854 845.044 103.558C845.161 103.492 856.75 97.163 858.329 87.9C858.434 87.279 859.022 86.863 859.64 86.971C860.258 87.077 860.674 87.663 860.57 88.283C858.802 98.648 846.635 105.283 846.118 105.559C845.947 105.65 845.763 105.695 845.582 105.695Z" fill="#E38B8B" fill-opacity="0.2"/>
<path d="M845.117 95.414C844.82 95.414 844.523 95.3 844.301 95.069C843.865 94.618 843.875 93.9 844.326 93.464C844.421 93.371 853.797 84.204 854.322 77.036C854.366 76.411 854.91 75.951 855.537 75.988C856.162 76.032 856.634 76.577 856.587 77.203C856.001 85.233 846.32 94.696 845.907 95.096C845.688 95.308 845.402 95.414 845.117 95.414Z" fill="#E38B8B" fill-opacity="0.2"/>
<path d="M844.11 114.896C843.66 114.896 843.236 114.628 843.056 114.186C842.821 113.605 843.102 112.942 843.684 112.706C843.829 112.647 858.255 106.734 862.532 98.411C862.82 97.853 863.503 97.633 864.062 97.918C864.62 98.205 864.84 98.891 864.553 99.45C859.888 108.526 845.159 114.56 844.534 114.812C844.396 114.87 844.251 114.896 844.11 114.896Z" fill="#E38B8B" fill-opacity="0.2"/>
<path d="M847.725 194.427C847.281 194.427 846.86 194.164 846.678 193.73C839 175.499 844.831 130.789 845.083 128.895C845.166 128.273 845.74 127.835 846.358 127.918C846.982 128.002 847.419 128.573 847.336 129.194C847.275 129.652 841.335 175.183 848.773 192.847C849.017 193.426 848.745 194.09 848.167 194.334C848.022 194.396 847.873 194.427 847.725 194.427Z" fill="#E38B8B" fill-opacity="0.2"/>
<path d="M840.416 193.281C840.015 193.281 839.625 193.069 839.419 192.692C834.042 182.896 835.087 148.15 835.135 146.678C835.154 146.051 835.687 145.554 836.307 145.579C836.934 145.597 837.427 146.123 837.407 146.75C837.396 147.105 836.331 182.343 841.412 191.598C841.713 192.148 841.513 192.837 840.963 193.14C840.788 193.237 840.602 193.281 840.416 193.281Z" fill="#E38B8B" fill-opacity="0.2"/>
<path d="M819.914 57.627C819.716 57.627 819.517 57.575 819.333 57.465C818.795 57.144 818.618 56.447 818.939 55.909C819.293 55.317 827.708 41.396 837.579 40.945C838.21 40.923 838.738 41.403 838.766 42.028C838.794 42.656 838.309 43.188 837.682 43.215C829.032 43.61 820.973 56.94 820.892 57.071C820.679 57.43 820.302 57.627 819.914 57.627Z" fill="#E38B8B" fill-opacity="0.2"/>
<path d="M840.007 60.369C839.786 60.369 839.564 60.305 839.369 60.17C838.85 59.82 838.715 59.117 839.066 58.595C839.161 58.455 841.449 55.129 847.028 51.686C847.563 51.355 848.262 51.52 848.593 52.055C848.922 52.59 848.756 53.291 848.221 53.62C843.094 56.78 840.967 59.841 840.945 59.87C840.726 60.194 840.369 60.369 840.007 60.369Z" fill="#E38B8B" fill-opacity="0.2"/>
<path d="M815.853 48.655C815.724 48.655 815.591 48.634 815.461 48.586C814.874 48.371 814.57 47.717 814.787 47.129C814.937 46.715 818.555 37.039 825.414 36.001C826.036 35.906 826.614 36.334 826.707 36.954C826.801 37.574 826.376 38.153 825.755 38.246C820.226 39.086 816.952 47.822 816.919 47.911C816.75 48.37 816.316 48.655 815.853 48.655Z" fill="#E38B8B" fill-opacity="0.2"/>
<path d="M853.826 70.056H808.126C807.5 70.056 806.99 69.547 806.99 68.919C806.99 68.293 807.5 67.782 808.126 67.782H853.826C854.454 67.782 854.962 68.292 854.962 68.919C854.963 69.547 854.454 70.056 853.826 70.056Z" fill="#E38B8B" fill-opacity="0.2"/>
<path d="M812.466 132.106H808.631C808.101 132.106 807.642 131.738 807.524 131.223C807.228 129.929 805.667 128.084 805.089 127.482C804.654 127.029 804.67 126.309 805.122 125.874C805.575 125.442 806.293 125.455 806.729 125.908C806.95 126.137 808.67 127.965 809.45 129.835H811.652C812.088 128.698 813.057 126.71 814.76 125.714C815.303 125.398 815.999 125.581 816.315 126.122C816.632 126.666 816.449 127.36 815.906 127.678C814.576 128.455 813.763 130.532 813.562 131.27C813.429 131.761 812.979 132.106 812.466 132.106Z" fill="#E38B8B" fill-opacity="0.2"/>
<path d="M810.111 34.043C806.105 34.043 802.847 30.222 802.847 25.522C802.847 20.822 806.105 17 810.111 17C814.116 17 817.374 20.822 817.374 25.522C817.374 30.222 814.115 34.043 810.111 34.043ZM810.111 21.545C808.637 21.545 807.393 23.367 807.393 25.523C807.393 27.681 808.638 29.501 810.111 29.501C811.584 29.501 812.828 27.681 812.828 25.523C812.828 23.367 811.583 21.545 810.111 21.545Z" fill="#E38B8B" fill-opacity="0.2"/>
<path d="M813.499 116.109C812.905 116.109 812.405 115.649 812.366 115.045C811.93 108.271 814.435 103.467 814.541 103.266C814.836 102.713 815.525 102.502 816.078 102.794C816.633 103.089 816.843 103.776 816.549 104.332C816.515 104.396 814.241 108.811 814.633 114.9C814.674 115.526 814.198 116.069 813.571 116.108C813.548 116.109 813.523 116.109 813.499 116.109Z" fill="#E38B8B" fill-opacity="0.2"/>
</g>
<g filter="url(#filter2_f_155_2)">
<path d="M515.89 228.157C513.514 228.157 511.58 226.224 511.58 223.846C511.58 221.47 513.514 219.537 515.89 219.537C518.266 219.537 520.2 221.47 520.2 223.846C520.2 226.224 518.266 228.157 515.89 228.157ZM515.89 221.81C514.766 221.81 513.853 222.725 513.853 223.846C513.853 224.971 514.767 225.885 515.89 225.885C517.014 225.885 517.928 224.971 517.928 223.846C517.927 222.725 517.014 221.81 515.89 221.81Z" fill="#E38B8B" fill-opacity="0.2"/>
<path d="M531.717 307.962C530.461 307.962 529.444 306.944 529.444 305.689V274.403C529.444 273.146 530.462 272.13 531.717 272.13C532.972 272.13 533.989 273.146 533.989 274.403V305.689C533.99 306.945 532.972 307.962 531.717 307.962Z" fill="#E38B8B" fill-opacity="0.2"/>
<path d="M531.716 289.317C530.708 289.317 529.787 288.641 529.519 287.62C529.199 286.409 529.923 285.163 531.137 284.844C547.892 280.431 553.848 269.396 555.907 263.211C558.969 254.02 557.365 245.166 554.196 241.172C546.347 231.27 539.382 190.076 539.091 188.328C538.883 187.09 539.719 185.916 540.957 185.711C542.197 185.504 543.366 186.338 543.574 187.576C545.513 199.167 551.845 230.888 557.759 238.346C562.411 244.214 563.424 255.03 560.221 264.65C557.872 271.706 551.119 284.28 532.295 289.24C532.103 289.291 531.907 289.317 531.716 289.317Z" fill="#E38B8B" fill-opacity="0.2"/>
<path d="M543.857 190.224H455.222C453.966 190.224 452.949 189.206 452.949 187.951V176.304L448.717 158.168C448.501 157.245 448.881 156.285 449.671 155.761C450.46 155.235 451.492 155.254 452.26 155.809C455.946 158.469 466.495 165.586 470.973 166.538C471.089 166.548 472.484 166.55 477.189 162.691C480.427 160.036 484.193 156.425 487.837 152.937C490.733 150.163 493.445 147.564 495.863 145.45C495.385 145.15 494.964 144.93 494.61 144.801C494.028 144.594 493.556 144.159 493.301 143.595C493.048 143.033 493.034 142.391 493.265 141.814L497.43 131.427C497.777 130.563 498.612 130 499.54 130C500.468 130 501.304 130.563 501.65 131.427L505.816 141.814C506.045 142.391 506.033 143.033 505.778 143.595C505.525 144.158 505.052 144.594 504.471 144.801C504.115 144.93 503.694 145.15 503.216 145.45C505.634 147.564 508.347 150.163 511.241 152.937C514.886 156.426 518.652 160.037 521.89 162.691C526.589 166.541 527.983 166.554 528.128 166.535C532.585 165.586 543.133 158.469 546.819 155.809C547.587 155.254 548.618 155.235 549.409 155.761C550.199 156.284 550.579 157.244 550.364 158.168L546.13 176.304V187.951C546.13 189.206 545.113 190.224 543.857 190.224ZM497.394 185.679H541.585V176.041C541.585 175.87 541.604 175.694 541.644 175.524L544.602 162.857C539.934 165.949 533.104 170.121 529.052 170.983C524.74 171.903 518.28 165.971 508.097 156.218C505.227 153.466 502.141 150.51 499.539 148.28C496.937 150.51 493.852 153.467 490.98 156.218C480.798 165.971 474.341 171.9 470.026 170.983C465.974 170.121 459.144 165.948 454.476 162.857L457.434 175.524C457.473 175.694 457.492 175.869 457.492 176.041V185.679H497.394ZM498.249 141.596C498.663 141.856 499.093 142.148 499.54 142.471C499.988 142.149 500.417 141.856 500.83 141.596L499.54 138.38L498.249 141.596Z" fill="#E38B8B" fill-opacity="0.2"/>
<path d="M536.283 167.579C535.57 167.579 534.867 167.244 534.424 166.618C527.569 156.902 508.802 155.943 508.613 155.934C507.359 155.878 506.389 154.815 506.446 153.561C506.503 152.308 507.562 151.334 508.819 151.394C509.682 151.433 530.013 152.483 538.138 163.997C538.862 165.021 538.618 166.44 537.592 167.164C537.194 167.442 536.737 167.579 536.283 167.579Z" fill="#E38B8B" fill-opacity="0.2"/>
<path d="M516.016 291.865H499.539C498.284 291.865 497.266 290.847 497.266 289.592C497.266 288.337 498.285 287.319 499.539 287.319H514.763L518.955 280.679C519.098 280.451 519.282 280.252 519.496 280.088L534.008 268.98V187.951C534.008 186.697 535.026 185.679 536.28 185.679C537.534 185.679 538.553 186.697 538.553 187.951V270.102C538.553 270.81 538.222 271.477 537.661 271.907L522.581 283.45L517.936 290.804C517.522 291.463 516.796 291.865 516.016 291.865Z" fill="#E38B8B" fill-opacity="0.2"/>
<path d="M555.219 322.165H536.281C535.026 322.165 534.009 321.147 534.009 319.893V307.963H505.05L501.531 314.36C500.927 315.46 499.544 315.863 498.444 315.256C497.345 314.652 496.944 313.268 497.548 312.169L501.715 304.595C502.115 303.868 502.877 303.417 503.706 303.417H536.281C537.536 303.417 538.554 304.435 538.554 305.69V317.621H555.218C556.475 317.621 557.491 318.64 557.491 319.893C557.492 321.147 556.476 322.165 555.219 322.165Z" fill="#E38B8B" fill-opacity="0.2"/>
<path d="M517.91 261.752H511.092C510.93 261.752 510.771 261.716 510.624 261.651L504.976 259.101H499.539C498.911 259.101 498.403 258.592 498.403 257.963C498.403 257.335 498.911 256.828 499.539 256.828H505.221C505.381 256.828 505.542 256.861 505.688 256.928L511.336 259.479H517.909C518.536 259.479 519.047 259.988 519.047 260.616C519.048 261.243 518.537 261.752 517.91 261.752Z" fill="#E38B8B" fill-opacity="0.2"/>
<path d="M499.54 272.357C499.265 272.357 498.989 272.257 498.771 272.057C498.309 271.633 498.28 270.912 498.704 270.452L502.631 266.184H499.54C498.912 266.184 498.404 265.675 498.404 265.048C498.404 264.42 498.912 263.911 499.54 263.911H505.222C505.673 263.911 506.08 264.178 506.262 264.59C506.444 265.007 506.364 265.488 506.057 265.819L500.376 271.992C500.152 272.235 499.846 272.357 499.54 272.357Z" fill="#E38B8B" fill-opacity="0.2"/>
<path d="M506.233 222.17C505.423 222.17 504.639 221.734 504.23 220.97L501.452 215.794C500.859 214.688 501.274 213.311 502.38 212.715C503.485 212.122 504.862 212.54 505.458 213.644L507.182 216.858L522.244 209.16C523.005 208.769 523.92 208.842 524.612 209.343L529.663 213.005C530.68 213.742 530.905 215.163 530.169 216.179C529.432 217.195 528.011 217.422 526.996 216.686L523.074 213.841L507.268 221.918C506.935 222.088 506.582 222.17 506.233 222.17Z" fill="#E38B8B" fill-opacity="0.2"/>
<path d="M506.925 236.437C506.322 236.437 505.818 235.958 505.791 235.352L505.096 219.948C505.068 219.322 505.554 218.79 506.179 218.761C506.815 218.735 507.338 219.219 507.366 219.846L508.059 235.248C508.089 235.876 507.603 236.405 506.976 236.436C506.96 236.437 506.943 236.437 506.925 236.437Z" fill="#E38B8B" fill-opacity="0.2"/>
<path d="M510.475 225.577C510.232 225.577 509.988 225.502 509.781 225.341C509.285 224.958 509.194 224.247 509.575 223.747L512.402 220.086C512.58 219.855 512.84 219.701 513.129 219.657C514.025 219.518 521.997 218.407 525.46 221.799C525.908 222.239 525.916 222.958 525.477 223.404C525.038 223.854 524.317 223.862 523.87 223.422C521.754 221.35 516.337 221.539 513.918 221.842L511.375 225.134C511.151 225.428 510.815 225.577 510.475 225.577Z" fill="#E38B8B" fill-opacity="0.2"/>
<path d="M520.499 253.744C519.871 253.744 519.362 253.235 519.362 252.609V245.755C519.362 245.127 519.871 244.618 520.499 244.618C521.127 244.618 521.635 245.127 521.635 245.755V252.609C521.635 253.235 521.127 253.744 520.499 253.744Z" fill="#E38B8B" fill-opacity="0.2"/>
<path d="M523.403 243.893C523.082 243.893 522.763 243.756 522.539 243.493C522.131 243.016 522.188 242.301 522.665 241.891L535.542 230.9C536.02 230.494 536.738 230.548 537.145 231.026C537.553 231.504 537.497 232.219 537.019 232.629L524.141 243.621C523.927 243.803 523.665 243.893 523.403 243.893Z" fill="#E38B8B" fill-opacity="0.2"/>
<path d="M550.654 277.456C550.485 277.456 550.312 277.419 550.149 277.339C549.588 277.059 549.357 276.377 549.637 275.817C553.408 268.222 552.639 247.057 547.291 242.545C541.043 237.274 535.429 218.778 535.193 217.993C535.012 217.393 535.354 216.759 535.953 216.577C536.555 216.398 537.188 216.737 537.368 217.339C537.425 217.524 543.023 235.97 548.756 240.807C555.352 246.373 555.554 269.009 551.673 276.827C551.475 277.228 551.072 277.456 550.654 277.456Z" fill="#E38B8B" fill-opacity="0.2"/>
<path d="M541.008 284.647C540.907 284.647 540.802 284.634 540.699 284.605C540.095 284.434 539.743 283.806 539.914 283.202C539.958 283.045 544.339 267.407 543.563 258.505C542.822 250.002 535.819 246.191 535.748 246.152C535.193 245.857 534.982 245.17 535.277 244.615C535.571 244.063 536.258 243.851 536.814 244.143C537.147 244.321 544.981 248.585 545.828 258.308C546.64 267.623 542.287 283.163 542.101 283.82C541.96 284.322 541.505 284.647 541.008 284.647Z" fill="#E38B8B" fill-opacity="0.2"/>
<path d="M536.281 206.64C536.26 206.64 536.24 206.638 536.219 206.638C514.788 206.049 501.376 190.078 500.816 189.397C500.019 188.429 500.155 186.999 501.124 186.199C502.091 185.401 503.522 185.537 504.321 186.502C504.451 186.659 517.03 201.563 536.344 202.094C537.598 202.13 538.587 203.174 538.553 204.43C538.519 205.662 537.508 206.64 536.281 206.64Z" fill="#E38B8B" fill-opacity="0.2"/>
<path d="M534.756 198.957C524.701 198.957 515.468 189.165 515.058 188.726C514.631 188.268 514.657 187.547 515.116 187.121C515.575 186.695 516.295 186.718 516.723 187.179C516.82 187.282 526.626 197.672 536.157 196.61C536.779 196.539 537.343 196.989 537.412 197.613C537.482 198.236 537.031 198.799 536.408 198.868C535.856 198.927 535.304 198.957 534.756 198.957Z" fill="#E38B8B" fill-opacity="0.2"/>
<path d="M542.531 179.935H495.374C494.118 179.935 493.101 178.916 493.101 177.663C493.101 176.408 494.119 175.39 495.374 175.39H542.531C543.784 175.39 544.803 176.408 544.803 177.663C544.804 178.916 543.785 179.935 542.531 179.935Z" fill="#E38B8B" fill-opacity="0.2"/>
<path d="M483.191 228.157C480.814 228.157 478.879 226.224 478.879 223.846C478.879 221.47 480.814 219.537 483.191 219.537C485.567 219.537 487.5 221.47 487.5 223.846C487.499 226.224 485.567 228.157 483.191 228.157ZM483.191 221.81C482.067 221.81 481.152 222.725 481.152 223.846C481.152 224.971 482.067 225.885 483.191 225.885C484.313 225.885 485.229 224.971 485.229 223.846C485.228 222.725 484.312 221.81 483.191 221.81Z" fill="#E38B8B" fill-opacity="0.2"/>
<path d="M467.362 307.962C466.107 307.962 465.09 306.944 465.09 305.689V274.403C465.09 273.146 466.108 272.13 467.362 272.13C468.618 272.13 469.635 273.146 469.635 274.403V305.689C469.635 306.945 468.618 307.962 467.362 307.962Z" fill="#E38B8B" fill-opacity="0.2"/>
<path d="M467.364 289.317C467.173 289.317 466.976 289.291 466.782 289.24C447.958 284.281 441.208 271.706 438.859 264.65C435.655 255.03 436.667 244.214 441.319 238.346C447.234 230.888 453.565 199.167 455.505 187.576C455.712 186.338 456.884 185.505 458.121 185.711C459.361 185.917 460.196 187.09 459.988 188.328C459.696 190.076 452.73 231.27 444.881 241.172C441.714 245.166 440.109 254.02 443.17 263.211C445.23 269.397 451.185 280.431 467.94 284.844C469.154 285.163 469.879 286.409 469.56 287.62C469.291 288.641 468.372 289.317 467.364 289.317Z" fill="#E38B8B" fill-opacity="0.2"/>
<path d="M462.797 167.579C462.344 167.579 461.887 167.446 461.488 167.163C460.463 166.438 460.218 165.019 460.94 163.996C469.067 152.482 489.399 151.432 490.259 151.393C491.501 151.334 492.575 152.307 492.632 153.56C492.69 154.814 491.719 155.875 490.467 155.933C490.278 155.942 471.493 156.927 464.655 166.617C464.212 167.244 463.509 167.578 462.797 167.579Z" fill="#E38B8B" fill-opacity="0.2"/>
<path d="M499.54 291.865H483.063C482.284 291.865 481.557 291.464 481.141 290.804L476.498 283.45L461.417 271.907C460.855 271.477 460.526 270.81 460.526 270.102V187.951C460.526 186.697 461.544 185.679 462.798 185.679C464.054 185.679 465.071 186.697 465.071 187.951V268.98L479.583 280.088C479.798 280.252 479.979 280.451 480.124 280.679L484.315 287.319H499.539C500.795 287.319 501.811 288.337 501.811 289.592C501.811 290.847 500.796 291.865 499.54 291.865Z" fill="#E38B8B" fill-opacity="0.2"/>
<path d="M462.798 322.165H443.859C442.605 322.165 441.587 321.147 441.587 319.893C441.587 318.64 442.605 317.621 443.859 317.621H460.526V305.69C460.526 304.434 461.544 303.417 462.798 303.417H495.373C496.202 303.417 496.964 303.868 497.363 304.595L501.53 312.169C502.135 313.269 501.735 314.653 500.634 315.256C499.534 315.863 498.152 315.46 497.546 314.36L494.027 307.963H465.07V319.893C465.071 321.147 464.054 322.165 462.798 322.165Z" fill="#E38B8B" fill-opacity="0.2"/>
<path d="M487.987 261.752H481.169C480.541 261.752 480.033 261.243 480.033 260.615C480.033 259.988 480.541 259.478 481.169 259.478H487.742L493.39 256.927C493.536 256.861 493.696 256.827 493.859 256.827H499.54C500.168 256.827 500.676 257.334 500.676 257.962C500.676 258.591 500.168 259.1 499.54 259.1H494.103L488.455 261.65C488.308 261.716 488.148 261.752 487.987 261.752Z" fill="#E38B8B" fill-opacity="0.2"/>
<path d="M520.88 283.028C520.853 283.028 520.827 283.027 520.801 283.025C520.176 282.983 519.701 282.441 519.744 281.817C520.126 276.176 520.826 260.808 519.504 257.43C518.416 254.646 510.038 249.692 504.664 247.027L500.057 249.379C499.734 249.546 499.349 249.546 499.025 249.379L494.418 247.027C489.043 249.692 480.664 254.648 479.577 257.43C478.256 260.807 478.957 276.176 479.338 281.817C479.38 282.441 478.906 282.983 478.279 283.025C477.659 283.067 477.112 282.595 477.07 281.967C476.926 279.843 475.715 261.066 477.462 256.601C479.275 251.966 492.437 245.46 493.932 244.734C494.252 244.577 494.629 244.58 494.946 244.744L499.542 247.089L504.14 244.744C504.456 244.58 504.832 244.577 505.152 244.734C506.647 245.46 519.808 251.966 521.623 256.601C523.37 261.066 522.158 279.843 522.014 281.967C521.971 282.569 521.471 283.028 520.88 283.028Z" fill="#E38B8B" fill-opacity="0.2"/>
<path d="M513.865 282.399C512.54 282.399 510.34 281.718 506.293 279.278C503.203 277.414 500.491 275.399 500.377 275.314C499.872 274.94 499.77 274.23 500.145 273.725C500.52 273.223 501.231 273.118 501.734 273.493C507.147 277.522 513.055 280.664 514.128 280.083C515.473 279.192 518.216 269.831 520.097 261.311C517.234 260.138 509.095 256.666 506.016 253.87L499.823 255.46C499.638 255.508 499.444 255.508 499.259 255.46L493.067 253.87C489.988 256.666 481.848 260.138 478.984 261.311C480.865 269.832 483.609 279.192 484.96 280.085C486.029 280.665 491.935 277.523 497.347 273.494C497.85 273.119 498.562 273.224 498.938 273.726C499.312 274.23 499.208 274.941 498.705 275.315C498.591 275.4 495.878 277.415 492.788 279.279C486.827 282.872 484.867 282.652 483.825 282.056C481.035 280.462 477.813 266.697 476.559 260.853C476.441 260.312 476.734 259.763 477.25 259.557C480.578 258.239 489.692 254.282 491.875 251.849C492.157 251.533 492.592 251.404 493.003 251.505L499.539 253.184L506.075 251.505C506.485 251.404 506.92 251.533 507.203 251.849C509.387 254.281 518.5 258.239 521.829 259.557C522.344 259.763 522.639 260.312 522.521 260.853C521.265 266.696 518.045 280.461 515.253 282.056C514.92 282.246 514.491 282.399 513.865 282.399Z" fill="#E38B8B" fill-opacity="0.2"/>
<path d="M499.54 272.357C499.234 272.357 498.929 272.235 498.704 271.991L493.022 265.818C492.717 265.487 492.636 265.006 492.817 264.589C492.999 264.177 493.406 263.91 493.859 263.91H499.54C500.168 263.91 500.676 264.419 500.676 265.047C500.676 265.674 500.168 266.183 499.54 266.183H496.449L500.377 270.451C500.802 270.912 500.771 271.633 500.311 272.056C500.091 272.258 499.815 272.357 499.54 272.357Z" fill="#E38B8B" fill-opacity="0.2"/>
<path d="M501.936 245.808C501.444 245.808 500.986 245.777 500.564 245.746C499.835 245.694 499.245 245.694 498.515 245.746C496.667 245.875 494.138 246.053 490.975 243.361C488.42 241.186 486.678 242.413 486.488 242.563C485.997 242.942 485.285 242.862 484.897 242.378C484.51 241.895 484.576 241.193 485.054 240.798C486.182 239.867 489.179 238.844 492.45 241.63C494.905 243.722 496.659 243.599 498.356 243.478C499.132 243.425 499.951 243.425 500.725 243.478C502.423 243.599 504.176 243.722 506.632 241.63C509.902 238.846 512.898 239.867 514.025 240.798C514.51 241.196 514.579 241.914 514.18 242.397C513.782 242.882 513.064 242.951 512.581 242.551C512.403 242.412 510.66 241.185 508.106 243.36C505.664 245.439 503.601 245.808 501.936 245.808Z" fill="#E38B8B" fill-opacity="0.2"/>
<path d="M492.846 222.17C492.498 222.17 492.146 222.088 491.814 221.919L476.009 213.842L472.086 216.687C471.071 217.422 469.649 217.196 468.914 216.18C468.176 215.164 468.402 213.743 469.419 213.006L474.47 209.344C475.161 208.843 476.076 208.773 476.838 209.161L491.899 216.859L493.625 213.645C494.218 212.539 495.597 212.123 496.702 212.716C497.808 213.312 498.223 214.689 497.631 215.795L494.851 220.971C494.442 221.735 493.657 222.17 492.846 222.17Z" fill="#E38B8B" fill-opacity="0.2"/>
<path d="M492.154 236.437C492.137 236.437 492.119 236.437 492.102 236.437C491.475 236.406 490.99 235.877 491.018 235.249L491.713 219.847C491.741 219.219 492.261 218.736 492.899 218.762C493.525 218.791 494.011 219.322 493.983 219.949L493.289 235.353C493.261 235.959 492.759 236.437 492.154 236.437Z" fill="#E38B8B" fill-opacity="0.2"/>
<path d="M488.605 225.577C488.265 225.577 487.928 225.428 487.705 225.136L485.162 221.844C482.74 221.547 477.32 221.356 475.211 223.424C474.763 223.864 474.044 223.856 473.604 223.406C473.165 222.959 473.171 222.24 473.62 221.801C477.083 218.409 485.054 219.52 485.951 219.659C486.24 219.702 486.5 219.857 486.678 220.088L489.504 223.749C489.888 224.249 489.796 224.959 489.3 225.343C489.091 225.501 488.848 225.577 488.605 225.577Z" fill="#E38B8B" fill-opacity="0.2"/>
<path d="M478.582 253.744C477.954 253.744 477.444 253.235 477.444 252.609V245.755C477.444 245.127 477.954 244.618 478.582 244.618C479.21 244.618 479.718 245.127 479.718 245.755V252.609C479.717 253.235 479.21 253.744 478.582 253.744Z" fill="#E38B8B" fill-opacity="0.2"/>
<path d="M475.677 243.893C475.416 243.893 475.154 243.803 474.94 243.622L462.062 232.63C461.583 232.22 461.527 231.505 461.935 231.027C462.343 230.549 463.061 230.494 463.537 230.901L476.415 241.892C476.893 242.302 476.949 243.017 476.541 243.494C476.317 243.756 475.997 243.893 475.677 243.893Z" fill="#E38B8B" fill-opacity="0.2"/>
<path d="M448.425 277.456C448.008 277.456 447.605 277.228 447.407 276.827C443.525 269.01 443.727 246.373 450.323 240.807C456.057 235.97 461.656 217.523 461.71 217.339C461.892 216.737 462.525 216.398 463.126 216.577C463.727 216.758 464.068 217.392 463.887 217.993C463.651 218.778 458.037 237.274 451.789 242.545C446.441 247.058 445.672 268.222 449.443 275.817C449.721 276.378 449.49 277.06 448.929 277.339C448.768 277.419 448.595 277.456 448.425 277.456Z" fill="#E38B8B" fill-opacity="0.2"/>
<path d="M458.07 284.647C457.575 284.647 457.119 284.322 456.977 283.82C456.792 283.163 452.44 267.623 453.252 258.308C454.098 248.586 461.933 244.322 462.267 244.143C462.821 243.851 463.508 244.062 463.801 244.615C464.096 245.169 463.887 245.855 463.332 246.15C463.044 246.304 456.253 250.043 455.515 258.504C454.741 267.406 459.12 283.044 459.165 283.201C459.336 283.805 458.984 284.433 458.38 284.604C458.277 284.634 458.174 284.647 458.07 284.647Z" fill="#E38B8B" fill-opacity="0.2"/>
<path d="M462.798 206.64C461.57 206.64 460.561 205.662 460.527 204.431C460.492 203.175 461.481 202.131 462.736 202.095C482.053 201.564 494.633 186.656 494.758 186.503C495.557 185.54 496.988 185.403 497.958 186.203C498.923 187 499.061 188.43 498.263 189.397C497.703 190.078 484.291 206.048 462.862 206.638C462.84 206.638 462.818 206.64 462.798 206.64Z" fill="#E38B8B" fill-opacity="0.2"/>
<path d="M464.323 198.957C463.775 198.957 463.225 198.926 462.673 198.867C462.049 198.798 461.599 198.234 461.67 197.612C461.739 196.987 462.306 196.536 462.923 196.609C472.457 197.672 482.26 187.281 482.357 187.178C482.786 186.717 483.504 186.692 483.963 187.12C484.422 187.547 484.449 188.267 484.022 188.725C483.613 189.166 474.378 198.957 464.323 198.957Z" fill="#E38B8B" fill-opacity="0.2"/>
<path d="M503.706 179.935H456.548C455.293 179.935 454.276 178.916 454.276 177.663C454.276 176.408 455.294 175.39 456.548 175.39H503.706C504.96 175.39 505.977 176.408 505.977 177.663C505.977 178.916 504.961 179.935 503.706 179.935Z" fill="#E38B8B" fill-opacity="0.2"/>
<path d="M499.54 174.376C496.019 174.376 493.262 170.289 493.262 165.068C493.262 159.847 496.02 155.76 499.54 155.76C503.061 155.76 505.819 159.847 505.819 165.068C505.819 170.289 503.061 174.376 499.54 174.376ZM499.54 158.66C497.941 158.66 496.16 161.291 496.16 165.069C496.16 168.846 497.941 171.48 499.54 171.48C501.138 171.48 502.919 168.847 502.919 165.069C502.919 161.29 501.138 158.66 499.54 158.66Z" fill="#E38B8B" fill-opacity="0.2"/>
</g>
<defs>
<filter id="filter0_f_155_2" x="127" y="62" width="114.391" height="130.663" filterUnits="userSpaceOnUse" color-interpolation-filters="sRGB">
<feFlood flood-opacity="0" result="BackgroundImageFix"/>
<feBlend mode="normal" in="SourceGraphic" in2="BackgroundImageFix" result="shape"/>
<feGaussianBlur stdDeviation="3.5" result="effect1_foregroundBlur_155_2"/>
</filter>
<filter id="filter1_f_155_2" x="746" y="10" width="128.221" height="192.615" filterUnits="userSpaceOnUse" color-interpolation-filters="sRGB">
<feFlood flood-opacity="0" result="BackgroundImageFix"/>
<feBlend mode="normal" in="SourceGraphic" in2="BackgroundImageFix" result="shape"/>
<feGaussianBlur stdDeviation="3.5" result="effect1_foregroundBlur_155_2"/>
</filter>
<filter id="filter2_f_155_2" x="430" y="123" width="139.079" height="206.165" filterUnits="userSpaceOnUse" color-interpolation-filters="sRGB">
<feFlood flood-opacity="0" result="BackgroundImageFix"/>
<feBlend mode="normal" in="SourceGraphic" in2="BackgroundImageFix" result="shape"/>
<feGaussianBlur stdDeviation="3.5" result="effect1_foregroundBlur_155_2"/>
</filter>
</defs>
</svg>
