<svg width="1000" height="290" viewBox="0 0 1000 290" fill="none" xmlns="http://www.w3.org/2000/svg">
<rect width="1000" height="290" fill="#576B90"/>
<g filter="url(#filter0_f_103_7)">
<path d="M315.859 27.0435C314.888 30.7404 314.535 31.087 311.181 31.087L307.474 31.2025L310.387 34.3217C313.035 37.2099 313.211 37.672 312.329 41.4844C311.887 43.6794 311.446 45.6433 311.446 45.8744C311.446 46.1054 312.858 45.1812 314.535 43.7949L317.625 41.2533L320.626 43.7949L323.715 46.2209L322.744 41.8309C321.95 37.7875 322.038 37.3254 324.598 34.3217L327.334 31.087H323.803C320.626 31.087 320.184 30.7404 319.037 27.0435C318.331 24.8485 317.536 23.0001 317.272 23.0001C317.095 23.0001 316.389 24.8485 315.859 27.0435Z" fill="#B7C5DC" fill-opacity="0.2"/>
<path d="M268.195 57.8892C267.048 61.9327 266.694 62.2792 263.34 62.2792L259.81 62.3948L262.281 65.2829C264.576 67.8245 264.753 68.6332 264.223 72.9077L263.605 77.6443L266.253 75.1027C269.519 72.099 269.519 72.099 272.697 75.1027C275.345 77.5288 275.698 77.0667 274.462 71.5214C273.932 69.2108 274.285 68.0556 276.492 65.514L279.228 62.3948L275.698 62.2792C272.432 62.2792 272.079 61.9327 270.755 57.8892L269.431 53.6147L268.195 57.8892Z" fill="#B7C5DC" fill-opacity="0.2"/>
<path d="M364.053 57.8888C362.729 61.9323 362.376 62.2788 358.934 62.2788H355.227L358.139 65.5136C360.964 68.5173 361.052 68.8639 360.17 73.0228L359.199 77.4128L362.376 74.9868L365.466 72.6762L368.467 75.1023C370.144 76.3731 371.468 77.2973 371.468 77.0663C371.468 76.8352 371.026 74.8713 370.585 72.6762C369.702 68.8639 369.879 68.4018 372.527 65.5136L375.44 62.3944L371.821 62.2788C368.467 62.2788 368.114 61.9323 366.878 57.8888L365.554 53.6143L364.053 57.8888Z" fill="#B7C5DC" fill-opacity="0.2"/>
<path d="M313.653 89.4279C309.681 97.2837 306.503 107.219 303.943 119.118L302.09 128.129L298.206 121.082C296.088 117.27 292.116 111.493 289.467 108.259C284.701 102.598 276.316 94.6266 275.08 94.6266C273.491 94.6266 272.432 108.836 272.873 123.855C273.138 132.635 273.05 139.566 272.785 139.451C260.074 130.555 242.951 122.7 241.185 124.895C240.92 125.357 241.538 129.978 242.509 135.292C244.275 144.534 249.306 159.437 253.19 167.062L255.131 170.874L252.13 169.95C246.658 168.448 223.002 169.026 219.825 170.874L217 172.607L219.648 177.806C226.092 190.514 240.214 205.763 253.631 214.543C260.074 218.702 269.96 223.208 278.787 225.98C286.819 228.406 306.944 228.869 313.653 226.558C316.919 225.518 318.861 225.403 321.155 226.327C322.833 227.02 328.393 227.829 333.513 228.291C357.963 230.024 387.444 215.352 405.627 192.593C412.071 184.391 418.073 173.647 416.837 172.145C414.278 168.91 393.711 167.408 384.708 169.719C382.501 170.181 380.559 170.528 380.383 170.297C380.206 170.065 380.912 168.333 381.972 166.484C384.973 160.823 390.71 144.187 392.211 136.794C393.976 127.667 393.976 124.663 391.946 124.663C388.327 124.663 376.676 129.747 369.349 134.599C365.024 137.487 361.405 139.566 361.317 139.451C361.141 139.22 361.405 136.447 361.758 133.328C362.818 125.241 362.818 111.493 361.67 102.713C361.229 98.67 360.611 95.0887 360.434 94.8576C360.258 94.511 358.228 95.7818 356.021 97.3992C350.725 101.558 341.545 112.88 336.602 121.429C334.219 125.588 332.454 127.667 332.277 126.743C332.012 125.934 331.041 121.082 329.982 116.115C328.04 106.41 321.332 88.1571 318.596 84.9223C317.007 83.0739 316.83 83.3049 313.653 89.4279ZM322.479 99.4787C324.686 105.371 327.422 115.075 328.57 121.082L330.6 131.826L326.54 142.455C324.245 148.231 321.42 156.895 320.273 161.632C319.125 166.369 318.066 170.759 317.801 171.336C317.537 171.914 316.124 167.293 314.535 161.285C312.947 155.163 310.034 146.151 307.915 141.184L304.208 132.173L305.267 125.241C307.297 111.84 315.065 88.8502 317.625 88.8502C318.066 88.8502 320.273 93.7023 322.479 99.4787ZM287.084 109.761C289.997 113.342 294.41 119.696 296.794 123.855L301.207 131.48V152.736L301.295 173.993L298.029 169.257C296.264 166.6 294.764 164.174 294.675 163.711C294.675 162.787 282.23 148.231 278.964 145.227C277.198 143.61 276.669 141.53 275.521 131.942C274.374 121.544 274.462 105.486 275.874 100.865C276.492 98.67 280.199 101.558 287.084 109.761ZM359.463 102.829C360.346 108.605 360.081 127.898 359.022 135.754C358.051 142.917 357.963 143.148 351.519 149.964C347.9 153.892 344.988 157.82 344.988 158.744C344.988 159.668 344.546 160.361 344.017 160.13C343.487 160.015 340.839 163.249 338.103 167.293L333.248 174.802L333.778 162.672C334.131 156.087 334.042 146.845 333.689 142.108C332.983 134.137 333.16 133.328 335.278 128.822C339.603 119.927 355.756 99.2476 358.316 99.2476C358.669 99.2476 359.11 100.865 359.463 102.829ZM251.954 130.555C258.133 133.097 265.988 137.834 271.726 142.57C274.462 144.881 275.168 146.382 276.845 153.661C277.816 158.397 280.729 167.524 283.201 174.109C285.584 180.694 287.614 186.239 287.614 186.586C287.614 186.817 284.525 185.084 280.817 182.542C277.022 180.116 270.402 176.65 266.077 174.802C258.574 171.567 258.044 171.221 255.396 165.675C250.012 154.816 246.04 142.57 244.01 131.249C243.304 127.321 243.922 127.321 251.954 130.555ZM390.887 130.44C390.887 136.563 382.06 162.556 377.735 169.372C376.852 170.759 373.41 172.838 369.703 174.34C364.583 176.304 354.167 182.196 347.459 186.817C347.106 187.048 348.695 182.311 350.99 176.419C353.285 170.528 356.286 161.054 357.698 155.509C360.081 145.689 360.258 145.227 364.671 141.53C370.232 136.794 375.616 133.559 382.06 131.017C384.708 129.978 387.356 128.938 387.797 128.707C390.004 127.783 390.887 128.245 390.887 130.44ZM307.915 148C309.769 153.314 312.329 162.094 313.653 167.524C315.859 176.997 315.948 178.152 315.242 190.976L314.535 204.608L309.416 191.438C304.649 179.077 304.296 177.69 303.502 166.369C302.708 155.74 303.149 138.527 304.12 138.527C304.296 138.527 306.062 142.801 307.915 148ZM331.748 152.621C331.748 170.643 330.424 178.845 325.216 192.131L320.449 204.146L319.743 193.517C319.302 187.741 319.037 181.387 319.125 179.539C319.39 174.455 323.539 157.82 326.981 147.769C330.777 137.256 331.748 138.18 331.748 152.621ZM286.819 158.051C296.529 169.603 301.913 180.001 305.179 193.402C306.768 199.756 308.268 205.763 308.533 206.687C308.886 207.612 306.768 205.763 303.855 202.528C301.031 199.409 297.5 195.597 296.088 194.211C291.409 189.474 284.171 172.838 280.111 157.126C277.64 147.307 277.993 147.422 286.819 158.051ZM354.167 159.437C350.548 173.069 343.399 189.127 338.897 193.864C336.691 196.174 332.807 200.565 330.247 203.684C327.687 206.803 325.569 209.113 325.569 208.767C325.569 208.536 326.54 205.186 327.687 201.373C328.835 197.445 330.247 191.784 330.777 188.665C331.394 185.084 333.513 180.116 336.161 175.264C341.104 166.715 355.756 148 356.198 149.733C356.374 150.426 355.491 154.7 354.167 159.437ZM252.395 173.416C256.897 174.455 257.691 175.149 260.604 180.232C270.578 197.099 289.467 214.774 304.649 221.128C312.24 224.363 310.916 225.172 298.206 225.172C275.168 225.172 252.219 213.966 233.418 193.517C228.033 187.626 220.354 175.264 221.237 174.109C223.532 171.105 241.362 170.643 252.395 173.416ZM411.012 172.723C412.512 173.185 413.836 174.109 413.836 174.918C413.836 177.69 399.978 195.712 393.623 201.373C375.528 217.2 356.374 225.172 336.161 225.172C325.216 225.172 322.391 223.785 329.011 221.706C335.19 219.742 347.636 211.308 355.227 203.799C361.847 197.33 371.556 185.084 375.44 178.383C376.764 176.188 378.882 174.109 380.383 173.762C389.298 171.221 402.361 170.759 411.012 172.723ZM271.726 180.694C285.054 187.741 290.615 192.362 296.529 201.72C299.442 206.341 303.943 212.348 306.591 215.005C309.239 217.662 311.27 220.089 311.093 220.32C310.387 221.128 299.177 215.467 293.175 211.308C284.789 205.417 277.993 198.832 270.137 188.896C263.34 180.347 261.222 176.65 262.987 176.65C263.517 176.65 267.489 178.499 271.726 180.694ZM369.967 182.08C359.993 198.023 342.251 213.272 325.922 219.857C324.951 220.204 328.923 214.197 334.749 206.341C342.34 196.174 347.106 190.86 351.343 187.741C356.992 183.582 369.791 176.766 372.174 176.65C372.792 176.65 371.821 179.077 369.967 182.08ZM311.799 205.532C312.24 207.612 311.887 207.265 310.74 204.377C309.769 202.182 308.798 199.063 308.445 197.445C308.004 195.366 308.357 195.712 309.504 198.601C310.475 200.796 311.446 203.915 311.799 205.532ZM317.36 202.297C317.095 203.106 316.919 202.528 316.919 200.911C316.919 199.294 317.095 198.716 317.36 199.409C317.537 200.218 317.537 201.604 317.36 202.297ZM324.245 204.03C323.45 205.763 323.097 206.225 323.362 204.955C323.715 203.684 324.245 201.604 324.51 200.333C324.774 199.063 325.127 198.716 325.304 199.409C325.569 200.218 325.039 202.182 324.245 204.03ZM304.473 207.496C305.62 209.345 305.532 209.46 304.208 207.958C302.708 206.456 302.266 205.532 302.972 205.532C303.149 205.532 303.855 206.456 304.473 207.496Z" fill="#B7C5DC" fill-opacity="0.2"/>
<path d="M315.771 253.129C314.8 256.248 313.917 257.057 311.181 257.519L307.739 258.097L310.563 260.754C312.329 262.487 313.123 264.104 312.858 265.259C312.593 266.184 312.064 268.263 311.711 269.996L311.181 273L314.006 270.343C316.565 267.917 317.095 267.801 319.213 269.187C320.537 269.996 321.95 270.92 322.391 271.151C322.832 271.498 322.921 269.765 322.568 267.454C322.038 263.873 322.303 262.949 324.421 260.407L326.893 257.635L324.245 257.519C320.802 257.519 319.655 256.479 318.949 252.552C318.154 248.508 317.36 248.624 315.771 253.129Z" fill="#B7C5DC" fill-opacity="0.2"/>
<path d="M245.863 259.367C244.098 261.678 248.776 262.14 274.462 262.14C296.705 262.14 302.707 261.794 302.443 260.638C302.09 259.599 295.558 259.136 274.197 258.905C258.927 258.79 246.216 259.021 245.863 259.367Z" fill="#B7C5DC" fill-opacity="0.2"/>
<path d="M333.248 259.483C332.895 259.83 332.63 260.638 332.63 261.216C332.63 261.678 345.341 262.14 360.876 262.14C385.414 262.14 389.121 261.909 389.121 260.407C389.121 258.905 385.502 258.674 361.493 258.674C346.223 258.674 333.513 259.021 333.248 259.483Z" fill="#B7C5DC" fill-opacity="0.2"/>
</g>
<g filter="url(#filter1_f_103_7)">
<path d="M843.859 27.0435C842.888 30.7404 842.535 31.087 839.181 31.087L835.474 31.2025L838.387 34.3217C841.035 37.2099 841.211 37.672 840.329 41.4844C839.887 43.6794 839.446 45.6433 839.446 45.8744C839.446 46.1054 840.858 45.1812 842.535 43.7949L845.625 41.2533L848.626 43.7949L851.715 46.2209L850.744 41.8309C849.95 37.7875 850.038 37.3254 852.598 34.3217L855.334 31.087H851.803C848.626 31.087 848.184 30.7404 847.037 27.0435C846.331 24.8485 845.536 23.0001 845.272 23.0001C845.095 23.0001 844.389 24.8485 843.859 27.0435Z" fill="#B7C5DC" fill-opacity="0.2"/>
<path d="M796.195 57.8892C795.048 61.9327 794.694 62.2792 791.34 62.2792L787.81 62.3948L790.281 65.2829C792.576 67.8245 792.753 68.6332 792.223 72.9077L791.605 77.6443L794.253 75.1027C797.519 72.099 797.519 72.099 800.697 75.1027C803.345 77.5288 803.698 77.0667 802.462 71.5214C801.932 69.2108 802.285 68.0556 804.492 65.514L807.228 62.3948L803.698 62.2792C800.432 62.2792 800.079 61.9327 798.755 57.8892L797.431 53.6147L796.195 57.8892Z" fill="#B7C5DC" fill-opacity="0.2"/>
<path d="M892.053 57.8888C890.729 61.9323 890.376 62.2788 886.934 62.2788H883.227L886.139 65.5136C888.964 68.5173 889.052 68.8639 888.17 73.0228L887.199 77.4128L890.376 74.9868L893.466 72.6762L896.467 75.1023C898.144 76.3731 899.468 77.2973 899.468 77.0663C899.468 76.8352 899.026 74.8713 898.585 72.6762C897.702 68.8639 897.879 68.4018 900.527 65.5136L903.44 62.3944L899.821 62.2788C896.467 62.2788 896.114 61.9323 894.878 57.8888L893.554 53.6143L892.053 57.8888Z" fill="#B7C5DC" fill-opacity="0.2"/>
<path d="M841.653 89.4279C837.681 97.2837 834.503 107.219 831.943 119.118L830.09 128.129L826.206 121.082C824.088 117.27 820.116 111.493 817.467 108.259C812.701 102.598 804.316 94.6266 803.08 94.6266C801.491 94.6266 800.432 108.836 800.873 123.855C801.138 132.635 801.05 139.566 800.785 139.451C788.074 130.555 770.951 122.7 769.185 124.895C768.92 125.357 769.538 129.978 770.509 135.292C772.275 144.534 777.306 159.437 781.19 167.062L783.131 170.874L780.13 169.95C774.658 168.448 751.002 169.026 747.825 170.874L745 172.607L747.648 177.806C754.092 190.514 768.214 205.763 781.631 214.543C788.074 218.702 797.96 223.208 806.787 225.98C814.819 228.406 834.944 228.869 841.653 226.558C844.919 225.518 846.861 225.403 849.155 226.327C850.833 227.02 856.393 227.829 861.513 228.291C885.963 230.024 915.444 215.352 933.627 192.593C940.071 184.391 946.073 173.647 944.837 172.145C942.278 168.91 921.711 167.408 912.708 169.719C910.501 170.181 908.559 170.528 908.383 170.297C908.206 170.065 908.912 168.333 909.972 166.484C912.973 160.823 918.71 144.187 920.211 136.794C921.976 127.667 921.976 124.663 919.946 124.663C916.327 124.663 904.676 129.747 897.349 134.599C893.024 137.487 889.405 139.566 889.317 139.451C889.141 139.22 889.405 136.447 889.758 133.328C890.818 125.241 890.818 111.493 889.67 102.713C889.229 98.67 888.611 95.0887 888.434 94.8576C888.258 94.511 886.228 95.7818 884.021 97.3992C878.725 101.558 869.545 112.88 864.602 121.429C862.219 125.588 860.454 127.667 860.277 126.743C860.012 125.934 859.041 121.082 857.982 116.115C856.04 106.41 849.332 88.1571 846.596 84.9223C845.007 83.0739 844.83 83.3049 841.653 89.4279ZM850.479 99.4787C852.686 105.371 855.422 115.075 856.57 121.082L858.6 131.826L854.54 142.455C852.245 148.231 849.42 156.895 848.273 161.632C847.125 166.369 846.066 170.759 845.801 171.336C845.537 171.914 844.124 167.293 842.535 161.285C840.947 155.163 838.034 146.151 835.915 141.184L832.208 132.173L833.267 125.241C835.297 111.84 843.065 88.8502 845.625 88.8502C846.066 88.8502 848.273 93.7023 850.479 99.4787ZM815.084 109.761C817.997 113.342 822.41 119.696 824.794 123.855L829.207 131.48V152.736L829.295 173.993L826.029 169.257C824.264 166.6 822.764 164.174 822.675 163.711C822.675 162.787 810.23 148.231 806.964 145.227C805.198 143.61 804.669 141.53 803.521 131.942C802.374 121.544 802.462 105.486 803.874 100.865C804.492 98.67 808.199 101.558 815.084 109.761ZM887.463 102.829C888.346 108.605 888.081 127.898 887.022 135.754C886.051 142.917 885.963 143.148 879.519 149.964C875.9 153.892 872.988 157.82 872.988 158.744C872.988 159.668 872.546 160.361 872.017 160.13C871.487 160.015 868.839 163.249 866.103 167.293L861.248 174.802L861.778 162.672C862.131 156.087 862.042 146.845 861.689 142.108C860.983 134.137 861.16 133.328 863.278 128.822C867.603 119.927 883.756 99.2476 886.316 99.2476C886.669 99.2476 887.11 100.865 887.463 102.829ZM779.954 130.555C786.133 133.097 793.988 137.834 799.726 142.57C802.462 144.881 803.168 146.382 804.845 153.661C805.816 158.397 808.729 167.524 811.201 174.109C813.584 180.694 815.614 186.239 815.614 186.586C815.614 186.817 812.525 185.084 808.817 182.542C805.022 180.116 798.402 176.65 794.077 174.802C786.574 171.567 786.044 171.221 783.396 165.675C778.012 154.816 774.04 142.57 772.01 131.249C771.304 127.321 771.922 127.321 779.954 130.555ZM918.887 130.44C918.887 136.563 910.06 162.556 905.735 169.372C904.852 170.759 901.41 172.838 897.703 174.34C892.583 176.304 882.167 182.196 875.459 186.817C875.106 187.048 876.695 182.311 878.99 176.419C881.285 170.528 884.286 161.054 885.698 155.509C888.081 145.689 888.258 145.227 892.671 141.53C898.232 136.794 903.616 133.559 910.06 131.017C912.708 129.978 915.356 128.938 915.797 128.707C918.004 127.783 918.887 128.245 918.887 130.44ZM835.915 148C837.769 153.314 840.329 162.094 841.653 167.524C843.859 176.997 843.948 178.152 843.242 190.976L842.535 204.608L837.416 191.438C832.649 179.077 832.296 177.69 831.502 166.369C830.708 155.74 831.149 138.527 832.12 138.527C832.296 138.527 834.062 142.801 835.915 148ZM859.748 152.621C859.748 170.643 858.424 178.845 853.216 192.131L848.449 204.146L847.743 193.517C847.302 187.741 847.037 181.387 847.125 179.539C847.39 174.455 851.539 157.82 854.981 147.769C858.777 137.256 859.748 138.18 859.748 152.621ZM814.819 158.051C824.529 169.603 829.913 180.001 833.179 193.402C834.768 199.756 836.268 205.763 836.533 206.687C836.886 207.612 834.768 205.763 831.855 202.528C829.031 199.409 825.5 195.597 824.088 194.211C819.409 189.474 812.171 172.838 808.111 157.126C805.64 147.307 805.993 147.422 814.819 158.051ZM882.167 159.437C878.548 173.069 871.399 189.127 866.897 193.864C864.691 196.174 860.807 200.565 858.247 203.684C855.687 206.803 853.569 209.113 853.569 208.767C853.569 208.536 854.54 205.186 855.687 201.373C856.835 197.445 858.247 191.784 858.777 188.665C859.394 185.084 861.513 180.116 864.161 175.264C869.104 166.715 883.756 148 884.198 149.733C884.374 150.426 883.491 154.7 882.167 159.437ZM780.395 173.416C784.897 174.455 785.691 175.149 788.604 180.232C798.578 197.099 817.467 214.774 832.649 221.128C840.24 224.363 838.916 225.172 826.206 225.172C803.168 225.172 780.219 213.966 761.418 193.517C756.033 187.626 748.354 175.264 749.237 174.109C751.532 171.105 769.362 170.643 780.395 173.416ZM939.012 172.723C940.512 173.185 941.836 174.109 941.836 174.918C941.836 177.69 927.978 195.712 921.623 201.373C903.528 217.2 884.374 225.172 864.161 225.172C853.216 225.172 850.391 223.785 857.011 221.706C863.19 219.742 875.636 211.308 883.227 203.799C889.847 197.33 899.556 185.084 903.44 178.383C904.764 176.188 906.882 174.109 908.383 173.762C917.298 171.221 930.361 170.759 939.012 172.723ZM799.726 180.694C813.054 187.741 818.615 192.362 824.529 201.72C827.442 206.341 831.943 212.348 834.591 215.005C837.239 217.662 839.27 220.089 839.093 220.32C838.387 221.128 827.177 215.467 821.175 211.308C812.789 205.417 805.993 198.832 798.137 188.896C791.34 180.347 789.222 176.65 790.987 176.65C791.517 176.65 795.489 178.499 799.726 180.694ZM897.967 182.08C887.993 198.023 870.251 213.272 853.922 219.857C852.951 220.204 856.923 214.197 862.749 206.341C870.34 196.174 875.106 190.86 879.343 187.741C884.992 183.582 897.791 176.766 900.174 176.65C900.792 176.65 899.821 179.077 897.967 182.08ZM839.799 205.532C840.24 207.612 839.887 207.265 838.74 204.377C837.769 202.182 836.798 199.063 836.445 197.445C836.004 195.366 836.357 195.712 837.504 198.601C838.475 200.796 839.446 203.915 839.799 205.532ZM845.36 202.297C845.095 203.106 844.919 202.528 844.919 200.911C844.919 199.294 845.095 198.716 845.36 199.409C845.537 200.218 845.537 201.604 845.36 202.297ZM852.245 204.03C851.45 205.763 851.097 206.225 851.362 204.955C851.715 203.684 852.245 201.604 852.51 200.333C852.774 199.063 853.127 198.716 853.304 199.409C853.569 200.218 853.039 202.182 852.245 204.03ZM832.473 207.496C833.62 209.345 833.532 209.46 832.208 207.958C830.708 206.456 830.266 205.532 830.972 205.532C831.149 205.532 831.855 206.456 832.473 207.496Z" fill="#B7C5DC" fill-opacity="0.2"/>
<path d="M843.771 253.129C842.8 256.248 841.917 257.057 839.181 257.519L835.739 258.097L838.563 260.754C840.329 262.487 841.123 264.104 840.858 265.259C840.593 266.184 840.064 268.263 839.711 269.996L839.181 273L842.006 270.343C844.565 267.917 845.095 267.801 847.213 269.187C848.537 269.996 849.95 270.92 850.391 271.151C850.832 271.498 850.921 269.765 850.568 267.454C850.038 263.873 850.303 262.949 852.421 260.407L854.893 257.635L852.245 257.519C848.802 257.519 847.655 256.479 846.949 252.552C846.154 248.508 845.36 248.624 843.771 253.129Z" fill="#B7C5DC" fill-opacity="0.2"/>
<path d="M773.863 259.367C772.098 261.678 776.776 262.14 802.462 262.14C824.705 262.14 830.707 261.794 830.443 260.638C830.09 259.599 823.558 259.136 802.197 258.905C786.927 258.79 774.216 259.021 773.863 259.367Z" fill="#B7C5DC" fill-opacity="0.2"/>
<path d="M861.248 259.483C860.895 259.83 860.63 260.638 860.63 261.216C860.63 261.678 873.341 262.14 888.876 262.14C913.414 262.14 917.121 261.909 917.121 260.407C917.121 258.905 913.502 258.674 889.493 258.674C874.223 258.674 861.513 259.021 861.248 259.483Z" fill="#B7C5DC" fill-opacity="0.2"/>
</g>
<defs>
<filter id="filter0_f_103_7" x="210" y="16" width="214" height="264" filterUnits="userSpaceOnUse" color-interpolation-filters="sRGB">
<feFlood flood-opacity="0" result="BackgroundImageFix"/>
<feBlend mode="normal" in="SourceGraphic" in2="BackgroundImageFix" result="shape"/>
<feGaussianBlur stdDeviation="3.5" result="effect1_foregroundBlur_103_7"/>
</filter>
<filter id="filter1_f_103_7" x="738" y="16" width="214" height="264" filterUnits="userSpaceOnUse" color-interpolation-filters="sRGB">
<feFlood flood-opacity="0" result="BackgroundImageFix"/>
<feBlend mode="normal" in="SourceGraphic" in2="BackgroundImageFix" result="shape"/>
<feGaussianBlur stdDeviation="3.5" result="effect1_foregroundBlur_103_7"/>
</filter>
</defs>
</svg>
